<?xml version="1.0" standalone="no"?>
<!DOCTYPE svg PUBLIC "-//W3C//DTD SVG 1.1//EN" "http://www.w3.org/Graphics/SVG/1.1/DTD/svg11.dtd" >
<svg xmlns="http://www.w3.org/2000/svg" xmlns:xlink="http://www.w3.org/1999/xlink" version="1.1">
<metadata>
Created by FontForge 20190801 at Tue Jan  8 23:17:42 2019
 By Jimmy Wärting
Maison Neue is the thoroughly reworked version of our early Maison typeface family. While the original version was constructed on geometric principles, Maison Neue has now been meticulously redrawn and extended. Paying particular attention to harmony, rhythm and flow, the new typeface also accounts for up-to-date display and reproduction technologies to create a distinctly contemporary grotesque, with a classic touch. The whole family contains 40 styles thus far; each includes an extended Latin character set and a variety of OpenType features.
</metadata>
<defs>
<font id="MaisonNeue-ThinItalic" horiz-adv-x="650" >
  <font-face 
    font-family="Maison Neue Thin"
    font-weight="250"
    font-style="italic"
    font-stretch="normal"
    units-per-em="1000"
    panose-1="2 11 2 4 4 0 0 0 0 0"
    ascent="730"
    descent="-270"
    x-height="530"
    cap-height="700"
    bbox="-633 -300 2196 987"
    underline-thickness="70"
    underline-position="-120"
    slope="-10"
    unicode-range="U+000D-FEFF"
  />
<missing-glyph horiz-adv-x="686" 
d="M56 -5v423c0 171 131 292 292 292c161 2 297 -123 294 -292v-423h-28l-65 65l-68 -65l-63 65l-71 -65l-69 65l-63 -65l-67 65l-66 -65h-26zM156 300l63 63l64 -63l14 14l-64 63l64 64l-14 14l-64 -64l-63 64l-14 -14l63 -64l-63 -63zM416 300l63 63l64 -63l14 14l-64 63
l64 64l-14 14l-64 -64l-63 64l-14 -14l63 -64l-63 -63z" />
    <glyph glyph-name="W_W_W" unicode="WWW" horiz-adv-x="2137" 
d="M117 0l-23 700h47l19 -627h2l302 627h47l86 -627h2l302 627h47l86 -627h2l303 627h46l87 -627h2l302 627h46l87 -627h2l235 627h50l-265 -700h-56l-86 627h-2l-301 -627h-48l-86 627h-2l-301 -627h-48l-86 627h-2l-302 -627h-47l-86 627h-2l-302 -627h-57z" />
    <glyph glyph-name="fi" unicode="fi" horiz-adv-x="477" 
d="M204 530h247l-93 -530h-45l86 490h-203l-86 -490h-45l86 490h-88l8 40h88l11 65c11 66 51 99 120 99h70l-8 -43h-62c-45 0 -68 -19 -77 -66zM421 690h67l-11 -65h-67z" />
    <glyph glyph-name="fl" unicode="fl" horiz-adv-x="479" 
d="M441 730h45l-128 -730h-45l86 490h-203l-86 -490h-45l86 490h-88l8 40h88l11 65c11 66 51 99 120 99h70l-8 -43h-62c-45 0 -68 -19 -77 -66l-9 -55h202z" />
    <glyph glyph-name="w_w_w" unicode="www" horiz-adv-x="1776" 
d="M105 0l-30 530h45l24 -465h2l224 465h48l79 -465h2l224 465h48l79 -465h2l224 465h48l79 -465h2l224 465h48l79 -465h2l189 465h48l-218 -530h-49l-81 474h-2l-228 -474h-42l-81 474h-2l-229 -474h-41l-81 474h-2l-229 -474h-41l-81 474h-2l-229 -474h-52z" />
    <glyph glyph-name=".notdef" horiz-adv-x="686" 
d="M56 -5v423c0 171 131 292 292 292c161 2 297 -123 294 -292v-423h-28l-65 65l-68 -65l-63 65l-71 -65l-69 65l-63 -65l-67 65l-66 -65h-26zM156 300l63 63l64 -63l14 14l-64 63l64 64l-14 14l-64 -64l-63 64l-14 -14l63 -64l-63 -63zM416 300l63 63l64 -63l14 14l-64 63
l64 64l-14 14l-64 -64l-63 64l-14 -14l63 -64l-63 -63z" />
    <glyph glyph-name="NULL" horiz-adv-x="0" 
 />
    <glyph glyph-name="CR" unicode="&#xd;" horiz-adv-x="368" 
 />
    <glyph glyph-name="space" unicode=" " horiz-adv-x="276" 
 />
    <glyph glyph-name="A" unicode="A" horiz-adv-x="569" 
d="M473 0l-29 155h-355l-84 -155h-50l383 700h47l135 -700h-47zM112 197h324l-82 440h-2z" />
    <glyph glyph-name="Aacute" unicode="&#xc1;" horiz-adv-x="569" 
d="M473 0l-29 155h-355l-84 -155h-50l383 700h47l135 -700h-47zM112 197h324l-82 440h-2zM337 760l85 106h72l-111 -106h-46z" />
    <glyph glyph-name="Abreve" unicode="&#x102;" horiz-adv-x="569" 
d="M473 0l-29 155h-355l-84 -155h-50l383 700h47l135 -700h-47zM112 197h324l-82 440h-2zM272 853h30c5 -40 25 -60 62 -60c43 0 74 21 91 60h30c-16 -65 -62 -103 -123 -103c-56 0 -91 40 -90 103z" />
    <glyph glyph-name="uni01CD" unicode="&#x1cd;" horiz-adv-x="569" 
d="M473 0l-29 155h-355l-84 -155h-50l383 700h47l135 -700h-47zM112 197h324l-82 440h-2zM453 859l27 -27l-81 -82h-62l-57 88l33 21l55 -87z" />
    <glyph glyph-name="Acircumflex" unicode="&#xc2;" horiz-adv-x="569" 
d="M473 0l-29 155h-355l-84 -155h-50l383 700h47l135 -700h-47zM112 197h324l-82 440h-2zM467 761l-32 -21l-56 86l-84 -86l-27 27l80 82h62z" />
    <glyph glyph-name="uni1EAC" unicode="&#x1eac;" horiz-adv-x="569" 
d="M473 0l-29 155h-355l-84 -155h-50l383 700h47l135 -700h-47zM112 197h324l-82 440h-2zM467 761l-32 -21l-56 86l-84 -86l-27 27l80 82h62zM190 -124l13 75h76l-12 -75h-77z" />
    <glyph glyph-name="Adieresis" unicode="&#xc4;" horiz-adv-x="569" 
d="M473 0l-29 155h-355l-84 -155h-50l383 700h47l135 -700h-47zM112 197h324l-82 440h-2zM250 750l13 75h76l-12 -75h-77zM416 750l13 75h77l-13 -75h-77z" />
    <glyph glyph-name="uni01DE" unicode="&#x1de;" horiz-adv-x="569" 
d="M473 0l-29 155h-355l-84 -155h-50l383 700h47l135 -700h-47zM112 197h324l-82 440h-2zM250 750l13 75h76l-12 -75h-77zM416 750l13 75h77l-13 -75h-77zM279 865l7 38h243l-8 -38h-242z" />
    <glyph glyph-name="uni1EA0" unicode="&#x1ea0;" horiz-adv-x="569" 
d="M473 0l-29 155h-355l-84 -155h-50l383 700h47l135 -700h-47zM112 197h324l-82 440h-2zM190 -124l13 75h76l-12 -75h-77z" />
    <glyph glyph-name="Agrave" unicode="&#xc0;" horiz-adv-x="569" 
d="M473 0l-29 155h-355l-84 -155h-50l383 700h47l135 -700h-47zM112 197h324l-82 440h-2zM346 760l-73 106h71l47 -106h-45z" />
    <glyph glyph-name="Amacron" unicode="&#x100;" horiz-adv-x="569" 
d="M473 0l-29 155h-355l-84 -155h-50l383 700h47l135 -700h-47zM112 197h324l-82 440h-2zM261 760l7 38h243l-8 -38h-242z" />
    <glyph glyph-name="Aogonek" unicode="&#x104;" horiz-adv-x="569" 
d="M473 0l-29 155h-355l-84 -155h-50l383 700h47l135 -700h-47zM112 197h324l-82 440h-2zM369 -124c0 45 46 95 125 135l22 -11c-65 -33 -104 -75 -104 -114c0 -19 12 -29 36 -29c21 0 42 7 63 21l11 -36c-28 -17 -55 -25 -82 -25c-45 0 -71 20 -71 59z" />
    <glyph glyph-name="Aring" unicode="&#xc5;" horiz-adv-x="569" 
d="M473 0l-29 155h-355l-84 -155h-50l383 700h47l135 -700h-47zM112 197h324l-82 440h-2zM253 773c0 59 46 103 109 103c61 0 108 -44 108 -103c0 -60 -45 -104 -108 -104s-109 44 -109 104zM434 773c0 43 -31 72 -72 72c-43 0 -73 -31 -73 -72s30 -73 73 -73
c41 0 72 30 72 73z" />
    <glyph glyph-name="Aringacute" unicode="&#x1fa;" horiz-adv-x="569" 
d="M473 0l-29 155h-355l-84 -155h-50l383 700h47l135 -700h-47zM112 197h324l-82 440h-2zM253 773c0 59 46 103 109 103c61 0 108 -44 108 -103c0 -60 -45 -104 -108 -104s-109 44 -109 104zM434 773c0 43 -31 72 -72 72c-43 0 -73 -31 -73 -72s30 -73 73 -73
c41 0 72 30 72 73zM327 866l85 106h72l-111 -106h-46z" />
    <glyph glyph-name="Atilde" unicode="&#xc3;" horiz-adv-x="569" 
d="M473 0l-29 155h-355l-84 -155h-50l383 700h47l135 -700h-47zM112 197h324l-82 440h-2zM369 779c-20 13 -37 19 -50 19c-21 0 -35 -13 -43 -38h-29c8 47 37 76 76 76c23 0 39 -8 66 -24c20 -13 37 -19 50 -19c21 0 35 13 43 38h29c-8 -47 -37 -76 -76 -76
c-23 0 -39 8 -66 24z" />
    <glyph glyph-name="AE" unicode="&#xc6;" horiz-adv-x="837" 
d="M848 656h-301l-48 -273h273l-8 -44h-273l-52 -295h302l-9 -44h-347l28 158h-305l-98 -158h-55l440 700h461zM420 202l80 454h-82l-282 -454h284z" />
    <glyph glyph-name="AEacute" unicode="&#x1fc;" horiz-adv-x="837" 
d="M848 656h-301l-48 -273h273l-8 -44h-273l-52 -295h302l-9 -44h-347l28 158h-305l-98 -158h-55l440 700h461zM420 202l80 454h-82l-282 -454h284zM479 760l85 106h72l-111 -106h-46z" />
    <glyph glyph-name="B" unicode="B" horiz-adv-x="637" 
d="M48 0l123 700h231c123 0 193 -56 193 -155c0 -85 -52 -150 -136 -175v-2c64 -21 105 -74 105 -145c0 -141 -98 -223 -267 -223h-249zM165 390h184c124 0 198 57 198 152c0 72 -52 113 -144 113h-191zM105 45h197c139 0 214 61 214 176c0 80 -59 126 -159 126h-199z" />
    <glyph glyph-name="uni1E04" unicode="&#x1e04;" horiz-adv-x="637" 
d="M48 0l123 700h231c123 0 193 -56 193 -155c0 -85 -52 -150 -136 -175v-2c64 -21 105 -74 105 -145c0 -141 -98 -223 -267 -223h-249zM165 390h184c124 0 198 57 198 152c0 72 -52 113 -144 113h-191zM105 45h197c139 0 214 61 214 176c0 80 -59 126 -159 126h-199z
M218 -124l13 75h76l-12 -75h-77z" />
    <glyph glyph-name="C" unicode="C" horiz-adv-x="660" 
d="M60 280c-3 238 149 439 340 435c139 0 236 -97 246 -240l-47 -4c-12 123 -87 199 -199 199c-163 3 -295 -178 -292 -390c0 -148 81 -250 207 -250c119 0 215 80 260 209l45 -15c-24 -72 -63 -130 -117 -174c-54 -43 -117 -65 -188 -65c-154 0 -255 118 -255 295z" />
    <glyph glyph-name="Cacute" unicode="&#x106;" horiz-adv-x="660" 
d="M60 280c-3 238 149 439 340 435c139 0 236 -97 246 -240l-47 -4c-12 123 -87 199 -199 199c-163 3 -295 -178 -292 -390c0 -148 81 -250 207 -250c119 0 215 80 260 209l45 -15c-24 -72 -63 -130 -117 -174c-54 -43 -117 -65 -188 -65c-154 0 -255 118 -255 295zM375 775
l85 106h72l-111 -106h-46z" />
    <glyph glyph-name="Ccaron" unicode="&#x10c;" horiz-adv-x="660" 
d="M60 280c-3 238 149 439 340 435c139 0 236 -97 246 -240l-47 -4c-12 123 -87 199 -199 199c-163 3 -295 -178 -292 -390c0 -148 81 -250 207 -250c119 0 215 80 260 209l45 -15c-24 -72 -63 -130 -117 -174c-54 -43 -117 -65 -188 -65c-154 0 -255 118 -255 295zM491 874
l27 -27l-81 -82h-62l-57 88l33 21l55 -87z" />
    <glyph glyph-name="Ccedilla" unicode="&#xc7;" horiz-adv-x="660" 
d="M60 280c-3 238 149 439 340 435c139 0 236 -97 246 -240l-47 -4c-12 123 -87 199 -199 199c-163 3 -295 -178 -292 -390c0 -148 81 -250 207 -250c119 0 215 80 260 209l45 -15c-24 -72 -63 -130 -117 -174c-54 -43 -117 -65 -188 -65c-154 0 -255 118 -255 295z
M408 -126c0 -53 -44 -94 -103 -94c-37 0 -67 13 -92 40l25 24c19 -21 39 -31 67 -31c39 0 69 28 69 61c0 25 -19 40 -48 40c-24 0 -46 -10 -66 -30l-27 16l72 99l31 -7l-44 -58c13 6 26 9 41 9c44 0 75 -28 75 -69z" />
    <glyph glyph-name="Ccircumflex" unicode="&#x108;" horiz-adv-x="660" 
d="M60 280c-3 238 149 439 340 435c139 0 236 -97 246 -240l-47 -4c-12 123 -87 199 -199 199c-163 3 -295 -178 -292 -390c0 -148 81 -250 207 -250c119 0 215 80 260 209l45 -15c-24 -72 -63 -130 -117 -174c-54 -43 -117 -65 -188 -65c-154 0 -255 118 -255 295zM505 776
l-32 -21l-56 86l-84 -86l-27 27l80 82h62z" />
    <glyph glyph-name="Cdotaccent" unicode="&#x10a;" horiz-adv-x="660" 
d="M60 280c-3 238 149 439 340 435c139 0 236 -97 246 -240l-47 -4c-12 123 -87 199 -199 199c-163 3 -295 -178 -292 -390c0 -148 81 -250 207 -250c119 0 215 80 260 209l45 -15c-24 -72 -63 -130 -117 -174c-54 -43 -117 -65 -188 -65c-154 0 -255 118 -255 295zM373 775
l13 75h76l-12 -75h-77z" />
    <glyph glyph-name="D" unicode="D" horiz-adv-x="657" 
d="M48 0l123 700h180c165 0 274 -116 274 -291c0 -246 -146 -409 -367 -409h-210zM104 45h153c192 0 321 140 321 364c0 150 -90 246 -227 246h-140z" />
    <glyph glyph-name="Eth" unicode="&#xd0;" horiz-adv-x="657" 
d="M48 0l123 700h180c165 0 274 -116 274 -291c0 -246 -146 -409 -367 -409h-210zM104 45h153c192 0 321 140 321 364c0 150 -90 246 -227 246h-140zM-2 332l7 40h338l-8 -40h-337z" />
    <glyph glyph-name="Dcaron" unicode="&#x10e;" horiz-adv-x="657" 
d="M48 0l123 700h180c165 0 274 -116 274 -291c0 -246 -146 -409 -367 -409h-210zM104 45h153c192 0 321 140 321 364c0 150 -90 246 -227 246h-140zM456 859l27 -27l-81 -82h-62l-57 88l33 21l55 -87z" />
    <glyph glyph-name="Dcroat" unicode="&#x110;" horiz-adv-x="657" 
d="M48 0l123 700h180c165 0 274 -116 274 -291c0 -246 -146 -409 -367 -409h-210zM104 45h153c192 0 321 140 321 364c0 150 -90 246 -227 246h-140zM-2 332l7 40h338l-8 -40h-337z" />
    <glyph glyph-name="uni1E0C" unicode="&#x1e0c;" horiz-adv-x="657" 
d="M48 0l123 700h180c165 0 274 -116 274 -291c0 -246 -146 -409 -367 -409h-210zM104 45h153c192 0 321 140 321 364c0 150 -90 246 -227 246h-140zM225 -124l13 75h76l-12 -75h-77z" />
    <glyph glyph-name="E" unicode="E" horiz-adv-x="561" 
d="M571 655h-360l-48 -272h331l-7 -43h-331l-52 -295h359l-7 -45h-408l123 700h408z" />
    <glyph glyph-name="Eacute" unicode="&#xc9;" horiz-adv-x="561" 
d="M571 655h-360l-48 -272h331l-7 -43h-331l-52 -295h359l-7 -45h-408l123 700h408zM350 760l85 106h72l-111 -106h-46z" />
    <glyph glyph-name="Ebreve" unicode="&#x114;" horiz-adv-x="561" 
d="M571 655h-360l-48 -272h331l-7 -43h-331l-52 -295h359l-7 -45h-408l123 700h408zM285 853h30c5 -40 25 -60 62 -60c43 0 74 21 91 60h30c-16 -65 -62 -103 -123 -103c-56 0 -91 40 -90 103z" />
    <glyph glyph-name="Ecaron" unicode="&#x11a;" horiz-adv-x="561" 
d="M571 655h-360l-48 -272h331l-7 -43h-331l-52 -295h359l-7 -45h-408l123 700h408zM466 859l27 -27l-81 -82h-62l-57 88l33 21l55 -87z" />
    <glyph glyph-name="uni0228" unicode="&#x228;" horiz-adv-x="561" 
d="M571 655h-360l-48 -272h331l-7 -43h-331l-52 -295h359l-7 -45h-408l123 700h408zM365 -112c0 -53 -44 -94 -103 -94c-37 0 -67 13 -92 40l25 24c19 -21 39 -31 67 -31c39 0 69 28 69 61c0 25 -19 40 -48 40c-24 0 -46 -10 -66 -30l-27 16l72 99l31 -7l-44 -58
c13 6 26 9 41 9c44 0 75 -28 75 -69z" />
    <glyph glyph-name="Ecircumflex" unicode="&#xca;" horiz-adv-x="561" 
d="M571 655h-360l-48 -272h331l-7 -43h-331l-52 -295h359l-7 -45h-408l123 700h408zM480 761l-32 -21l-56 86l-84 -86l-27 27l80 82h62z" />
    <glyph glyph-name="uni1EC6" unicode="&#x1ec6;" horiz-adv-x="561" 
d="M571 655h-360l-48 -272h331l-7 -43h-331l-52 -295h359l-7 -45h-408l123 700h408zM480 761l-32 -21l-56 86l-84 -86l-27 27l80 82h62zM215 -124l13 75h76l-12 -75h-77z" />
    <glyph glyph-name="Edieresis" unicode="&#xcb;" horiz-adv-x="561" 
d="M571 655h-360l-48 -272h331l-7 -43h-331l-52 -295h359l-7 -45h-408l123 700h408zM263 750l13 75h76l-12 -75h-77zM429 750l13 75h77l-13 -75h-77z" />
    <glyph glyph-name="Edotaccent" unicode="&#x116;" horiz-adv-x="561" 
d="M571 655h-360l-48 -272h331l-7 -43h-331l-52 -295h359l-7 -45h-408l123 700h408zM348 760l13 75h76l-12 -75h-77z" />
    <glyph glyph-name="uni1EB8" unicode="&#x1eb8;" horiz-adv-x="561" 
d="M571 655h-360l-48 -272h331l-7 -43h-331l-52 -295h359l-7 -45h-408l123 700h408zM215 -124l13 75h76l-12 -75h-77z" />
    <glyph glyph-name="Egrave" unicode="&#xc8;" horiz-adv-x="561" 
d="M571 655h-360l-48 -272h331l-7 -43h-331l-52 -295h359l-7 -45h-408l123 700h408zM359 760l-73 106h71l47 -106h-45z" />
    <glyph glyph-name="Emacron" unicode="&#x112;" horiz-adv-x="561" 
d="M571 655h-360l-48 -272h331l-7 -43h-331l-52 -295h359l-7 -45h-408l123 700h408zM274 760l7 38h243l-8 -38h-242z" />
    <glyph glyph-name="Eogonek" unicode="&#x118;" horiz-adv-x="561" 
d="M571 655h-360l-48 -272h331l-7 -43h-331l-52 -295h359l-7 -45h-408l123 700h408zM269 -124c0 45 46 95 125 135l22 -11c-65 -33 -104 -75 -104 -114c0 -19 12 -29 36 -29c21 0 42 7 63 21l11 -36c-28 -17 -55 -25 -82 -25c-45 0 -71 20 -71 59z" />
    <glyph glyph-name="uni018E" unicode="&#x18e;" horiz-adv-x="577" 
d="M559 700l-123 -700h-408l8 45h360l52 294h-331l7 44h332l47 272h-359l7 45h408z" />
    <glyph glyph-name="uni1EBC" unicode="&#x1ebc;" horiz-adv-x="561" 
d="M571 655h-360l-48 -272h331l-7 -43h-331l-52 -295h359l-7 -45h-408l123 700h408zM382 779c-20 13 -37 19 -50 19c-21 0 -35 -13 -43 -38h-29c8 47 37 76 76 76c23 0 39 -8 66 -24c20 -13 37 -19 50 -19c21 0 35 13 43 38h29c-8 -47 -37 -76 -76 -76c-23 0 -39 8 -66 24z
" />
    <glyph glyph-name="F" unicode="F" horiz-adv-x="550" 
d="M571 655h-360l-52 -295h331l-7 -43h-332l-56 -317h-47l123 700h408z" />
    <glyph glyph-name="G" unicode="G" horiz-adv-x="675" 
d="M582 283h-212l7 45h260l-6 -41c-26 -180 -156 -302 -316 -302c-154 0 -255 118 -255 295c-3 238 149 439 340 435c139 0 236 -97 246 -240l-47 -4c-12 123 -87 199 -199 199c-163 3 -295 -178 -292 -390c0 -148 81 -250 207 -250c137 0 243 107 267 253z" />
    <glyph glyph-name="Gbreve" unicode="&#x11e;" horiz-adv-x="675" 
d="M582 283h-212l7 45h260l-6 -41c-26 -180 -156 -302 -316 -302c-154 0 -255 118 -255 295c-3 238 149 439 340 435c139 0 236 -97 246 -240l-47 -4c-12 123 -87 199 -199 199c-163 3 -295 -178 -292 -390c0 -148 81 -250 207 -250c137 0 243 107 267 253zM310 868h30
c5 -40 25 -60 62 -60c43 0 74 21 91 60h30c-16 -65 -62 -103 -123 -103c-56 0 -91 40 -90 103z" />
    <glyph glyph-name="Gcircumflex" unicode="&#x11c;" horiz-adv-x="675" 
d="M582 283h-212l7 45h260l-6 -41c-26 -180 -156 -302 -316 -302c-154 0 -255 118 -255 295c-3 238 149 439 340 435c139 0 236 -97 246 -240l-47 -4c-12 123 -87 199 -199 199c-163 3 -295 -178 -292 -390c0 -148 81 -250 207 -250c137 0 243 107 267 253zM505 776l-32 -21
l-56 86l-84 -86l-27 27l80 82h62z" />
    <glyph glyph-name="uni0122" unicode="&#x122;" horiz-adv-x="675" 
d="M582 283h-212l7 45h260l-6 -41c-26 -180 -156 -302 -316 -302c-154 0 -255 118 -255 295c-3 238 149 439 340 435c139 0 236 -97 246 -240l-47 -4c-12 123 -87 199 -199 199c-163 3 -295 -178 -292 -390c0 -148 81 -250 207 -250c137 0 243 107 267 253zM248 -202l5 28
c23 4 33 15 37 39h-32l12 71h78l-11 -62c-9 -47 -38 -73 -89 -76z" />
    <glyph glyph-name="Gdotaccent" unicode="&#x120;" horiz-adv-x="675" 
d="M582 283h-212l7 45h260l-6 -41c-26 -180 -156 -302 -316 -302c-154 0 -255 118 -255 295c-3 238 149 439 340 435c139 0 236 -97 246 -240l-47 -4c-12 123 -87 199 -199 199c-163 3 -295 -178 -292 -390c0 -148 81 -250 207 -250c137 0 243 107 267 253zM373 775l13 75
h76l-12 -75h-77z" />
    <glyph glyph-name="H" unicode="H" horiz-adv-x="652" 
d="M48 0l123 700h47l-55 -317h367l56 317h48l-123 -700h-48l60 342h-367l-61 -342h-47z" />
    <glyph glyph-name="Hbar" unicode="&#x126;" horiz-adv-x="647" 
d="M699 564l-7 -40h-91l-92 -524h-48l60 341h-367l-60 -341h-48l92 524h-92l7 40h92l24 136h48l-24 -136h367l24 136h48l-24 -136h91zM528 383l25 141h-367l-25 -141h367z" />
    <glyph glyph-name="Hcircumflex" unicode="&#x124;" horiz-adv-x="652" 
d="M48 0l123 700h47l-55 -317h367l56 317h48l-123 -700h-48l60 342h-367l-61 -342h-47zM498 761l-32 -21l-56 86l-84 -86l-27 27l80 82h62z" />
    <glyph glyph-name="uni1E24" unicode="&#x1e24;" horiz-adv-x="652" 
d="M48 0l123 700h47l-55 -317h367l56 317h48l-123 -700h-48l60 342h-367l-61 -342h-47zM222 -124l13 75h76l-12 -75h-77z" />
    <glyph glyph-name="I" unicode="I" horiz-adv-x="236" 
d="M48 0l123 700h47l-123 -700h-47z" />
    <glyph glyph-name="Iacute" unicode="&#xcd;" horiz-adv-x="236" 
d="M48 0l123 700h47l-123 -700h-47zM170 760l85 106h72l-111 -106h-46z" />
    <glyph glyph-name="Ibreve" unicode="&#x12c;" horiz-adv-x="236" 
d="M48 0l123 700h47l-123 -700h-47zM105 853h30c5 -40 25 -60 62 -60c43 0 74 21 91 60h30c-16 -65 -62 -103 -123 -103c-56 0 -91 40 -90 103z" />
    <glyph glyph-name="uni01CF" unicode="&#x1cf;" horiz-adv-x="236" 
d="M48 0l123 700h47l-123 -700h-47zM286 859l27 -27l-81 -82h-62l-57 88l33 21l55 -87z" />
    <glyph glyph-name="Icircumflex" unicode="&#xce;" horiz-adv-x="236" 
d="M48 0l123 700h47l-123 -700h-47zM300 761l-32 -21l-56 86l-84 -86l-27 27l80 82h62z" />
    <glyph glyph-name="Idieresis" unicode="&#xcf;" horiz-adv-x="236" 
d="M48 0l123 700h47l-123 -700h-47zM83 750l13 75h76l-12 -75h-77zM249 750l13 75h77l-13 -75h-77z" />
    <glyph glyph-name="Idotaccent" unicode="&#x130;" horiz-adv-x="236" 
d="M48 0l123 700h47l-123 -700h-47zM168 760l13 75h76l-12 -75h-77z" />
    <glyph glyph-name="uni1ECA" unicode="&#x1eca;" horiz-adv-x="236" 
d="M48 0l123 700h47l-123 -700h-47zM14 -124l13 75h76l-12 -75h-77z" />
    <glyph glyph-name="Igrave" unicode="&#xcc;" horiz-adv-x="236" 
d="M48 0l123 700h47l-123 -700h-47zM179 760l-73 106h71l47 -106h-45z" />
    <glyph glyph-name="Imacron" unicode="&#x12a;" horiz-adv-x="236" 
d="M48 0l123 700h47l-123 -700h-47zM94 760l7 38h243l-8 -38h-242z" />
    <glyph glyph-name="Iogonek" unicode="&#x12e;" horiz-adv-x="236" 
d="M48 0l123 700h47l-123 -700h-47zM-56 -124c0 45 46 95 125 135l22 -11c-65 -33 -104 -75 -104 -114c0 -19 12 -29 36 -29c21 0 42 7 63 21l11 -36c-28 -17 -55 -25 -82 -25c-45 0 -71 20 -71 59z" />
    <glyph glyph-name="Itilde" unicode="&#x128;" horiz-adv-x="236" 
d="M48 0l123 700h47l-123 -700h-47zM202 779c-20 13 -37 19 -50 19c-21 0 -35 -13 -43 -38h-29c8 47 37 76 76 76c23 0 39 -8 66 -24c20 -13 37 -19 50 -19c21 0 35 13 43 38h29c-8 -47 -37 -76 -76 -76c-23 0 -39 8 -66 24z" />
    <glyph glyph-name="J" unicode="J" horiz-adv-x="503" 
d="M16 187l47 4c3 -104 47 -161 130 -161c85 0 142 59 161 163l89 507h48l-91 -513c-23 -128 -96 -202 -207 -202s-174 77 -177 202z" />
    <glyph glyph-name="Jcircumflex" unicode="&#x134;" horiz-adv-x="503" 
d="M16 187l47 4c3 -104 47 -161 130 -161c85 0 142 59 161 163l89 507h48l-91 -513c-23 -128 -96 -202 -207 -202s-174 77 -177 202zM572 761l-32 -21l-56 86l-84 -86l-27 27l80 82h62z" />
    <glyph glyph-name="K" unicode="K" horiz-adv-x="574" 
d="M615 700l-314 -307l218 -393h-55l-196 358h-2l-130 -127l-41 -231h-48l124 700h47l-69 -394h2l400 394h64z" />
    <glyph glyph-name="uni0136" unicode="&#x136;" horiz-adv-x="574" 
d="M615 700l-314 -307l218 -393h-55l-196 358h-2l-130 -127l-41 -231h-48l124 700h47l-69 -394h2l400 394h64zM216 -187l5 28c23 4 33 15 37 39h-32l12 71h78l-11 -62c-9 -47 -38 -73 -89 -76z" />
    <glyph glyph-name="L" unicode="L" horiz-adv-x="511" 
d="M47 0l124 700h47l-115 -655h334l-8 -45h-382z" />
    <glyph glyph-name="Lacute" unicode="&#x139;" horiz-adv-x="511" 
d="M47 0l124 700h47l-115 -655h334l-8 -45h-382zM170 760l85 106h72l-111 -106h-46z" />
    <glyph glyph-name="Lcaron" unicode="&#x13d;" horiz-adv-x="483" 
d="M47 0l124 700h47l-115 -655h334l-8 -45h-382zM436 562l5 28c23 4 33 15 37 39h-32l12 71h78l-11 -62c-9 -47 -38 -73 -89 -76z" />
    <glyph glyph-name="uni013B" unicode="&#x13b;" horiz-adv-x="511" 
d="M47 0l124 700h47l-115 -655h334l-8 -45h-382zM171 -187l5 28c23 4 33 15 37 39h-32l12 71h78l-11 -62c-9 -47 -38 -73 -89 -76z" />
    <glyph glyph-name="Ldot" unicode="&#x13f;" horiz-adv-x="511" 
d="M47 0l124 700h47l-115 -655h334l-8 -45h-382zM322 347l15 87h89l-15 -87h-89z" />
    <glyph glyph-name="uni1E36" unicode="&#x1e36;" horiz-adv-x="511" 
d="M47 0l124 700h47l-115 -655h334l-8 -45h-382zM181 -124l13 75h76l-12 -75h-77z" />
    <glyph glyph-name="Lslash" unicode="&#x141;" horiz-adv-x="580" 
d="M116 0l124 700h47l-115 -655h334l-8 -45h-382zM182 303l247 158l-18 26l-205 -131l1 3l-216 -142l17 -25l175 115z" />
    <glyph glyph-name="M" unicode="M" horiz-adv-x="837" 
d="M47 0l124 700h62l152 -621h2l364 621h70l-124 -700h-47l110 626h-1l-369 -626h-29l-154 626h-3l-110 -626h-47z" />
    <glyph glyph-name="N" unicode="N" horiz-adv-x="661" 
d="M47 0l124 700h54l259 -627h2l111 627h47l-124 -700h-53l-259 628h-2l-111 -628h-48z" />
    <glyph glyph-name="Nacute" unicode="&#x143;" horiz-adv-x="661" 
d="M47 0l124 700h54l259 -627h2l111 627h47l-124 -700h-53l-259 628h-2l-111 -628h-48zM388 760l85 106h72l-111 -106h-46z" />
    <glyph glyph-name="Ncaron" unicode="&#x147;" horiz-adv-x="661" 
d="M47 0l124 700h54l259 -627h2l111 627h47l-124 -700h-53l-259 628h-2l-111 -628h-48zM504 859l27 -27l-81 -82h-62l-57 88l33 21l55 -87z" />
    <glyph glyph-name="uni0145" unicode="&#x145;" horiz-adv-x="661" 
d="M47 0l124 700h54l259 -627h2l111 627h47l-124 -700h-53l-259 628h-2l-111 -628h-48zM234 -187l5 28c23 4 33 15 37 39h-32l12 71h78l-11 -62c-9 -47 -38 -73 -89 -76z" />
    <glyph glyph-name="uni1E44" unicode="&#x1e44;" horiz-adv-x="661" 
d="M47 0l124 700h54l259 -627h2l111 627h47l-124 -700h-53l-259 628h-2l-111 -628h-48zM386 760l13 75h76l-12 -75h-77z" />
    <glyph glyph-name="uni1E46" unicode="&#x1e46;" horiz-adv-x="661" 
d="M47 0l124 700h54l259 -627h2l111 627h47l-124 -700h-53l-259 628h-2l-111 -628h-48zM244 -124l13 75h76l-12 -75h-77z" />
    <glyph glyph-name="Eng" unicode="&#x14a;" horiz-adv-x="661" 
d="M644 700l-124 -700h-1l-8 -44c-16 -88 -52 -112 -111 -112h-40l6 43h32c32 0 52 13 63 62l9 51h-3l-259 628h-2l-111 -628h-48l124 700h54l259 -627h2l111 627h47z" />
    <glyph glyph-name="Ntilde" unicode="&#xd1;" horiz-adv-x="661" 
d="M47 0l124 700h54l259 -627h2l111 627h47l-124 -700h-53l-259 628h-2l-111 -628h-48zM420 779c-20 13 -37 19 -50 19c-21 0 -35 -13 -43 -38h-29c8 47 37 76 76 76c23 0 39 -8 66 -24c20 -13 37 -19 50 -19c21 0 35 13 43 38h29c-8 -47 -37 -76 -76 -76
c-23 0 -39 8 -66 24z" />
    <glyph glyph-name="O" unicode="O" horiz-adv-x="694" 
d="M59 280c-4 238 154 439 345 435c156 0 261 -119 261 -295c3 -238 -154 -439 -345 -435c-156 0 -261 119 -261 295zM617 420c0 148 -84 250 -213 250c-163 4 -300 -180 -297 -390c0 -148 85 -250 213 -250c163 -4 301 180 297 390z" />
    <glyph glyph-name="Oacute" unicode="&#xd3;" horiz-adv-x="694" 
d="M59 280c-4 238 154 439 345 435c156 0 261 -119 261 -295c3 -238 -154 -439 -345 -435c-156 0 -261 119 -261 295zM617 420c0 148 -84 250 -213 250c-163 4 -300 -180 -297 -390c0 -148 85 -250 213 -250c163 -4 301 180 297 390zM379 775l85 106h72l-111 -106h-46z" />
    <glyph glyph-name="Obreve" unicode="&#x14e;" horiz-adv-x="694" 
d="M59 280c-4 238 154 439 345 435c156 0 261 -119 261 -295c3 -238 -154 -439 -345 -435c-156 0 -261 119 -261 295zM617 420c0 148 -84 250 -213 250c-163 4 -300 -180 -297 -390c0 -148 85 -250 213 -250c163 -4 301 180 297 390zM314 868h30c5 -40 25 -60 62 -60
c43 0 74 21 91 60h30c-16 -65 -62 -103 -123 -103c-56 0 -91 40 -90 103z" />
    <glyph glyph-name="uni01D1" unicode="&#x1d1;" horiz-adv-x="694" 
d="M59 280c-4 238 154 439 345 435c156 0 261 -119 261 -295c3 -238 -154 -439 -345 -435c-156 0 -261 119 -261 295zM617 420c0 148 -84 250 -213 250c-163 4 -300 -180 -297 -390c0 -148 85 -250 213 -250c163 -4 301 180 297 390zM495 874l27 -27l-81 -82h-62l-57 88
l33 21l55 -87z" />
    <glyph glyph-name="Ocircumflex" unicode="&#xd4;" horiz-adv-x="694" 
d="M59 280c-4 238 154 439 345 435c156 0 261 -119 261 -295c3 -238 -154 -439 -345 -435c-156 0 -261 119 -261 295zM617 420c0 148 -84 250 -213 250c-163 4 -300 -180 -297 -390c0 -148 85 -250 213 -250c163 -4 301 180 297 390zM509 776l-32 -21l-56 86l-84 -86l-27 27
l80 82h62z" />
    <glyph glyph-name="uni1ED8" unicode="&#x1ed8;" horiz-adv-x="694" 
d="M59 280c-4 238 154 439 345 435c156 0 261 -119 261 -295c3 -238 -154 -439 -345 -435c-156 0 -261 119 -261 295zM617 420c0 148 -84 250 -213 250c-163 4 -300 -180 -297 -390c0 -148 85 -250 213 -250c163 -4 301 180 297 390zM509 776l-32 -21l-56 86l-84 -86l-27 27
l80 82h62zM263 -139l13 75h76l-12 -75h-77z" />
    <glyph glyph-name="Odieresis" unicode="&#xd6;" horiz-adv-x="694" 
d="M59 280c-4 238 154 439 345 435c156 0 261 -119 261 -295c3 -238 -154 -439 -345 -435c-156 0 -261 119 -261 295zM617 420c0 148 -84 250 -213 250c-163 4 -300 -180 -297 -390c0 -148 85 -250 213 -250c163 -4 301 180 297 390zM292 765l13 75h76l-12 -75h-77zM458 765
l13 75h77l-13 -75h-77z" />
    <glyph glyph-name="uni1ECC" unicode="&#x1ecc;" horiz-adv-x="694" 
d="M59 280c-4 238 154 439 345 435c156 0 261 -119 261 -295c3 -238 -154 -439 -345 -435c-156 0 -261 119 -261 295zM617 420c0 148 -84 250 -213 250c-163 4 -300 -180 -297 -390c0 -148 85 -250 213 -250c163 -4 301 180 297 390zM263 -139l13 75h76l-12 -75h-77z" />
    <glyph glyph-name="Ograve" unicode="&#xd2;" horiz-adv-x="694" 
d="M59 280c-4 238 154 439 345 435c156 0 261 -119 261 -295c3 -238 -154 -439 -345 -435c-156 0 -261 119 -261 295zM617 420c0 148 -84 250 -213 250c-163 4 -300 -180 -297 -390c0 -148 85 -250 213 -250c163 -4 301 180 297 390zM388 775l-73 106h71l47 -106h-45z" />
    <glyph glyph-name="Ohungarumlaut" unicode="&#x150;" horiz-adv-x="694" 
d="M59 280c-4 238 154 439 345 435c156 0 261 -119 261 -295c3 -238 -154 -439 -345 -435c-156 0 -261 119 -261 295zM617 420c0 148 -84 250 -213 250c-163 4 -300 -180 -297 -390c0 -148 85 -250 213 -250c163 -4 301 180 297 390zM318 775l85 106h72l-111 -106h-46z
M442 775l85 106h72l-111 -106h-46z" />
    <glyph glyph-name="Omacron" unicode="&#x14c;" horiz-adv-x="694" 
d="M59 280c-4 238 154 439 345 435c156 0 261 -119 261 -295c3 -238 -154 -439 -345 -435c-156 0 -261 119 -261 295zM617 420c0 148 -84 250 -213 250c-163 4 -300 -180 -297 -390c0 -148 85 -250 213 -250c163 -4 301 180 297 390zM303 775l7 38h243l-8 -38h-242z" />
    <glyph glyph-name="Oslash" unicode="&#xd8;" horiz-adv-x="694" 
d="M665 420c3 -238 -154 -439 -345 -435c-68 0 -125 21 -170 62l-51 -69l-28 21l54 73c-44 55 -66 124 -66 208c-4 238 154 439 345 435c62 0 115 -17 159 -52l43 58l27 -20l-45 -61c49 -52 77 -129 77 -220zM154 111l381 515c-35 30 -79 45 -131 45
c-163 5 -301 -180 -298 -391c0 -68 16 -124 48 -169zM618 420c0 75 -21 138 -58 182l-383 -518c39 -37 86 -55 143 -55c163 -5 301 180 298 391z" />
    <glyph glyph-name="Oslashacute" unicode="&#x1fe;" horiz-adv-x="694" 
d="M665 420c3 -238 -154 -439 -345 -435c-68 0 -125 21 -170 62l-51 -69l-28 21l54 73c-44 55 -66 124 -66 208c-4 238 154 439 345 435c62 0 115 -17 159 -52l43 58l27 -20l-45 -61c49 -52 77 -129 77 -220zM154 111l381 515c-35 30 -79 45 -131 45
c-163 5 -301 -180 -298 -391c0 -68 16 -124 48 -169zM618 420c0 75 -21 138 -58 182l-383 -518c39 -37 86 -55 143 -55c163 -5 301 180 298 391zM379 775l85 106h72l-111 -106h-46z" />
    <glyph glyph-name="Otilde" unicode="&#xd5;" horiz-adv-x="694" 
d="M59 280c-4 238 154 439 345 435c156 0 261 -119 261 -295c3 -238 -154 -439 -345 -435c-156 0 -261 119 -261 295zM617 420c0 148 -84 250 -213 250c-163 4 -300 -180 -297 -390c0 -148 85 -250 213 -250c163 -4 301 180 297 390zM411 794c-20 13 -37 19 -50 19
c-21 0 -35 -13 -43 -38h-29c8 47 37 76 76 76c23 0 39 -8 66 -24c20 -13 37 -19 50 -19c21 0 35 13 43 38h29c-8 -47 -37 -76 -76 -76c-23 0 -39 8 -66 24z" />
    <glyph glyph-name="uni1E4C" unicode="&#x1e4c;" horiz-adv-x="694" 
d="M59 280c-4 238 154 439 345 435c156 0 261 -119 261 -295c3 -238 -154 -439 -345 -435c-156 0 -261 119 -261 295zM617 420c0 148 -84 250 -213 250c-163 4 -300 -180 -297 -390c0 -148 85 -250 213 -250c163 -4 301 180 297 390zM411 794c-20 13 -37 19 -50 19
c-21 0 -35 -13 -43 -38h-29c8 47 37 76 76 76c23 0 39 -8 66 -24c20 -13 37 -19 50 -19c21 0 35 13 43 38h29c-8 -47 -37 -76 -76 -76c-23 0 -39 8 -66 24zM399 881l85 106h72l-111 -106h-46z" />
    <glyph glyph-name="OE" unicode="&#x152;" horiz-adv-x="964" 
d="M60 280c-3 245 149 439 344 435c73 0 136 -26 180 -73h2l11 58h384l-7 -44h-338l-49 -274h310l-7 -43h-310l-52 -295h338l-8 -44h-384l7 39h-2c-45 -36 -99 -54 -162 -54c-153 0 -257 119 -257 295zM492 106l84 481c-39 55 -100 84 -172 84c-167 4 -300 -172 -297 -391
c0 -151 85 -251 214 -251c65 0 126 28 171 77z" />
    <glyph glyph-name="P" unicode="P" horiz-adv-x="605" 
d="M48 0l123 700h239c129 0 206 -70 206 -187c0 -144 -101 -232 -269 -232h-202l-50 -281h-47zM153 326h196c141 0 220 67 220 187c0 92 -57 142 -161 142h-197z" />
    <glyph glyph-name="Thorn" unicode="&#xde;" horiz-adv-x="604" 
d="M48 0l123 700h47l-24 -137h192c129 0 206 -70 206 -187c0 -144 -101 -231 -270 -231h-201l-26 -145h-47zM129 190h196c141 0 219 66 219 186c0 92 -56 142 -160 142h-197z" />
    <glyph glyph-name="Q" unicode="Q" horiz-adv-x="689" 
d="M550 93l70 -83l-31 -25l-67 80c-59 -53 -126 -80 -202 -80c-156 0 -261 119 -261 295c-4 238 154 439 345 435c156 0 261 -119 261 -295c0 -129 -43 -246 -115 -327zM492 101l-152 181l32 25l148 -177c61 72 97 177 97 290c0 148 -84 250 -213 250
c-163 4 -300 -180 -297 -390c0 -148 85 -250 213 -250c64 0 121 24 172 71z" />
    <glyph glyph-name="R" unicode="R" horiz-adv-x="601" 
d="M48 0l123 700h227c128 0 206 -69 206 -177c0 -128 -91 -211 -243 -220v-2l125 -301h-53l-122 302h-163l-53 -302h-47zM156 347h182c140 0 219 65 219 176c0 83 -58 132 -161 132h-185z" />
    <glyph glyph-name="Racute" unicode="&#x154;" horiz-adv-x="601" 
d="M48 0l123 700h227c128 0 206 -69 206 -177c0 -128 -91 -211 -243 -220v-2l125 -301h-53l-122 302h-163l-53 -302h-47zM156 347h182c140 0 219 65 219 176c0 83 -58 132 -161 132h-185zM321 760l85 106h72l-111 -106h-46z" />
    <glyph glyph-name="Rcaron" unicode="&#x158;" horiz-adv-x="601" 
d="M48 0l123 700h227c128 0 206 -69 206 -177c0 -128 -91 -211 -243 -220v-2l125 -301h-53l-122 302h-163l-53 -302h-47zM156 347h182c140 0 219 65 219 176c0 83 -58 132 -161 132h-185zM437 859l27 -27l-81 -82h-62l-57 88l33 21l55 -87z" />
    <glyph glyph-name="uni0156" unicode="&#x156;" horiz-adv-x="601" 
d="M48 0l123 700h227c128 0 206 -69 206 -177c0 -128 -91 -211 -243 -220v-2l125 -301h-53l-122 302h-163l-53 -302h-47zM156 347h182c140 0 219 65 219 176c0 83 -58 132 -161 132h-185zM209 -187l5 28c23 4 33 15 37 39h-32l12 71h78l-11 -62c-9 -47 -38 -73 -89 -76z" />
    <glyph glyph-name="S" unicode="S" horiz-adv-x="589" 
d="M31 225l47 7c11 -132 88 -202 220 -202c112 0 187 59 187 148c0 75 -41 113 -182 175c-145 61 -189 105 -189 186c0 100 91 176 210 176c135 0 225 -75 244 -199l-47 -7c-19 105 -86 161 -197 161c-91 0 -163 -57 -163 -130c0 -61 37 -96 164 -147
c155 -65 207 -119 207 -214c0 -114 -96 -194 -234 -194c-159 0 -256 88 -267 240z" />
    <glyph glyph-name="Sacute" unicode="&#x15a;" horiz-adv-x="589" 
d="M31 225l47 7c11 -132 88 -202 220 -202c112 0 187 59 187 148c0 75 -41 113 -182 175c-145 61 -189 105 -189 186c0 100 91 176 210 176c135 0 225 -75 244 -199l-47 -7c-19 105 -86 161 -197 161c-91 0 -163 -57 -163 -130c0 -61 37 -96 164 -147
c155 -65 207 -119 207 -214c0 -114 -96 -194 -234 -194c-159 0 -256 88 -267 240zM299 775l85 106h72l-111 -106h-46z" />
    <glyph glyph-name="Scaron" unicode="&#x160;" horiz-adv-x="589" 
d="M31 225l47 7c11 -132 88 -202 220 -202c112 0 187 59 187 148c0 75 -41 113 -182 175c-145 61 -189 105 -189 186c0 100 91 176 210 176c135 0 225 -75 244 -199l-47 -7c-19 105 -86 161 -197 161c-91 0 -163 -57 -163 -130c0 -61 37 -96 164 -147
c155 -65 207 -119 207 -214c0 -114 -96 -194 -234 -194c-159 0 -256 88 -267 240zM415 874l27 -27l-81 -82h-62l-57 88l33 21l55 -87z" />
    <glyph glyph-name="Scedilla" unicode="&#x15e;" horiz-adv-x="589" 
d="M31 225l47 7c11 -132 88 -202 220 -202c112 0 187 59 187 148c0 75 -41 113 -182 175c-145 61 -189 105 -189 186c0 100 91 176 210 176c135 0 225 -75 244 -199l-47 -7c-19 105 -86 161 -197 161c-91 0 -163 -57 -163 -130c0 -61 37 -96 164 -147
c155 -65 207 -119 207 -214c0 -114 -96 -194 -234 -194c-159 0 -256 88 -267 240zM391 -126c0 -53 -44 -94 -103 -94c-37 0 -67 13 -92 40l25 24c19 -21 39 -31 67 -31c39 0 69 28 69 61c0 25 -19 40 -48 40c-24 0 -46 -10 -66 -30l-27 16l72 99l31 -7l-44 -58
c13 6 26 9 41 9c44 0 75 -28 75 -69z" />
    <glyph glyph-name="Scircumflex" unicode="&#x15c;" horiz-adv-x="589" 
d="M31 225l47 7c11 -132 88 -202 220 -202c112 0 187 59 187 148c0 75 -41 113 -182 175c-145 61 -189 105 -189 186c0 100 91 176 210 176c135 0 225 -75 244 -199l-47 -7c-19 105 -86 161 -197 161c-91 0 -163 -57 -163 -130c0 -61 37 -96 164 -147
c155 -65 207 -119 207 -214c0 -114 -96 -194 -234 -194c-159 0 -256 88 -267 240zM429 776l-32 -21l-56 86l-84 -86l-27 27l80 82h62z" />
    <glyph glyph-name="uni0218" unicode="&#x218;" horiz-adv-x="589" 
d="M31 225l47 7c11 -132 88 -202 220 -202c112 0 187 59 187 148c0 75 -41 113 -182 175c-145 61 -189 105 -189 186c0 100 91 176 210 176c135 0 225 -75 244 -199l-47 -7c-19 105 -86 161 -197 161c-91 0 -163 -57 -163 -130c0 -61 37 -96 164 -147
c155 -65 207 -119 207 -214c0 -114 -96 -194 -234 -194c-159 0 -256 88 -267 240zM231 -202l5 28c23 4 33 15 37 39h-32l12 71h78l-11 -62c-9 -47 -38 -73 -89 -76z" />
    <glyph glyph-name="uni1E62" unicode="&#x1e62;" horiz-adv-x="589" 
d="M31 225l47 7c11 -132 88 -202 220 -202c112 0 187 59 187 148c0 75 -41 113 -182 175c-145 61 -189 105 -189 186c0 100 91 176 210 176c135 0 225 -75 244 -199l-47 -7c-19 105 -86 161 -197 161c-91 0 -163 -57 -163 -130c0 -61 37 -96 164 -147
c155 -65 207 -119 207 -214c0 -114 -96 -194 -234 -194c-159 0 -256 88 -267 240zM241 -139l13 75h76l-12 -75h-77z" />
    <glyph glyph-name="uni018F" unicode="&#x18f;" horiz-adv-x="681" 
d="M651 420c3 -243 -148 -439 -339 -435c-154 0 -253 115 -253 293c0 29 2 58 7 86h535c2 18 3 37 3 56c0 150 -84 250 -209 250c-107 0 -203 -71 -256 -188l-44 18c61 135 173 215 300 215c155 0 256 -119 256 -295zM595 322h-487c-1 -11 -2 -26 -2 -45
c0 -147 82 -247 206 -247c138 0 253 122 283 292z" />
    <glyph glyph-name="T" unicode="T" horiz-adv-x="566" 
d="M212 0l116 655h-224l8 45h495l-7 -45h-224l-116 -655h-48z" />
    <glyph glyph-name="_123" horiz-adv-x="566" 
d="M212 0l116 655h-224l8 45h495l-7 -45h-224l-116 -655h-48z" />
    <glyph glyph-name="Tbar" unicode="&#x166;" horiz-adv-x="566" 
d="M212 0l116 655h-224l8 45h495l-7 -45h-224l-116 -655h-48zM126 332l7 40h338l-8 -40h-337z" />
    <glyph glyph-name="_125" horiz-adv-x="566" 
d="M212 0l116 655h-224l8 45h495l-7 -45h-224l-116 -655h-48zM126 332l7 40h338l-8 -40h-337z" />
    <glyph glyph-name="Tcaron" unicode="&#x164;" horiz-adv-x="566" 
d="M212 0l116 655h-224l8 45h495l-7 -45h-224l-116 -655h-48zM451 859l27 -27l-81 -82h-62l-57 88l33 21l55 -87z" />
    <glyph glyph-name="_127" horiz-adv-x="566" 
d="M212 0l116 655h-224l8 45h495l-7 -45h-224l-116 -655h-48zM451 859l27 -27l-81 -82h-62l-57 88l33 21l55 -87z" />
    <glyph glyph-name="uni0162" unicode="&#x162;" horiz-adv-x="566" 
d="M212 0l116 655h-224l8 45h495l-7 -45h-224l-116 -655h-48zM329 -112c0 -53 -44 -94 -103 -94c-37 0 -67 13 -92 40l25 24c19 -21 39 -31 67 -31c39 0 69 28 69 61c0 25 -19 40 -48 40c-24 0 -46 -10 -66 -30l-27 16l72 99l31 -7l-44 -58c13 6 26 9 41 9
c44 0 75 -28 75 -69z" />
    <glyph glyph-name="_129" horiz-adv-x="566" 
d="M212 0l116 655h-224l8 45h495l-7 -45h-224l-116 -655h-48zM330 -112c0 -53 -44 -94 -103 -94c-37 0 -67 13 -92 40l25 24c19 -21 39 -31 67 -31c39 0 69 28 69 61c0 25 -19 40 -48 40c-24 0 -46 -10 -66 -30l-27 16l72 99l31 -7l-44 -58c13 6 26 9 41 9
c44 0 75 -28 75 -69z" />
    <glyph glyph-name="uni021A" unicode="&#x21a;" horiz-adv-x="566" 
d="M212 0l116 655h-224l8 45h495l-7 -45h-224l-116 -655h-48zM169 -187l5 28c23 4 33 15 37 39h-32l12 71h78l-11 -62c-9 -47 -38 -73 -89 -76z" />
    <glyph glyph-name="_131" horiz-adv-x="566" 
d="M212 0l116 655h-224l8 45h495l-7 -45h-224l-116 -655h-48zM170 -187l5 28c23 4 33 15 37 39h-32l12 71h78l-11 -62c-9 -47 -38 -73 -89 -76z" />
    <glyph glyph-name="uni1E6C" unicode="&#x1e6c;" horiz-adv-x="566" 
d="M212 0l116 655h-224l8 45h495l-7 -45h-224l-116 -655h-48zM179 -124l13 75h76l-12 -75h-77z" />
    <glyph glyph-name="_133" horiz-adv-x="566" 
d="M212 0l116 655h-224l8 45h495l-7 -45h-224l-116 -655h-48zM180 -124l13 75h76l-12 -75h-77z" />
    <glyph glyph-name="U" unicode="U" horiz-adv-x="663" 
d="M79 183c0 19 2 38 6 59l81 458h48l-81 -458c-3 -17 -5 -36 -5 -57c0 -100 57 -155 161 -155c129 0 209 75 234 214l81 456h47l-82 -461c-28 -163 -126 -254 -283 -254c-128 0 -207 77 -207 198z" />
    <glyph glyph-name="Uacute" unicode="&#xda;" horiz-adv-x="663" 
d="M79 183c0 19 2 38 6 59l81 458h48l-81 -458c-3 -17 -5 -36 -5 -57c0 -100 57 -155 161 -155c129 0 209 75 234 214l81 456h47l-82 -461c-28 -163 -126 -254 -283 -254c-128 0 -207 77 -207 198zM384 760l85 106h72l-111 -106h-46z" />
    <glyph glyph-name="Ubreve" unicode="&#x16c;" horiz-adv-x="663" 
d="M79 183c0 19 2 38 6 59l81 458h48l-81 -458c-3 -17 -5 -36 -5 -57c0 -100 57 -155 161 -155c129 0 209 75 234 214l81 456h47l-82 -461c-28 -163 -126 -254 -283 -254c-128 0 -207 77 -207 198zM319 853h30c5 -40 25 -60 62 -60c43 0 74 21 91 60h30
c-16 -65 -62 -103 -123 -103c-56 0 -91 40 -90 103z" />
    <glyph glyph-name="uni01D3" unicode="&#x1d3;" horiz-adv-x="663" 
d="M79 183c0 19 2 38 6 59l81 458h48l-81 -458c-3 -17 -5 -36 -5 -57c0 -100 57 -155 161 -155c129 0 209 75 234 214l81 456h47l-82 -461c-28 -163 -126 -254 -283 -254c-128 0 -207 77 -207 198zM500 859l27 -27l-81 -82h-62l-57 88l33 21l55 -87z" />
    <glyph glyph-name="Ucircumflex" unicode="&#xdb;" horiz-adv-x="663" 
d="M79 183c0 19 2 38 6 59l81 458h48l-81 -458c-3 -17 -5 -36 -5 -57c0 -100 57 -155 161 -155c129 0 209 75 234 214l81 456h47l-82 -461c-28 -163 -126 -254 -283 -254c-128 0 -207 77 -207 198zM514 761l-32 -21l-56 86l-84 -86l-27 27l80 82h62z" />
    <glyph glyph-name="Udieresis" unicode="&#xdc;" horiz-adv-x="663" 
d="M79 183c0 19 2 38 6 59l81 458h48l-81 -458c-3 -17 -5 -36 -5 -57c0 -100 57 -155 161 -155c129 0 209 75 234 214l81 456h47l-82 -461c-28 -163 -126 -254 -283 -254c-128 0 -207 77 -207 198zM297 750l13 75h76l-12 -75h-77zM463 750l13 75h77l-13 -75h-77z" />
    <glyph glyph-name="uni01D7" unicode="&#x1d7;" horiz-adv-x="663" 
d="M79 183c0 19 2 38 6 59l81 458h48l-81 -458c-3 -17 -5 -36 -5 -57c0 -100 57 -155 161 -155c129 0 209 75 234 214l81 456h47l-82 -461c-28 -163 -126 -254 -283 -254c-128 0 -207 77 -207 198zM297 750l13 75h76l-12 -75h-77zM463 750l13 75h77l-13 -75h-77zM402 865
l85 106h72l-111 -106h-46z" />
    <glyph glyph-name="uni01D9" unicode="&#x1d9;" horiz-adv-x="663" 
d="M79 183c0 19 2 38 6 59l81 458h48l-81 -458c-3 -17 -5 -36 -5 -57c0 -100 57 -155 161 -155c129 0 209 75 234 214l81 456h47l-82 -461c-28 -163 -126 -254 -283 -254c-128 0 -207 77 -207 198zM297 750l13 75h76l-12 -75h-77zM463 750l13 75h77l-13 -75h-77zM518 964
l27 -27l-81 -82h-62l-57 88l33 21l55 -87z" />
    <glyph glyph-name="uni01DB" unicode="&#x1db;" horiz-adv-x="663" 
d="M79 183c0 19 2 38 6 59l81 458h48l-81 -458c-3 -17 -5 -36 -5 -57c0 -100 57 -155 161 -155c129 0 209 75 234 214l81 456h47l-82 -461c-28 -163 -126 -254 -283 -254c-128 0 -207 77 -207 198zM297 750l13 75h76l-12 -75h-77zM463 750l13 75h77l-13 -75h-77zM412 865
l-73 106h71l47 -106h-45z" />
    <glyph glyph-name="uni01D5" unicode="&#x1d5;" horiz-adv-x="663" 
d="M79 183c0 19 2 38 6 59l81 458h48l-81 -458c-3 -17 -5 -36 -5 -57c0 -100 57 -155 161 -155c129 0 209 75 234 214l81 456h47l-82 -461c-28 -163 -126 -254 -283 -254c-128 0 -207 77 -207 198zM297 750l13 75h76l-12 -75h-77zM463 750l13 75h77l-13 -75h-77zM326 865
l7 38h243l-8 -38h-242z" />
    <glyph glyph-name="uni1EE4" unicode="&#x1ee4;" horiz-adv-x="663" 
d="M79 183c0 19 2 38 6 59l81 458h48l-81 -458c-3 -17 -5 -36 -5 -57c0 -100 57 -155 161 -155c129 0 209 75 234 214l81 456h47l-82 -461c-28 -163 -126 -254 -283 -254c-128 0 -207 77 -207 198zM229 -139l13 75h76l-12 -75h-77z" />
    <glyph glyph-name="Ugrave" unicode="&#xd9;" horiz-adv-x="663" 
d="M79 183c0 19 2 38 6 59l81 458h48l-81 -458c-3 -17 -5 -36 -5 -57c0 -100 57 -155 161 -155c129 0 209 75 234 214l81 456h47l-82 -461c-28 -163 -126 -254 -283 -254c-128 0 -207 77 -207 198zM393 760l-73 106h71l47 -106h-45z" />
    <glyph glyph-name="Uhungarumlaut" unicode="&#x170;" horiz-adv-x="663" 
d="M79 183c0 19 2 38 6 59l81 458h48l-81 -458c-3 -17 -5 -36 -5 -57c0 -100 57 -155 161 -155c129 0 209 75 234 214l81 456h47l-82 -461c-28 -163 -126 -254 -283 -254c-128 0 -207 77 -207 198zM323 760l85 106h72l-111 -106h-46zM447 760l85 106h72l-111 -106h-46z" />
    <glyph glyph-name="Umacron" unicode="&#x16a;" horiz-adv-x="663" 
d="M79 183c0 19 2 38 6 59l81 458h48l-81 -458c-3 -17 -5 -36 -5 -57c0 -100 57 -155 161 -155c129 0 209 75 234 214l81 456h47l-82 -461c-28 -163 -126 -254 -283 -254c-128 0 -207 77 -207 198zM308 760l7 38h243l-8 -38h-242z" />
    <glyph glyph-name="Uogonek" unicode="&#x172;" horiz-adv-x="663" 
d="M79 183c0 19 2 38 6 59l81 458h48l-81 -458c-3 -17 -5 -36 -5 -57c0 -100 57 -155 161 -155c129 0 209 75 234 214l81 456h47l-82 -461c-28 -163 -126 -254 -283 -254c-128 0 -207 77 -207 198zM240 -124c0 45 46 95 125 135l22 -11c-65 -33 -104 -75 -104 -114
c0 -19 12 -29 36 -29c21 0 42 7 63 21l11 -36c-28 -17 -55 -25 -82 -25c-45 0 -71 20 -71 59z" />
    <glyph glyph-name="Uring" unicode="&#x16e;" horiz-adv-x="663" 
d="M79 183c0 19 2 38 6 59l81 458h48l-81 -458c-3 -17 -5 -36 -5 -57c0 -100 57 -155 161 -155c129 0 209 75 234 214l81 456h47l-82 -461c-28 -163 -126 -254 -283 -254c-128 0 -207 77 -207 198zM300 773c0 59 46 103 109 103c61 0 108 -44 108 -103
c0 -60 -45 -104 -108 -104s-109 44 -109 104zM481 773c0 43 -31 72 -72 72c-43 0 -73 -31 -73 -72s30 -73 73 -73c41 0 72 30 72 73z" />
    <glyph glyph-name="Utilde" unicode="&#x168;" horiz-adv-x="663" 
d="M79 183c0 19 2 38 6 59l81 458h48l-81 -458c-3 -17 -5 -36 -5 -57c0 -100 57 -155 161 -155c129 0 209 75 234 214l81 456h47l-82 -461c-28 -163 -126 -254 -283 -254c-128 0 -207 77 -207 198zM416 779c-20 13 -37 19 -50 19c-21 0 -35 -13 -43 -38h-29
c8 47 37 76 76 76c23 0 39 -8 66 -24c20 -13 37 -19 50 -19c21 0 35 13 43 38h29c-8 -47 -37 -76 -76 -76c-23 0 -39 8 -66 24z" />
    <glyph glyph-name="V" unicode="V" horiz-adv-x="573" 
d="M212 0l-133 700h50l118 -636h2l343 636h56l-382 -700h-54z" />
    <glyph glyph-name="W" unicode="W" horiz-adv-x="825" 
d="M117 0l-23 700h47l19 -627h2l302 627h47l86 -627h2l235 627h51l-265 -700h-56l-86 627h-2l-302 -627h-57z" />
    <glyph glyph-name="Wacute" unicode="&#x1e82;" horiz-adv-x="825" 
d="M117 0l-23 700h47l19 -627h2l302 627h47l86 -627h2l235 627h51l-265 -700h-56l-86 627h-2l-302 -627h-57zM465 760l85 106h72l-111 -106h-46z" />
    <glyph glyph-name="Wcircumflex" unicode="&#x174;" horiz-adv-x="825" 
d="M117 0l-23 700h47l19 -627h2l302 627h47l86 -627h2l235 627h51l-265 -700h-56l-86 627h-2l-302 -627h-57zM595 761l-32 -21l-56 86l-84 -86l-27 27l80 82h62z" />
    <glyph glyph-name="Wdieresis" unicode="&#x1e84;" horiz-adv-x="825" 
d="M117 0l-23 700h47l19 -627h2l302 627h47l86 -627h2l235 627h51l-265 -700h-56l-86 627h-2l-302 -627h-57zM377 750l13 75h76l-12 -75h-77zM543 750l13 75h77l-13 -75h-77z" />
    <glyph glyph-name="Wgrave" unicode="&#x1e80;" horiz-adv-x="825" 
d="M117 0l-23 700h47l19 -627h2l302 627h47l86 -627h2l235 627h51l-265 -700h-56l-86 627h-2l-302 -627h-57zM474 760l-73 106h71l47 -106h-45z" />
    <glyph glyph-name="X" unicode="X" horiz-adv-x="526" 
d="M-37 0l287 355l-156 345h52l137 -308h2l245 308h60l-280 -345l160 -355h-52l-140 318h-2l-253 -318h-60z" />
    <glyph glyph-name="Y" unicode="Y" horiz-adv-x="550" 
d="M204 0l52 288l-179 412h51l155 -366h2l283 366h59l-323 -412l-52 -288h-48z" />
    <glyph glyph-name="Yacute" unicode="&#xdd;" horiz-adv-x="550" 
d="M204 0l52 288l-179 412h51l155 -366h2l283 366h59l-323 -412l-52 -288h-48zM327 760l85 106h72l-111 -106h-46z" />
    <glyph glyph-name="Ycircumflex" unicode="&#x176;" horiz-adv-x="550" 
d="M204 0l52 288l-179 412h51l155 -366h2l283 366h59l-323 -412l-52 -288h-48zM457 761l-32 -21l-56 86l-84 -86l-27 27l80 82h62z" />
    <glyph glyph-name="Ydieresis" unicode="&#x178;" horiz-adv-x="550" 
d="M204 0l52 288l-179 412h51l155 -366h2l283 366h59l-323 -412l-52 -288h-48zM240 750l13 75h76l-12 -75h-77zM406 750l13 75h77l-13 -75h-77z" />
    <glyph glyph-name="uni1EF4" unicode="&#x1ef4;" horiz-adv-x="550" 
d="M204 0l52 288l-179 412h51l155 -366h2l283 366h59l-323 -412l-52 -288h-48zM171 -124l13 75h76l-12 -75h-77z" />
    <glyph glyph-name="Ygrave" unicode="&#x1ef2;" horiz-adv-x="550" 
d="M204 0l52 288l-179 412h51l155 -366h2l283 366h59l-323 -412l-52 -288h-48zM336 760l-73 106h71l47 -106h-45z" />
    <glyph glyph-name="uni1EF8" unicode="&#x1ef8;" horiz-adv-x="550" 
d="M204 0l52 288l-179 412h51l155 -366h2l283 366h59l-323 -412l-52 -288h-48zM359 779c-20 13 -37 19 -50 19c-21 0 -35 -13 -43 -38h-29c8 47 37 76 76 76c23 0 39 -8 66 -24c20 -13 37 -19 50 -19c21 0 35 13 43 38h29c-8 -47 -37 -76 -76 -76c-23 0 -39 8 -66 24z" />
    <glyph glyph-name="Z" unicode="Z" horiz-adv-x="585" 
d="M-17 0l7 40l570 613v2h-435l8 45h499l-7 -40l-569 -613v-2h442l-8 -45h-507z" />
    <glyph glyph-name="Zacute" unicode="&#x179;" horiz-adv-x="585" 
d="M-17 0l7 40l570 613v2h-435l8 45h499l-7 -40l-569 -613v-2h442l-8 -45h-507zM357 760l85 106h72l-111 -106h-46z" />
    <glyph glyph-name="Zcaron" unicode="&#x17d;" horiz-adv-x="585" 
d="M-17 0l7 40l570 613v2h-435l8 45h499l-7 -40l-569 -613v-2h442l-8 -45h-507zM473 859l27 -27l-81 -82h-62l-57 88l33 21l55 -87z" />
    <glyph glyph-name="Zdotaccent" unicode="&#x17b;" horiz-adv-x="585" 
d="M-17 0l7 40l570 613v2h-435l8 45h499l-7 -40l-569 -613v-2h442l-8 -45h-507zM355 760l13 75h76l-12 -75h-77z" />
    <glyph glyph-name="uni1E92" unicode="&#x1e92;" horiz-adv-x="585" 
d="M-17 0l7 40l570 613v2h-435l8 45h499l-7 -40l-569 -613v-2h442l-8 -45h-507zM204 -124l13 75h76l-12 -75h-77z" />
    <glyph glyph-name="a" unicode="a" horiz-adv-x="574" 
d="M502 530h45l-94 -530h-43l12 65h-2c-37 -48 -96 -78 -165 -78c-125 0 -204 86 -204 226c-3 180 124 335 271 332c73 0 132 -32 167 -77h2zM439 170l41 237c-24 56 -83 96 -158 96c-124 0 -226 -129 -226 -290c0 -115 61 -184 165 -184c85 0 164 64 178 141z" />
    <glyph glyph-name="aacute" unicode="&#xe1;" horiz-adv-x="574" 
d="M502 530h45l-94 -530h-43l12 65h-2c-37 -48 -96 -78 -165 -78c-125 0 -204 86 -204 226c-3 180 124 335 271 332c73 0 132 -32 167 -77h2zM439 170l41 237c-24 56 -83 96 -158 96c-124 0 -226 -129 -226 -290c0 -115 61 -184 165 -184c85 0 164 64 178 141zM312 605
l85 106h72l-111 -106h-46z" />
    <glyph glyph-name="abreve" unicode="&#x103;" horiz-adv-x="574" 
d="M502 530h45l-94 -530h-43l12 65h-2c-37 -48 -96 -78 -165 -78c-125 0 -204 86 -204 226c-3 180 124 335 271 332c73 0 132 -32 167 -77h2zM439 170l41 237c-24 56 -83 96 -158 96c-124 0 -226 -129 -226 -290c0 -115 61 -184 165 -184c85 0 164 64 178 141zM247 698h30
c5 -40 25 -60 62 -60c43 0 74 21 91 60h30c-16 -65 -62 -103 -123 -103c-56 0 -91 40 -90 103z" />
    <glyph glyph-name="uni01CE" unicode="&#x1ce;" horiz-adv-x="574" 
d="M502 530h45l-94 -530h-43l12 65h-2c-37 -48 -96 -78 -165 -78c-125 0 -204 86 -204 226c-3 180 124 335 271 332c73 0 132 -32 167 -77h2zM439 170l41 237c-24 56 -83 96 -158 96c-124 0 -226 -129 -226 -290c0 -115 61 -184 165 -184c85 0 164 64 178 141zM428 704
l27 -27l-81 -82h-62l-57 88l33 21l55 -87z" />
    <glyph glyph-name="acircumflex" unicode="&#xe2;" horiz-adv-x="574" 
d="M502 530h45l-94 -530h-43l12 65h-2c-37 -48 -96 -78 -165 -78c-125 0 -204 86 -204 226c-3 180 124 335 271 332c73 0 132 -32 167 -77h2zM439 170l41 237c-24 56 -83 96 -158 96c-124 0 -226 -129 -226 -290c0 -115 61 -184 165 -184c85 0 164 64 178 141zM442 606
l-32 -21l-56 86l-84 -86l-27 27l80 82h62z" />
    <glyph glyph-name="uni1EAD" unicode="&#x1ead;" horiz-adv-x="574" 
d="M502 530h45l-94 -530h-43l12 65h-2c-37 -48 -96 -78 -165 -78c-125 0 -204 86 -204 226c-3 180 124 335 271 332c73 0 132 -32 167 -77h2zM439 170l41 237c-24 56 -83 96 -158 96c-124 0 -226 -129 -226 -290c0 -115 61 -184 165 -184c85 0 164 64 178 141zM442 606
l-32 -21l-56 86l-84 -86l-27 27l80 82h62zM201 -137l13 75h76l-12 -75h-77z" />
    <glyph glyph-name="adieresis" unicode="&#xe4;" horiz-adv-x="574" 
d="M502 530h45l-94 -530h-43l12 65h-2c-37 -48 -96 -78 -165 -78c-125 0 -204 86 -204 226c-3 180 124 335 271 332c73 0 132 -32 167 -77h2zM439 170l41 237c-24 56 -83 96 -158 96c-124 0 -226 -129 -226 -290c0 -115 61 -184 165 -184c85 0 164 64 178 141zM225 595
l13 75h76l-12 -75h-77zM391 595l13 75h77l-13 -75h-77z" />
    <glyph glyph-name="uni01DF" unicode="&#x1df;" horiz-adv-x="574" 
d="M502 530h45l-94 -530h-43l12 65h-2c-37 -48 -96 -78 -165 -78c-125 0 -204 86 -204 226c-3 180 124 335 271 332c73 0 132 -32 167 -77h2zM439 170l41 237c-24 56 -83 96 -158 96c-124 0 -226 -129 -226 -290c0 -115 61 -184 165 -184c85 0 164 64 178 141zM225 595
l13 75h76l-12 -75h-77zM391 595l13 75h77l-13 -75h-77zM254 710l7 38h243l-8 -38h-242z" />
    <glyph glyph-name="uni1EA1" unicode="&#x1ea1;" horiz-adv-x="574" 
d="M502 530h45l-94 -530h-43l12 65h-2c-37 -48 -96 -78 -165 -78c-125 0 -204 86 -204 226c-3 180 124 335 271 332c73 0 132 -32 167 -77h2zM439 170l41 237c-24 56 -83 96 -158 96c-124 0 -226 -129 -226 -290c0 -115 61 -184 165 -184c85 0 164 64 178 141zM201 -137
l13 75h76l-12 -75h-77z" />
    <glyph glyph-name="agrave" unicode="&#xe0;" horiz-adv-x="574" 
d="M502 530h45l-94 -530h-43l12 65h-2c-37 -48 -96 -78 -165 -78c-125 0 -204 86 -204 226c-3 180 124 335 271 332c73 0 132 -32 167 -77h2zM439 170l41 237c-24 56 -83 96 -158 96c-124 0 -226 -129 -226 -290c0 -115 61 -184 165 -184c85 0 164 64 178 141zM321 605
l-73 106h71l47 -106h-45z" />
    <glyph glyph-name="amacron" unicode="&#x101;" horiz-adv-x="574" 
d="M502 530h45l-94 -530h-43l12 65h-2c-37 -48 -96 -78 -165 -78c-125 0 -204 86 -204 226c-3 180 124 335 271 332c73 0 132 -32 167 -77h2zM439 170l41 237c-24 56 -83 96 -158 96c-124 0 -226 -129 -226 -290c0 -115 61 -184 165 -184c85 0 164 64 178 141zM236 605l7 38
h243l-8 -38h-242z" />
    <glyph glyph-name="aogonek" unicode="&#x105;" horiz-adv-x="574" 
d="M502 530h45l-94 -530h-43l12 65h-2c-37 -48 -96 -78 -165 -78c-125 0 -204 86 -204 226c-3 180 124 335 271 332c73 0 132 -32 167 -77h2zM439 170l41 237c-24 56 -83 96 -158 96c-124 0 -226 -129 -226 -290c0 -115 61 -184 165 -184c85 0 164 64 178 141zM320 -118
c0 45 46 95 125 135l22 -11c-65 -33 -104 -75 -104 -114c0 -19 12 -29 36 -29c21 0 42 7 63 21l11 -36c-28 -17 -55 -25 -82 -25c-45 0 -71 20 -71 59z" />
    <glyph glyph-name="aring" unicode="&#xe5;" horiz-adv-x="578" 
d="M250 676c0 55 42 96 101 96c57 0 100 -41 100 -96s-43 -96 -100 -96c-59 0 -101 41 -101 96zM418 676c0 39 -28 67 -67 67s-68 -28 -68 -67s29 -68 68 -68s67 29 67 68zM502 530h45l-94 -530h-43l12 65h-2c-37 -48 -96 -78 -165 -78c-125 0 -204 86 -204 226
c-3 180 124 335 271 332c73 0 132 -32 167 -77h2zM439 170l41 237c-24 56 -83 96 -158 96c-124 0 -226 -129 -226 -290c0 -115 61 -184 165 -184c85 0 164 64 178 141z" />
    <glyph glyph-name="aringacute" unicode="&#x1fb;" horiz-adv-x="576" 
d="M250 676c0 47 30 83 77 94l75 93h72l-98 -94c45 -11 75 -46 75 -93c0 -55 -43 -96 -100 -96c-59 0 -101 41 -101 96zM283 676c0 -39 29 -68 68 -68s67 29 67 68s-28 67 -67 67s-68 -28 -68 -67zM502 530h45l-94 -530h-43l12 65h-2c-37 -48 -96 -78 -165 -78
c-125 0 -204 86 -204 226c-3 180 124 335 271 332c73 0 132 -32 167 -77h2zM439 170l41 237c-24 56 -83 96 -158 96c-124 0 -226 -129 -226 -290c0 -115 61 -184 165 -184c85 0 164 64 178 141z" />
    <glyph glyph-name="atilde" unicode="&#xe3;" horiz-adv-x="574" 
d="M502 530h45l-94 -530h-43l12 65h-2c-37 -48 -96 -78 -165 -78c-125 0 -204 86 -204 226c-3 180 124 335 271 332c73 0 132 -32 167 -77h2zM439 170l41 237c-24 56 -83 96 -158 96c-124 0 -226 -129 -226 -290c0 -115 61 -184 165 -184c85 0 164 64 178 141zM344 624
c-20 13 -37 19 -50 19c-21 0 -35 -13 -43 -38h-29c8 47 37 76 76 76c23 0 39 -8 66 -24c20 -13 37 -19 50 -19c21 0 35 13 43 38h29c-8 -47 -37 -76 -76 -76c-23 0 -39 8 -66 24z" />
    <glyph glyph-name="ae" unicode="&#xe6;" horiz-adv-x="927" 
d="M875 314c0 -23 -1 -43 -4 -59h-427c-1 -8 -2 -20 -2 -35c0 -123 63 -194 171 -194c79 0 145 41 194 121l35 -26c-55 -87 -138 -136 -229 -136c-103 0 -172 53 -199 145c-16 -45 -45 -80 -88 -106c-42 -26 -89 -39 -141 -39c-95 0 -152 47 -152 127c0 39 10 71 30 94
c21 24 45 42 73 53c29 12 67 24 114 37c39 11 69 20 91 28c45 17 80 46 83 93c3 53 -47 88 -123 88c-92 0 -158 -50 -186 -139l-41 12c32 105 118 167 229 167c92 0 155 -45 163 -113c49 71 120 113 199 113c126 0 210 -92 210 -231zM832 319c0 112 -64 186 -167 186
s-192 -88 -216 -213h382c1 6 1 15 1 27zM386 172l28 161h-2c-27 -33 -68 -48 -151 -71c-41 -11 -73 -22 -98 -32c-49 -20 -87 -56 -87 -116c0 -59 38 -89 109 -89c95 0 185 58 201 147z" />
    <glyph glyph-name="aeacute" unicode="&#x1fd;" horiz-adv-x="927" 
d="M875 314c0 -23 -1 -43 -4 -59h-427c-1 -8 -2 -20 -2 -35c0 -123 63 -194 171 -194c79 0 145 41 194 121l35 -26c-55 -87 -138 -136 -229 -136c-103 0 -172 53 -199 145c-16 -45 -45 -80 -88 -106c-42 -26 -89 -39 -141 -39c-95 0 -152 47 -152 127c0 39 10 71 30 94
c21 24 45 42 73 53c29 12 67 24 114 37c39 11 69 20 91 28c45 17 80 46 83 93c3 53 -47 88 -123 88c-92 0 -158 -50 -186 -139l-41 12c32 105 118 167 229 167c92 0 155 -45 163 -113c49 71 120 113 199 113c126 0 210 -92 210 -231zM832 319c0 112 -64 186 -167 186
s-192 -88 -216 -213h382c1 6 1 15 1 27zM386 172l28 161h-2c-27 -33 -68 -48 -151 -71c-41 -11 -73 -22 -98 -32c-49 -20 -87 -56 -87 -116c0 -59 38 -89 109 -89c95 0 185 58 201 147zM486 590l85 106h72l-111 -106h-46z" />
    <glyph glyph-name="b" unicode="b" horiz-adv-x="587" 
d="M87 74h-2l-13 -74h-45l129 730h45l-47 -259h2c41 45 104 74 175 74c121 0 204 -91 204 -234c3 -178 -124 -329 -277 -326c-75 0 -138 34 -171 89zM490 311c0 121 -63 192 -164 192c-94 0 -175 -62 -189 -138l-41 -231c21 -64 83 -107 162 -107c131 0 232 127 232 284z
" />
    <glyph glyph-name="uni1E05" unicode="&#x1e05;" horiz-adv-x="587" 
d="M87 74h-2l-13 -74h-45l129 730h45l-47 -259h2c41 45 104 74 175 74c121 0 204 -91 204 -234c3 -178 -124 -329 -277 -326c-75 0 -138 34 -171 89zM490 311c0 121 -63 192 -164 192c-94 0 -175 -62 -189 -138l-41 -231c21 -64 83 -107 162 -107c131 0 232 127 232 284z
M201 -139l13 75h76l-12 -75h-77z" />
    <glyph glyph-name="c" unicode="c" horiz-adv-x="573" 
d="M52 219c-3 178 122 329 271 326c120 0 199 -76 208 -195l-45 -6c-9 100 -68 159 -163 159c-126 0 -226 -125 -226 -284c0 -115 66 -192 169 -192c89 0 160 59 199 152l41 -16c-44 -108 -132 -178 -240 -178c-129 0 -214 94 -214 234z" />
    <glyph glyph-name="cacute" unicode="&#x107;" horiz-adv-x="573" 
d="M52 219c-3 178 122 329 271 326c120 0 199 -76 208 -195l-45 -6c-9 100 -68 159 -163 159c-126 0 -226 -125 -226 -284c0 -115 66 -192 169 -192c89 0 160 59 199 152l41 -16c-44 -108 -132 -178 -240 -178c-129 0 -214 94 -214 234zM298 605l85 106h72l-111 -106h-46z
" />
    <glyph glyph-name="ccaron" unicode="&#x10d;" horiz-adv-x="573" 
d="M52 219c-3 178 122 329 271 326c120 0 199 -76 208 -195l-45 -6c-9 100 -68 159 -163 159c-126 0 -226 -125 -226 -284c0 -115 66 -192 169 -192c89 0 160 59 199 152l41 -16c-44 -108 -132 -178 -240 -178c-129 0 -214 94 -214 234zM414 704l27 -27l-81 -82h-62l-57 88
l33 21l55 -87z" />
    <glyph glyph-name="ccedilla" unicode="&#xe7;" horiz-adv-x="573" 
d="M52 219c-3 178 122 329 271 326c120 0 199 -76 208 -195l-45 -6c-9 100 -68 159 -163 159c-126 0 -226 -125 -226 -284c0 -115 66 -192 169 -192c89 0 160 59 199 152l41 -16c-44 -108 -132 -178 -240 -178c-129 0 -214 94 -214 234zM359 -126c0 -53 -44 -94 -103 -94
c-37 0 -67 13 -92 40l25 24c19 -21 39 -31 67 -31c39 0 69 28 69 61c0 25 -19 40 -48 40c-24 0 -46 -10 -66 -30l-27 16l72 99l31 -7l-44 -58c13 6 26 9 41 9c44 0 75 -28 75 -69z" />
    <glyph glyph-name="ccircumflex" unicode="&#x109;" horiz-adv-x="573" 
d="M52 219c-3 178 122 329 271 326c120 0 199 -76 208 -195l-45 -6c-9 100 -68 159 -163 159c-126 0 -226 -125 -226 -284c0 -115 66 -192 169 -192c89 0 160 59 199 152l41 -16c-44 -108 -132 -178 -240 -178c-129 0 -214 94 -214 234zM428 606l-32 -21l-56 86l-84 -86
l-27 27l80 82h62z" />
    <glyph glyph-name="cdotaccent" unicode="&#x10b;" horiz-adv-x="573" 
d="M52 219c-3 178 122 329 271 326c120 0 199 -76 208 -195l-45 -6c-9 100 -68 159 -163 159c-126 0 -226 -125 -226 -284c0 -115 66 -192 169 -192c89 0 160 59 199 152l41 -16c-44 -108 -132 -178 -240 -178c-129 0 -214 94 -214 234zM296 605l13 75h76l-12 -75h-77z" />
    <glyph glyph-name="d" unicode="d" horiz-adv-x="579" 
d="M51 211c-3 189 124 337 271 334c77 0 139 -34 172 -78h2l46 263h45l-128 -730h-44l12 65h-2c-36 -48 -97 -78 -165 -78c-129 0 -209 85 -209 224zM444 170l41 235c-24 56 -83 98 -163 98c-121 3 -229 -126 -226 -292c0 -113 63 -182 168 -182c83 0 166 64 180 141z" />
    <glyph glyph-name="eth" unicode="&#xf0;" horiz-adv-x="601" 
d="M52 219c-3 178 124 329 275 326c65 0 123 -26 158 -71h2c-18 62 -44 121 -78 178l-146 -49l-10 28l139 48c-21 31 -45 63 -72 94v2h53c23 -29 43 -57 58 -82l150 50l11 -28l-144 -50c68 -117 102 -233 102 -350c3 -185 -123 -333 -278 -330c-133 0 -220 93 -220 234z
M503 311c0 116 -70 192 -175 192c-129 0 -231 -125 -231 -284c0 -116 70 -192 175 -192c129 0 231 125 231 284z" />
    <glyph glyph-name="dcaron" unicode="&#x10f;" horiz-adv-x="612" 
d="M51 211c-3 189 124 337 271 334c77 0 139 -34 172 -78h2l46 263h45l-128 -730h-44l12 65h-2c-36 -48 -97 -78 -165 -78c-129 0 -209 85 -209 224zM444 170l41 235c-24 56 -83 98 -163 98c-121 3 -229 -126 -226 -292c0 -113 63 -182 168 -182c83 0 166 64 180 141z
M610 592l5 28c23 4 33 15 37 39h-32l12 71h78l-11 -62c-9 -47 -38 -73 -89 -76z" />
    <glyph glyph-name="dcroat" unicode="&#x111;" horiz-adv-x="579" 
d="M51 211c-3 189 124 337 271 334c77 0 139 -34 172 -78h2l46 263h45l-128 -730h-44l12 65h-2c-36 -48 -97 -78 -165 -78c-129 0 -209 85 -209 224zM444 170l41 235c-24 56 -83 98 -163 98c-121 3 -229 -126 -226 -292c0 -113 63 -182 168 -182c83 0 166 64 180 141z
M386 627l6 35h251l-6 -35h-251z" />
    <glyph glyph-name="uni1E0D" unicode="&#x1e0d;" horiz-adv-x="579" 
d="M51 211c-3 189 124 337 271 334c77 0 139 -34 172 -78h2l46 263h45l-128 -730h-44l12 65h-2c-36 -48 -97 -78 -165 -78c-129 0 -209 85 -209 224zM444 170l41 235c-24 56 -83 98 -163 98c-121 3 -229 -126 -226 -292c0 -113 63 -182 168 -182c83 0 166 64 180 141z
M195 -124l13 75h76l-12 -75h-77z" />
    <glyph glyph-name="e" unicode="e" horiz-adv-x="581" 
d="M529 313c0 -19 -1 -39 -3 -59h-428c-1 -7 -1 -18 -1 -34c0 -121 63 -193 170 -193c77 0 144 43 192 120l36 -26c-53 -85 -136 -136 -228 -136c-133 0 -215 90 -215 235c-3 174 118 328 267 325c126 0 210 -91 210 -232zM319 504c-53 0 -99 -20 -138 -59s-64 -90 -77 -152
h380c8 129 -58 211 -165 211z" />
    <glyph glyph-name="eacute" unicode="&#xe9;" horiz-adv-x="581" 
d="M529 313c0 -19 -1 -39 -3 -59h-428c-1 -7 -1 -18 -1 -34c0 -121 63 -193 170 -193c77 0 144 43 192 120l36 -26c-53 -85 -136 -136 -228 -136c-133 0 -215 90 -215 235c-3 174 118 328 267 325c126 0 210 -91 210 -232zM319 504c-53 0 -99 -20 -138 -59s-64 -90 -77 -152
h380c8 129 -58 211 -165 211zM294 605l85 106h72l-111 -106h-46z" />
    <glyph glyph-name="ebreve" unicode="&#x115;" horiz-adv-x="581" 
d="M529 313c0 -19 -1 -39 -3 -59h-428c-1 -7 -1 -18 -1 -34c0 -121 63 -193 170 -193c77 0 144 43 192 120l36 -26c-53 -85 -136 -136 -228 -136c-133 0 -215 90 -215 235c-3 174 118 328 267 325c126 0 210 -91 210 -232zM319 504c-53 0 -99 -20 -138 -59s-64 -90 -77 -152
h380c8 129 -58 211 -165 211zM229 698h30c5 -40 25 -60 62 -60c43 0 74 21 91 60h30c-16 -65 -62 -103 -123 -103c-56 0 -91 40 -90 103z" />
    <glyph glyph-name="ecaron" unicode="&#x11b;" horiz-adv-x="581" 
d="M529 313c0 -19 -1 -39 -3 -59h-428c-1 -7 -1 -18 -1 -34c0 -121 63 -193 170 -193c77 0 144 43 192 120l36 -26c-53 -85 -136 -136 -228 -136c-133 0 -215 90 -215 235c-3 174 118 328 267 325c126 0 210 -91 210 -232zM319 504c-53 0 -99 -20 -138 -59s-64 -90 -77 -152
h380c8 129 -58 211 -165 211zM410 704l27 -27l-81 -82h-62l-57 88l33 21l55 -87z" />
    <glyph glyph-name="uni0229" unicode="&#x229;" horiz-adv-x="581" 
d="M529 313c0 -19 -1 -39 -3 -59h-428c-1 -7 -1 -18 -1 -34c0 -121 63 -193 170 -193c77 0 144 43 192 120l36 -26c-53 -85 -136 -136 -228 -136c-133 0 -215 90 -215 235c-3 174 118 328 267 325c126 0 210 -91 210 -232zM319 504c-53 0 -99 -20 -138 -59s-64 -90 -77 -152
h380c8 129 -58 211 -165 211zM360 -126c0 -53 -44 -94 -103 -94c-37 0 -67 13 -92 40l25 24c19 -21 39 -31 67 -31c39 0 69 28 69 61c0 25 -19 40 -48 40c-24 0 -46 -10 -66 -30l-27 16l72 99l31 -7l-44 -58c13 6 26 9 41 9c44 0 75 -28 75 -69z" />
    <glyph glyph-name="ecircumflex" unicode="&#xea;" horiz-adv-x="581" 
d="M529 313c0 -19 -1 -39 -3 -59h-428c-1 -7 -1 -18 -1 -34c0 -121 63 -193 170 -193c77 0 144 43 192 120l36 -26c-53 -85 -136 -136 -228 -136c-133 0 -215 90 -215 235c-3 174 118 328 267 325c126 0 210 -91 210 -232zM319 504c-53 0 -99 -20 -138 -59s-64 -90 -77 -152
h380c8 129 -58 211 -165 211zM424 606l-32 -21l-56 86l-84 -86l-27 27l80 82h62z" />
    <glyph glyph-name="uni1EC7" unicode="&#x1ec7;" horiz-adv-x="581" 
d="M529 313c0 -19 -1 -39 -3 -59h-428c-1 -7 -1 -18 -1 -34c0 -121 63 -193 170 -193c77 0 144 43 192 120l36 -26c-53 -85 -136 -136 -228 -136c-133 0 -215 90 -215 235c-3 174 118 328 267 325c126 0 210 -91 210 -232zM319 504c-53 0 -99 -20 -138 -59s-64 -90 -77 -152
h380c8 129 -58 211 -165 211zM424 606l-32 -21l-56 86l-84 -86l-27 27l80 82h62zM210 -139l13 75h76l-12 -75h-77z" />
    <glyph glyph-name="edieresis" unicode="&#xeb;" horiz-adv-x="581" 
d="M529 313c0 -19 -1 -39 -3 -59h-428c-1 -7 -1 -18 -1 -34c0 -121 63 -193 170 -193c77 0 144 43 192 120l36 -26c-53 -85 -136 -136 -228 -136c-133 0 -215 90 -215 235c-3 174 118 328 267 325c126 0 210 -91 210 -232zM319 504c-53 0 -99 -20 -138 -59s-64 -90 -77 -152
h380c8 129 -58 211 -165 211zM207 595l13 75h76l-12 -75h-77zM373 595l13 75h77l-13 -75h-77z" />
    <glyph glyph-name="edotaccent" unicode="&#x117;" horiz-adv-x="581" 
d="M529 313c0 -19 -1 -39 -3 -59h-428c-1 -7 -1 -18 -1 -34c0 -121 63 -193 170 -193c77 0 144 43 192 120l36 -26c-53 -85 -136 -136 -228 -136c-133 0 -215 90 -215 235c-3 174 118 328 267 325c126 0 210 -91 210 -232zM319 504c-53 0 -99 -20 -138 -59s-64 -90 -77 -152
h380c8 129 -58 211 -165 211zM292 605l13 75h76l-12 -75h-77z" />
    <glyph glyph-name="uni1EB9" unicode="&#x1eb9;" horiz-adv-x="581" 
d="M529 313c0 -19 -1 -39 -3 -59h-428c-1 -7 -1 -18 -1 -34c0 -121 63 -193 170 -193c77 0 144 43 192 120l36 -26c-53 -85 -136 -136 -228 -136c-133 0 -215 90 -215 235c-3 174 118 328 267 325c126 0 210 -91 210 -232zM319 504c-53 0 -99 -20 -138 -59s-64 -90 -77 -152
h380c8 129 -58 211 -165 211zM210 -139l13 75h76l-12 -75h-77z" />
    <glyph glyph-name="egrave" unicode="&#xe8;" horiz-adv-x="581" 
d="M529 313c0 -19 -1 -39 -3 -59h-428c-1 -7 -1 -18 -1 -34c0 -121 63 -193 170 -193c77 0 144 43 192 120l36 -26c-53 -85 -136 -136 -228 -136c-133 0 -215 90 -215 235c-3 174 118 328 267 325c126 0 210 -91 210 -232zM319 504c-53 0 -99 -20 -138 -59s-64 -90 -77 -152
h380c8 129 -58 211 -165 211zM303 605l-73 106h71l47 -106h-45z" />
    <glyph glyph-name="emacron" unicode="&#x113;" horiz-adv-x="581" 
d="M529 313c0 -19 -1 -39 -3 -59h-428c-1 -7 -1 -18 -1 -34c0 -121 63 -193 170 -193c77 0 144 43 192 120l36 -26c-53 -85 -136 -136 -228 -136c-133 0 -215 90 -215 235c-3 174 118 328 267 325c126 0 210 -91 210 -232zM319 504c-53 0 -99 -20 -138 -59s-64 -90 -77 -152
h380c8 129 -58 211 -165 211zM218 605l7 38h243l-8 -38h-242z" />
    <glyph glyph-name="eogonek" unicode="&#x119;" horiz-adv-x="581" 
d="M529 313c0 -19 -1 -39 -3 -59h-428c-1 -7 -1 -18 -1 -34c0 -121 63 -193 170 -193c77 0 144 43 192 120l36 -26c-53 -85 -136 -136 -228 -136c-133 0 -215 90 -215 235c-3 174 118 328 267 325c126 0 210 -91 210 -232zM319 504c-53 0 -99 -20 -138 -59s-64 -90 -77 -152
h380c8 129 -58 211 -165 211zM204 -124c0 45 46 95 125 135l22 -11c-65 -33 -104 -75 -104 -114c0 -19 12 -29 36 -29c21 0 42 7 63 21l11 -36c-28 -17 -55 -25 -82 -25c-45 0 -71 20 -71 59z" />
    <glyph glyph-name="uni0258" unicode="&#x258;" horiz-adv-x="582" 
d="M531 310c3 -164 -119 -329 -271 -325c-108 0 -177 58 -209 146l41 16c28 -76 79 -120 168 -120c109 0 200 105 222 227v1h-426c0 3 1 10 2 21c16 155 124 269 260 269c131 0 213 -91 213 -235zM105 293h381v17c0 120 -64 194 -168 194c-103 0 -195 -81 -213 -211z" />
    <glyph glyph-name="uni1EBD" unicode="&#x1ebd;" horiz-adv-x="581" 
d="M529 313c0 -19 -1 -39 -3 -59h-428c-1 -7 -1 -18 -1 -34c0 -121 63 -193 170 -193c77 0 144 43 192 120l36 -26c-53 -85 -136 -136 -228 -136c-133 0 -215 90 -215 235c-3 174 118 328 267 325c126 0 210 -91 210 -232zM319 504c-53 0 -99 -20 -138 -59s-64 -90 -77 -152
h380c8 129 -58 211 -165 211zM326 624c-20 13 -37 19 -50 19c-21 0 -35 -13 -43 -38h-29c8 47 37 76 76 76c23 0 39 -8 66 -24c20 -13 37 -19 50 -19c21 0 35 13 43 38h29c-8 -47 -37 -76 -76 -76c-23 0 -39 8 -66 24z" />
    <glyph glyph-name="uni0259" unicode="&#x259;" horiz-adv-x="581" 
d="M529 310c2 -174 -118 -328 -267 -325c-127 0 -210 91 -210 232c0 19 1 39 3 59h428c1 7 1 18 1 34c0 123 -62 194 -170 194c-79 0 -145 -44 -194 -121l-36 26c53 85 137 136 230 136c133 0 215 -88 215 -235zM477 237h-380c-8 -129 58 -210 165 -210c53 0 99 19 138 58
s64 90 77 152z" />
    <glyph glyph-name="f" unicode="f" horiz-adv-x="307" 
d="M65 0l86 490h-88l8 40h88l11 65c11 66 51 99 120 99h70l-8 -43h-62c-45 0 -68 -19 -77 -66l-9 -55h137l-7 -40h-138l-86 -490h-45z" />
    <glyph glyph-name="g" unicode="g" horiz-adv-x="579" 
d="M39 -96l42 16c24 -79 73 -118 152 -118c97 0 164 68 183 183l14 79h-2c-37 -48 -102 -79 -173 -79c-125 0 -204 87 -204 228c-3 178 122 335 277 332c71 0 135 -33 168 -92h2l13 77h45l-97 -551c-23 -137 -105 -219 -226 -219c-99 0 -166 52 -194 144zM447 164l39 219
c-21 73 -82 120 -158 120c-130 3 -235 -136 -232 -290c0 -115 63 -186 162 -186c91 0 175 62 189 137z" />
    <glyph glyph-name="gbreve" unicode="&#x11f;" horiz-adv-x="579" 
d="M39 -96l42 16c24 -79 73 -118 152 -118c97 0 164 68 183 183l14 79h-2c-37 -48 -102 -79 -173 -79c-125 0 -204 87 -204 228c-3 178 122 335 277 332c71 0 135 -33 168 -92h2l13 77h45l-97 -551c-23 -137 -105 -219 -226 -219c-99 0 -166 52 -194 144zM447 164l39 219
c-21 73 -82 120 -158 120c-130 3 -235 -136 -232 -290c0 -115 63 -186 162 -186c91 0 175 62 189 137zM242 698h30c5 -40 25 -60 62 -60c43 0 74 21 91 60h30c-16 -65 -62 -103 -123 -103c-56 0 -91 40 -90 103z" />
    <glyph glyph-name="gcircumflex" unicode="&#x11d;" horiz-adv-x="579" 
d="M39 -96l42 16c24 -79 73 -118 152 -118c97 0 164 68 183 183l14 79h-2c-37 -48 -102 -79 -173 -79c-125 0 -204 87 -204 228c-3 178 122 335 277 332c71 0 135 -33 168 -92h2l13 77h45l-97 -551c-23 -137 -105 -219 -226 -219c-99 0 -166 52 -194 144zM447 164l39 219
c-21 73 -82 120 -158 120c-130 3 -235 -136 -232 -290c0 -115 63 -186 162 -186c91 0 175 62 189 137zM437 606l-32 -21l-56 86l-84 -86l-27 27l80 82h62z" />
    <glyph glyph-name="uni0123" unicode="&#x123;" horiz-adv-x="579" 
d="M39 -96l42 16c24 -79 73 -118 152 -118c97 0 164 68 183 183l14 79h-2c-37 -48 -102 -79 -173 -79c-125 0 -204 87 -204 228c-3 178 122 335 277 332c71 0 135 -33 168 -92h2l13 77h45l-97 -551c-23 -137 -105 -219 -226 -219c-99 0 -166 52 -194 144zM447 164l39 219
c-21 73 -82 120 -158 120c-130 3 -235 -136 -232 -290c0 -115 63 -186 162 -186c91 0 175 62 189 137zM407 743l-5 -27c-24 -5 -34 -16 -39 -40h34l-12 -71h-82l11 62c8 47 40 73 93 76z" />
    <glyph glyph-name="gdotaccent" unicode="&#x121;" horiz-adv-x="579" 
d="M39 -96l42 16c24 -79 73 -118 152 -118c97 0 164 68 183 183l14 79h-2c-37 -48 -102 -79 -173 -79c-125 0 -204 87 -204 228c-3 178 122 335 277 332c71 0 135 -33 168 -92h2l13 77h45l-97 -551c-23 -137 -105 -219 -226 -219c-99 0 -166 52 -194 144zM447 164l39 219
c-21 73 -82 120 -158 120c-130 3 -235 -136 -232 -290c0 -115 63 -186 162 -186c91 0 175 62 189 137zM305 605l13 75h76l-12 -75h-77z" />
    <glyph glyph-name="h" unicode="h" horiz-adv-x="555" 
d="M28 0l128 730h45l-48 -274h2c41 55 109 89 178 89c105 0 171 -61 171 -157c0 -15 -1 -29 -4 -42l-61 -346h-45l61 344c3 19 4 32 4 39c0 76 -48 120 -131 120c-49 0 -91 -15 -128 -46s-59 -70 -67 -117l-60 -340h-45z" />
    <glyph glyph-name="hbar" unicode="&#x127;" horiz-adv-x="555" 
d="M28 0l128 730h45l-48 -274h2c41 55 109 89 178 89c105 0 171 -61 171 -157c0 -15 -1 -29 -4 -42l-61 -346h-45l61 344c3 19 4 32 4 39c0 76 -48 120 -131 120c-49 0 -91 -15 -128 -46s-59 -70 -67 -117l-60 -340h-45zM69 627l6 35h251l-6 -35h-251z" />
    <glyph glyph-name="hcircumflex" unicode="&#x125;" horiz-adv-x="555" 
d="M28 0l128 730h45l-48 -274h2c41 55 109 89 178 89c105 0 171 -61 171 -157c0 -15 -1 -29 -4 -42l-61 -346h-45l61 344c3 19 4 32 4 39c0 76 -48 120 -131 120c-49 0 -91 -15 -128 -46s-59 -70 -67 -117l-60 -340h-45zM450 761l-32 -21l-56 86l-84 -86l-27 27l80 82h62z
" />
    <glyph glyph-name="uni1E25" unicode="&#x1e25;" horiz-adv-x="555" 
d="M28 0l128 730h45l-48 -274h2c41 55 109 89 178 89c105 0 171 -61 171 -157c0 -15 -1 -29 -4 -42l-61 -346h-45l61 344c3 19 4 32 4 39c0 76 -48 120 -131 120c-49 0 -91 -15 -128 -46s-59 -70 -67 -117l-60 -340h-45zM174 -124l13 75h76l-12 -75h-77z" />
    <glyph glyph-name="i" unicode="i" horiz-adv-x="194" 
d="M28 0l93 530h45l-93 -530h-45zM126 625l11 65h67l-11 -65h-67z" />
    <glyph glyph-name="dotlessi" unicode="&#x131;" horiz-adv-x="194" 
d="M28 0l93 530h45l-93 -530h-45z" />
    <glyph glyph-name="iacute" unicode="&#xed;" horiz-adv-x="194" 
d="M28 0l93 530h45l-93 -530h-45zM119 590l85 106h72l-111 -106h-46z" />
    <glyph glyph-name="ibreve" unicode="&#x12d;" horiz-adv-x="194" 
d="M28 0l93 530h45l-93 -530h-45zM54 683h30c5 -40 25 -60 62 -60c43 0 74 21 91 60h30c-16 -65 -62 -103 -123 -103c-56 0 -91 40 -90 103z" />
    <glyph glyph-name="uni01D0" unicode="&#x1d0;" horiz-adv-x="194" 
d="M28 0l93 530h45l-93 -530h-45zM234 689l27 -27l-81 -82h-62l-57 88l33 21l55 -87z" />
    <glyph glyph-name="icircumflex" unicode="&#xee;" horiz-adv-x="194" 
d="M28 0l93 530h45l-93 -530h-45zM249 591l-32 -21l-56 86l-84 -86l-27 27l80 82h62z" />
    <glyph glyph-name="idieresis" unicode="&#xef;" horiz-adv-x="189" 
d="M38 580l12 75h77l-13 -75h-76zM187 580l13 75h76l-12 -75h-77zM28 0l93 530h45l-93 -530h-45z" />
    <glyph glyph-name="i.locl" horiz-adv-x="194" 
d="M28 0l93 530h45l-93 -530h-45zM127 625l11 65h67l-11 -65h-67z" />
    <glyph glyph-name="uni1ECB" unicode="&#x1ecb;" horiz-adv-x="194" 
d="M28 0l93 530h45l-93 -530h-45zM126 625l11 65h67l-11 -65h-67zM-9 -124l13 75h76l-12 -75h-77z" />
    <glyph glyph-name="igrave" unicode="&#xec;" horiz-adv-x="194" 
d="M28 0l93 530h45l-93 -530h-45zM128 590l-73 106h71l47 -106h-45z" />
    <glyph glyph-name="imacron" unicode="&#x12b;" horiz-adv-x="194" 
d="M28 0l93 530h45l-93 -530h-45zM43 590l7 38h243l-8 -38h-242z" />
    <glyph glyph-name="iogonek" unicode="&#x12f;" horiz-adv-x="194" 
d="M28 0l93 530h45l-93 -530h-45zM-78 -124c0 45 46 95 125 135l22 -11c-65 -33 -104 -75 -104 -114c0 -19 12 -29 36 -29c21 0 42 7 63 21l11 -36c-28 -17 -55 -25 -82 -25c-45 0 -71 20 -71 59zM127 625l11 65h67l-11 -65h-67z" />
    <glyph glyph-name="itilde" unicode="&#x129;" horiz-adv-x="194" 
d="M28 0l93 530h45l-93 -530h-45zM151 609c-20 13 -37 19 -50 19c-21 0 -35 -13 -43 -38h-29c8 47 37 76 76 76c23 0 39 -8 66 -24c20 -13 37 -19 50 -19c21 0 35 13 43 38h29c-8 -47 -37 -76 -76 -76c-23 0 -39 8 -66 24z" />
    <glyph glyph-name="j" unicode="j" horiz-adv-x="210" 
d="M-84 -156l8 43h30c45 0 69 19 76 66l101 577h45l-102 -586c-12 -67 -53 -100 -123 -100h-35zM138 625l11 65h67l-11 -65h-67z" />
    <glyph glyph-name="uni0237" unicode="&#x237;" horiz-adv-x="205" 
d="M-84 -156l8 43h30c45 0 69 19 76 66l101 577h45l-102 -586c-12 -67 -53 -100 -123 -100h-35z" />
    <glyph glyph-name="jcircumflex" unicode="&#x135;" horiz-adv-x="205" 
d="M-84 -156l8 43h30c45 0 69 19 76 66l101 577h45l-102 -586c-12 -67 -53 -100 -123 -100h-35zM259 591l-32 -21l-56 86l-84 -86l-27 27l80 82h62z" />
    <glyph glyph-name="k" unicode="k" horiz-adv-x="487" 
d="M486 530l-236 -211l167 -319h-51l-148 291h-2l-109 -98l-34 -193h-45l128 730h45l-83 -473h2l302 273h64z" />
    <glyph glyph-name="uni0137" unicode="&#x137;" horiz-adv-x="487" 
d="M486 530l-236 -211l167 -319h-51l-148 291h-2l-109 -98l-34 -193h-45l128 730h45l-83 -473h2l302 273h64zM163 -187l5 28c23 4 33 15 37 39h-32l12 71h78l-11 -62c-9 -47 -38 -73 -89 -76z" />
    <glyph glyph-name="kgreenlandic" unicode="&#x138;" horiz-adv-x="487" 
d="M486 530l-236 -211l167 -319h-51l-148 291h-2l-109 -98l-34 -193h-45l93 530h45l-48 -273h2l302 273h64z" />
    <glyph glyph-name="l" unicode="l" horiz-adv-x="194" 
d="M28 0l128 730h45l-128 -730h-45z" />
    <glyph glyph-name="lacute" unicode="&#x13a;" horiz-adv-x="194" 
d="M28 0l128 730h45l-128 -730h-45zM152 790l85 106h72l-111 -106h-46z" />
    <glyph glyph-name="lcaron" unicode="&#x13e;" horiz-adv-x="228" 
d="M28 0l128 730h45l-128 -730h-45zM226 592l5 28c23 4 33 15 37 39h-32l12 71h78l-11 -62c-9 -47 -38 -73 -89 -76z" />
    <glyph glyph-name="uni013C" unicode="&#x13c;" horiz-adv-x="194" 
d="M28 0l128 730h45l-128 -730h-45zM-16 -187l5 28c23 4 33 15 37 39h-32l12 71h78l-11 -62c-9 -47 -38 -73 -89 -76z" />
    <glyph glyph-name="ldot" unicode="&#x140;" horiz-adv-x="250" 
d="M28 0l128 730h45l-128 -730h-45zM186 343l15 87h89l-15 -87h-89z" />
    <glyph glyph-name="uni1E37" unicode="&#x1e37;" horiz-adv-x="194" 
d="M28 0l128 730h45l-128 -730h-45zM-7 -124l13 75h76l-12 -75h-77z" />
    <glyph glyph-name="lslash" unicode="&#x142;" horiz-adv-x="230" 
d="M47 0l128 730h45l-128 -730h-45zM131 376l162 116l-17 25l-138 -99l1 6l-154 -112l18 -24l129 93z" />
    <glyph glyph-name="m" unicode="m" horiz-adv-x="818" 
d="M28 0l93 530h44l-10 -62h2c35 49 95 77 152 77c68 0 122 -35 137 -91h2c40 60 100 91 171 91c89 0 152 -53 152 -138c0 -11 -1 -23 -3 -35l-66 -372h-45l65 369c2 11 3 22 3 32c0 65 -43 102 -108 102c-87 0 -152 -58 -167 -145l-63 -358h-44l65 370c2 10 3 20 3 30
c0 64 -43 103 -110 103c-41 0 -78 -14 -109 -42c-31 -27 -49 -62 -56 -105l-63 -356h-45z" />
    <glyph glyph-name="n" unicode="n" horiz-adv-x="555" 
d="M28 0l93 530h44l-13 -74h2c43 55 110 89 179 89c105 0 171 -61 171 -157c0 -15 -1 -28 -4 -41l-61 -347h-45l61 344c3 19 4 32 4 39c0 76 -48 120 -131 120c-49 0 -91 -15 -128 -46s-59 -70 -67 -117l-60 -340h-45z" />
    <glyph glyph-name="nacute" unicode="&#x144;" horiz-adv-x="555" 
d="M28 0l93 530h44l-13 -74h2c43 55 110 89 179 89c105 0 171 -61 171 -157c0 -15 -1 -28 -4 -41l-61 -347h-45l61 344c3 19 4 32 4 39c0 76 -48 120 -131 120c-49 0 -91 -15 -128 -46s-59 -70 -67 -117l-60 -340h-45zM301 605l85 106h72l-111 -106h-46z" />
    <glyph glyph-name="ncaron" unicode="&#x148;" horiz-adv-x="555" 
d="M28 0l93 530h44l-13 -74h2c43 55 110 89 179 89c105 0 171 -61 171 -157c0 -15 -1 -28 -4 -41l-61 -347h-45l61 344c3 19 4 32 4 39c0 76 -48 120 -131 120c-49 0 -91 -15 -128 -46s-59 -70 -67 -117l-60 -340h-45zM417 704l27 -27l-81 -82h-62l-57 88l33 21l55 -87z" />
    <glyph glyph-name="uni0146" unicode="&#x146;" horiz-adv-x="555" 
d="M28 0l93 530h44l-13 -74h2c43 55 110 89 179 89c105 0 171 -61 171 -157c0 -15 -1 -28 -4 -41l-61 -347h-45l61 344c3 19 4 32 4 39c0 76 -48 120 -131 120c-49 0 -91 -15 -128 -46s-59 -70 -67 -117l-60 -340h-45zM175 -187l5 28c23 4 33 15 37 39h-32l12 71h78l-11 -62
c-9 -47 -38 -73 -89 -76z" />
    <glyph glyph-name="uni1E45" unicode="&#x1e45;" horiz-adv-x="555" 
d="M28 0l93 530h44l-13 -74h2c43 55 110 89 179 89c105 0 171 -61 171 -157c0 -15 -1 -28 -4 -41l-61 -347h-45l61 344c3 19 4 32 4 39c0 76 -48 120 -131 120c-49 0 -91 -15 -128 -46s-59 -70 -67 -117l-60 -340h-45zM299 605l13 75h76l-12 -75h-77z" />
    <glyph glyph-name="uni1E47" unicode="&#x1e47;" horiz-adv-x="555" 
d="M28 0l93 530h44l-13 -74h2c43 55 110 89 179 89c105 0 171 -61 171 -157c0 -15 -1 -28 -4 -41l-61 -347h-45l61 344c3 19 4 32 4 39c0 76 -48 120 -131 120c-49 0 -91 -15 -128 -46s-59 -70 -67 -117l-60 -340h-45zM185 -124l13 75h76l-12 -75h-77z" />
    <glyph glyph-name="eng" unicode="&#x14b;" horiz-adv-x="555" 
d="M504 388c0 -15 -1 -28 -4 -41l-70 -403c-12 -67 -53 -100 -124 -100h-34l7 43h30c47 0 69 19 77 66l69 391c3 19 4 32 4 39c0 76 -48 120 -131 120c-49 0 -91 -15 -128 -46s-59 -70 -67 -117l-60 -340h-45l93 530h44l-13 -74h2c43 55 110 89 179 89
c105 0 171 -61 171 -157z" />
    <glyph glyph-name="ntilde" unicode="&#xf1;" horiz-adv-x="555" 
d="M28 0l93 530h44l-13 -74h2c43 55 110 89 179 89c105 0 171 -61 171 -157c0 -15 -1 -28 -4 -41l-61 -347h-45l61 344c3 19 4 32 4 39c0 76 -48 120 -131 120c-49 0 -91 -15 -128 -46s-59 -70 -67 -117l-60 -340h-45zM333 624c-20 13 -37 19 -50 19c-21 0 -35 -13 -43 -38
h-29c8 47 37 76 76 76c23 0 39 -8 66 -24c20 -13 37 -19 50 -19c21 0 35 13 43 38h29c-8 -47 -37 -76 -76 -76c-23 0 -39 8 -66 24z" />
    <glyph glyph-name="o" unicode="o" horiz-adv-x="600" 
d="M52 219c-3 181 124 329 277 326c132 0 219 -96 219 -234c3 -181 -123 -329 -278 -326c-131 0 -218 96 -218 234zM503 311c0 57 -16 104 -48 139s-74 53 -126 53c-131 0 -232 -125 -232 -284c0 -57 16 -104 47 -139c32 -35 74 -53 126 -53c131 0 233 125 233 284z" />
    <glyph glyph-name="oacute" unicode="&#xf3;" horiz-adv-x="600" 
d="M52 219c-3 181 124 329 277 326c132 0 219 -96 219 -234c3 -181 -123 -329 -278 -326c-131 0 -218 96 -218 234zM503 311c0 57 -16 104 -48 139s-74 53 -126 53c-131 0 -232 -125 -232 -284c0 -57 16 -104 47 -139c32 -35 74 -53 126 -53c131 0 233 125 233 284zM314 605
l85 106h72l-111 -106h-46z" />
    <glyph glyph-name="obreve" unicode="&#x14f;" horiz-adv-x="600" 
d="M52 219c-3 181 124 329 277 326c132 0 219 -96 219 -234c3 -181 -123 -329 -278 -326c-131 0 -218 96 -218 234zM503 311c0 57 -16 104 -48 139s-74 53 -126 53c-131 0 -232 -125 -232 -284c0 -57 16 -104 47 -139c32 -35 74 -53 126 -53c131 0 233 125 233 284zM249 698
h30c5 -40 25 -60 62 -60c43 0 74 21 91 60h30c-16 -65 -62 -103 -123 -103c-56 0 -91 40 -90 103z" />
    <glyph glyph-name="uni01D2" unicode="&#x1d2;" horiz-adv-x="600" 
d="M52 219c-3 181 124 329 277 326c132 0 219 -96 219 -234c3 -181 -123 -329 -278 -326c-131 0 -218 96 -218 234zM503 311c0 57 -16 104 -48 139s-74 53 -126 53c-131 0 -232 -125 -232 -284c0 -57 16 -104 47 -139c32 -35 74 -53 126 -53c131 0 233 125 233 284zM430 704
l27 -27l-81 -82h-62l-57 88l33 21l55 -87z" />
    <glyph glyph-name="ocircumflex" unicode="&#xf4;" horiz-adv-x="600" 
d="M52 219c-3 181 124 329 277 326c132 0 219 -96 219 -234c3 -181 -123 -329 -278 -326c-131 0 -218 96 -218 234zM503 311c0 57 -16 104 -48 139s-74 53 -126 53c-131 0 -232 -125 -232 -284c0 -57 16 -104 47 -139c32 -35 74 -53 126 -53c131 0 233 125 233 284zM444 606
l-32 -21l-56 86l-84 -86l-27 27l80 82h62z" />
    <glyph glyph-name="uni1ED9" unicode="&#x1ed9;" horiz-adv-x="600" 
d="M52 219c-3 181 124 329 277 326c132 0 219 -96 219 -234c3 -181 -123 -329 -278 -326c-131 0 -218 96 -218 234zM503 311c0 57 -16 104 -48 139s-74 53 -126 53c-131 0 -232 -125 -232 -284c0 -57 16 -104 47 -139c32 -35 74 -53 126 -53c131 0 233 125 233 284zM444 606
l-32 -21l-56 86l-84 -86l-27 27l80 82h62zM213 -139l13 75h76l-12 -75h-77z" />
    <glyph glyph-name="odieresis" unicode="&#xf6;" horiz-adv-x="600" 
d="M52 219c-3 181 124 329 277 326c132 0 219 -96 219 -234c3 -181 -123 -329 -278 -326c-131 0 -218 96 -218 234zM503 311c0 57 -16 104 -48 139s-74 53 -126 53c-131 0 -232 -125 -232 -284c0 -57 16 -104 47 -139c32 -35 74 -53 126 -53c131 0 233 125 233 284zM227 595
l13 75h76l-12 -75h-77zM393 595l13 75h77l-13 -75h-77z" />
    <glyph glyph-name="uni1ECD" unicode="&#x1ecd;" horiz-adv-x="600" 
d="M52 219c-3 181 124 329 277 326c132 0 219 -96 219 -234c3 -181 -123 -329 -278 -326c-131 0 -218 96 -218 234zM503 311c0 57 -16 104 -48 139s-74 53 -126 53c-131 0 -232 -125 -232 -284c0 -57 16 -104 47 -139c32 -35 74 -53 126 -53c131 0 233 125 233 284z
M213 -139l13 75h76l-12 -75h-77z" />
    <glyph glyph-name="ograve" unicode="&#xf2;" horiz-adv-x="600" 
d="M52 219c-3 181 124 329 277 326c132 0 219 -96 219 -234c3 -181 -123 -329 -278 -326c-131 0 -218 96 -218 234zM503 311c0 57 -16 104 -48 139s-74 53 -126 53c-131 0 -232 -125 -232 -284c0 -57 16 -104 47 -139c32 -35 74 -53 126 -53c131 0 233 125 233 284zM323 605
l-73 106h71l47 -106h-45z" />
    <glyph glyph-name="ohungarumlaut" unicode="&#x151;" horiz-adv-x="600" 
d="M52 219c-3 181 124 329 277 326c132 0 219 -96 219 -234c3 -181 -123 -329 -278 -326c-131 0 -218 96 -218 234zM503 311c0 57 -16 104 -48 139s-74 53 -126 53c-131 0 -232 -125 -232 -284c0 -57 16 -104 47 -139c32 -35 74 -53 126 -53c131 0 233 125 233 284zM253 605
l85 106h72l-111 -106h-46zM377 605l85 106h72l-111 -106h-46z" />
    <glyph glyph-name="omacron" unicode="&#x14d;" horiz-adv-x="600" 
d="M52 219c-3 181 124 329 277 326c132 0 219 -96 219 -234c3 -181 -123 -329 -278 -326c-131 0 -218 96 -218 234zM503 311c0 57 -16 104 -48 139s-74 53 -126 53c-131 0 -232 -125 -232 -284c0 -57 16 -104 47 -139c32 -35 74 -53 126 -53c131 0 233 125 233 284zM238 605
l7 38h243l-8 -38h-242z" />
    <glyph glyph-name="oslash" unicode="&#xf8;" horiz-adv-x="600" 
d="M553 513l-49 -51c29 -42 44 -92 44 -151c3 -179 -124 -330 -277 -326c-67 0 -123 24 -162 67l-53 -55l-20 20l56 58c-27 39 -40 87 -40 144c-3 179 124 330 277 326c64 0 117 -22 156 -62l48 50zM123 107l332 345c-31 35 -73 52 -126 52c-131 0 -233 -127 -233 -285
c0 -43 9 -81 27 -112zM473 430l-334 -346c33 -39 77 -58 132 -58c129 -3 236 128 233 285c0 46 -10 86 -31 119z" />
    <glyph glyph-name="oslashacute" unicode="&#x1ff;" horiz-adv-x="600" 
d="M553 513l-49 -51c29 -42 44 -92 44 -151c3 -179 -124 -330 -277 -326c-67 0 -123 24 -162 67l-53 -55l-20 20l56 58c-27 39 -40 87 -40 144c-3 179 124 330 277 326c64 0 117 -22 156 -62l48 50zM123 107l332 345c-31 35 -73 52 -126 52c-131 0 -233 -127 -233 -285
c0 -43 9 -81 27 -112zM473 430l-334 -346c33 -39 77 -58 132 -58c129 -3 236 128 233 285c0 46 -10 86 -31 119zM314 605l85 106h72l-111 -106h-46z" />
    <glyph glyph-name="otilde" unicode="&#xf5;" horiz-adv-x="600" 
d="M52 219c-3 181 124 329 277 326c132 0 219 -96 219 -234c3 -181 -123 -329 -278 -326c-131 0 -218 96 -218 234zM503 311c0 57 -16 104 -48 139s-74 53 -126 53c-131 0 -232 -125 -232 -284c0 -57 16 -104 47 -139c32 -35 74 -53 126 -53c131 0 233 125 233 284zM346 624
c-20 13 -37 19 -50 19c-21 0 -35 -13 -43 -38h-29c8 47 37 76 76 76c23 0 39 -8 66 -24c20 -13 37 -19 50 -19c21 0 35 13 43 38h29c-8 -47 -37 -76 -76 -76c-23 0 -39 8 -66 24z" />
    <glyph glyph-name="uni1E4D" unicode="&#x1e4d;" horiz-adv-x="600" 
d="M52 219c-3 181 124 329 277 326c132 0 219 -96 219 -234c3 -181 -123 -329 -278 -326c-131 0 -218 96 -218 234zM503 311c0 57 -16 104 -48 139s-74 53 -126 53c-131 0 -232 -125 -232 -284c0 -57 16 -104 47 -139c32 -35 74 -53 126 -53c131 0 233 125 233 284zM346 624
c-20 13 -37 19 -50 19c-21 0 -35 -13 -43 -38h-29c8 47 37 76 76 76c23 0 39 -8 66 -24c20 -13 37 -19 50 -19c21 0 35 13 43 38h29c-8 -47 -37 -76 -76 -76c-23 0 -39 8 -66 24zM334 711l85 106h72l-111 -106h-46z" />
    <glyph glyph-name="oe" unicode="&#x153;" horiz-adv-x="1027" 
d="M976 313c0 -15 -1 -34 -4 -58h-428c-1 -8 -1 -20 -1 -35c0 -123 63 -195 171 -195c79 0 146 44 193 121l36 -25c-55 -85 -138 -136 -229 -136c-107 0 -181 59 -205 160c-48 -99 -135 -160 -238 -160c-133 0 -219 94 -219 234c-3 179 124 330 277 326
c105 0 183 -61 208 -160c47 97 133 160 230 160c124 0 209 -91 209 -232zM934 318c0 115 -66 187 -167 187c-52 0 -98 -20 -138 -60c-40 -39 -66 -90 -79 -153h383c1 6 1 15 1 26zM504 311c0 115 -68 193 -175 193c-130 3 -237 -128 -234 -285c0 -115 69 -193 176 -193
c129 -3 236 128 233 285z" />
    <glyph glyph-name="p" unicode="p" horiz-adv-x="587" 
d="M-12 -225l133 755h45l-12 -64h2c40 48 105 79 176 79c120 0 203 -91 203 -234c2 -178 -123 -329 -276 -326c-76 0 -136 32 -172 87h-2l-52 -297h-45zM490 311c0 121 -62 192 -163 192c-95 0 -176 -62 -190 -138l-41 -231c21 -64 84 -107 163 -107c131 0 231 127 231 284z
" />
    <glyph glyph-name="thorn" unicode="&#xfe;" horiz-adv-x="587" 
d="M-12 -225l168 955h45l-46 -263h2c41 49 106 78 175 78c120 0 203 -93 203 -234c3 -179 -125 -330 -276 -326c-75 0 -136 31 -172 87h-2l-52 -297h-45zM490 311c0 120 -60 192 -163 192c-93 0 -176 -61 -190 -138l-41 -231c21 -65 86 -107 163 -107c129 0 231 125 231 284
z" />
    <glyph glyph-name="q" unicode="q" horiz-adv-x="589" 
d="M374 -225l50 285h-2c-36 -45 -96 -75 -163 -75c-128 0 -208 88 -208 229c-3 183 125 335 276 331c75 0 133 -33 166 -78h2l11 63h45l-132 -755h-45zM442 170l42 235c-25 56 -82 98 -157 98c-127 0 -231 -126 -231 -289c0 -116 63 -187 167 -187c82 0 167 66 179 143z" />
    <glyph glyph-name="r" unicode="r" horiz-adv-x="291" 
d="M27 0l94 530h43l-11 -56h2c25 40 67 64 118 64c17 0 31 -2 42 -5l-10 -45c-15 3 -28 5 -39 5c-71 0 -117 -54 -132 -147l-62 -346h-45z" />
    <glyph glyph-name="racute" unicode="&#x155;" horiz-adv-x="291" 
d="M27 0l94 530h43l-11 -56h2c25 40 67 64 118 64c17 0 31 -2 42 -5l-10 -45c-15 3 -28 5 -39 5c-71 0 -117 -54 -132 -147l-62 -346h-45zM178 590l85 106h72l-111 -106h-46z" />
    <glyph glyph-name="rcaron" unicode="&#x159;" horiz-adv-x="291" 
d="M27 0l94 530h43l-11 -56h2c25 40 67 64 118 64c17 0 31 -2 42 -5l-10 -45c-15 3 -28 5 -39 5c-71 0 -117 -54 -132 -147l-62 -346h-45zM294 689l27 -27l-81 -82h-62l-57 88l33 21l55 -87z" />
    <glyph glyph-name="uni0157" unicode="&#x157;" horiz-adv-x="291" 
d="M27 0l94 530h43l-11 -56h2c25 40 67 64 118 64c17 0 31 -2 42 -5l-10 -45c-15 3 -28 5 -39 5c-71 0 -117 -54 -132 -147l-62 -346h-45zM-16 -187l5 28c23 4 33 15 37 39h-32l12 71h78l-11 -62c-9 -47 -38 -73 -89 -76z" />
    <glyph glyph-name="s" unicode="s" horiz-adv-x="504" 
d="M29 182l44 7c13 -109 70 -162 173 -162c89 0 143 41 143 106c0 59 -37 91 -145 128c-115 40 -155 76 -155 140c0 83 72 144 170 144c105 0 182 -60 198 -156l-44 -9c-17 79 -71 123 -154 123c-75 0 -125 -41 -125 -101c0 -44 30 -67 126 -102c128 -44 174 -89 174 -169
c0 -88 -75 -146 -188 -146c-127 0 -206 72 -217 197z" />
    <glyph glyph-name="sacute" unicode="&#x15b;" horiz-adv-x="504" 
d="M29 182l44 7c13 -109 70 -162 173 -162c89 0 143 41 143 106c0 59 -37 91 -145 128c-115 40 -155 76 -155 140c0 83 72 144 170 144c105 0 182 -60 198 -156l-44 -9c-17 79 -71 123 -154 123c-75 0 -125 -41 -125 -101c0 -44 30 -67 126 -102c128 -44 174 -89 174 -169
c0 -88 -75 -146 -188 -146c-127 0 -206 72 -217 197zM244 605l85 106h72l-111 -106h-46z" />
    <glyph glyph-name="scaron" unicode="&#x161;" horiz-adv-x="504" 
d="M29 182l44 7c13 -109 70 -162 173 -162c89 0 143 41 143 106c0 59 -37 91 -145 128c-115 40 -155 76 -155 140c0 83 72 144 170 144c105 0 182 -60 198 -156l-44 -9c-17 79 -71 123 -154 123c-75 0 -125 -41 -125 -101c0 -44 30 -67 126 -102c128 -44 174 -89 174 -169
c0 -88 -75 -146 -188 -146c-127 0 -206 72 -217 197zM360 704l27 -27l-81 -82h-62l-57 88l33 21l55 -87z" />
    <glyph glyph-name="scedilla" unicode="&#x15f;" horiz-adv-x="504" 
d="M29 182l44 7c13 -109 70 -162 173 -162c89 0 143 41 143 106c0 59 -37 91 -145 128c-115 40 -155 76 -155 140c0 83 72 144 170 144c105 0 182 -60 198 -156l-44 -9c-17 79 -71 123 -154 123c-75 0 -125 -41 -125 -101c0 -44 30 -67 126 -102c128 -44 174 -89 174 -169
c0 -88 -75 -146 -188 -146c-127 0 -206 72 -217 197zM339 -126c0 -53 -44 -94 -103 -94c-37 0 -67 13 -92 40l25 24c19 -21 39 -31 67 -31c39 0 69 28 69 61c0 25 -19 40 -48 40c-24 0 -46 -10 -66 -30l-27 16l72 99l31 -7l-44 -58c13 6 26 9 41 9c44 0 75 -28 75 -69z" />
    <glyph glyph-name="scircumflex" unicode="&#x15d;" horiz-adv-x="504" 
d="M29 182l44 7c13 -109 70 -162 173 -162c89 0 143 41 143 106c0 59 -37 91 -145 128c-115 40 -155 76 -155 140c0 83 72 144 170 144c105 0 182 -60 198 -156l-44 -9c-17 79 -71 123 -154 123c-75 0 -125 -41 -125 -101c0 -44 30 -67 126 -102c128 -44 174 -89 174 -169
c0 -88 -75 -146 -188 -146c-127 0 -206 72 -217 197zM374 606l-32 -21l-56 86l-84 -86l-27 27l80 82h62z" />
    <glyph glyph-name="uni0219" unicode="&#x219;" horiz-adv-x="504" 
d="M29 182l44 7c13 -109 70 -162 173 -162c89 0 143 41 143 106c0 59 -37 91 -145 128c-115 40 -155 76 -155 140c0 83 72 144 170 144c105 0 182 -60 198 -156l-44 -9c-17 79 -71 123 -154 123c-75 0 -125 -41 -125 -101c0 -44 30 -67 126 -102c128 -44 174 -89 174 -169
c0 -88 -75 -146 -188 -146c-127 0 -206 72 -217 197zM179 -202l5 28c23 4 33 15 37 39h-32l12 71h78l-11 -62c-9 -47 -38 -73 -89 -76z" />
    <glyph glyph-name="uni1E63" unicode="&#x1e63;" horiz-adv-x="504" 
d="M29 182l44 7c13 -109 70 -162 173 -162c89 0 143 41 143 106c0 59 -37 91 -145 128c-115 40 -155 76 -155 140c0 83 72 144 170 144c105 0 182 -60 198 -156l-44 -9c-17 79 -71 123 -154 123c-75 0 -125 -41 -125 -101c0 -44 30 -67 126 -102c128 -44 174 -89 174 -169
c0 -88 -75 -146 -188 -146c-127 0 -206 72 -217 197zM189 -139l13 75h76l-12 -75h-77z" />
    <glyph glyph-name="germandbls" unicode="&#xdf;" horiz-adv-x="551" 
d="M27 0l89 506c23 133 99 209 214 209c106 0 181 -69 181 -166c0 -79 -46 -140 -129 -164v-2c63 -19 105 -79 105 -152c0 -145 -98 -231 -265 -231h-60l8 42h59c136 0 213 69 213 189c0 81 -53 133 -138 133h-78l8 41h62c108 0 170 55 170 144c0 75 -53 124 -136 124
c-93 0 -151 -63 -172 -183l-86 -490h-45z" />
    <glyph glyph-name="longs" unicode="&#x17f;" horiz-adv-x="246" 
d="M54 0l87 489h-78l7 41h78l12 71c12 66 52 99 121 99h69l-7 -42h-63c-45 0 -68 -19 -76 -66l-105 -592h-45z" />
    <glyph glyph-name="t" unicode="t" horiz-adv-x="311" 
d="M194 490l-69 -397c-1 -9 -2 -15 -2 -18c0 -24 13 -33 48 -33h44l-7 -42h-43c-59 0 -88 24 -88 71c0 9 1 17 3 26l69 393h-86l7 40h86l20 113h45l-20 -113h130l-7 -40h-130z" />
    <glyph glyph-name="tbar" unicode="&#x167;" horiz-adv-x="311" 
d="M194 490l-69 -397c-1 -9 -2 -15 -2 -18c0 -24 13 -33 48 -33h44l-7 -42h-43c-59 0 -88 24 -88 71c0 9 1 17 3 26l69 393h-86l7 40h86l20 113h45l-20 -113h130l-7 -40h-130zM28 265l6 35h251l-6 -35h-251z" />
    <glyph glyph-name="tcaron" unicode="&#x165;" horiz-adv-x="311" 
d="M194 490l-69 -397c-1 -9 -2 -15 -2 -18c0 -24 13 -33 48 -33h44l-7 -42h-43c-59 0 -88 24 -88 71c0 9 1 17 3 26l69 393h-86l7 40h86l20 113h45l-20 -113h130l-7 -40h-130zM280 585l5 28c23 4 33 15 37 39h-32l12 71h78l-11 -62c-9 -47 -38 -73 -89 -76z" />
    <glyph glyph-name="uni0163" unicode="&#x163;" horiz-adv-x="311" 
d="M194 490l-69 -397c-1 -9 -2 -15 -2 -18c0 -24 13 -33 48 -33h44l-7 -42h-43c-59 0 -88 24 -88 71c0 9 1 17 3 26l69 393h-86l7 40h86l20 113h45l-20 -113h130l-7 -40h-130zM220 -112c0 -53 -44 -94 -103 -94c-37 0 -67 13 -92 40l25 24c19 -21 39 -31 67 -31
c39 0 69 28 69 61c0 25 -19 40 -48 40c-24 0 -46 -10 -66 -30l-27 16l72 99l31 -7l-44 -58c13 6 26 9 41 9c44 0 75 -28 75 -69z" />
    <glyph glyph-name="uni021B" unicode="&#x21b;" horiz-adv-x="311" 
d="M194 490l-69 -397c-1 -9 -2 -15 -2 -18c0 -24 13 -33 48 -33h44l-7 -42h-43c-59 0 -88 24 -88 71c0 9 1 17 3 26l69 393h-86l7 40h86l20 113h45l-20 -113h130l-7 -40h-130zM60 -187l5 28c23 4 33 15 37 39h-32l12 71h78l-11 -62c-9 -47 -38 -73 -89 -76z" />
    <glyph glyph-name="uni1E6D" unicode="&#x1e6d;" horiz-adv-x="311" 
d="M194 490l-69 -397c-1 -9 -2 -15 -2 -18c0 -24 13 -33 48 -33h44l-7 -42h-43c-59 0 -88 24 -88 71c0 9 1 17 3 26l69 393h-86l7 40h86l20 113h45l-20 -113h130l-7 -40h-130zM70 -124l13 75h76l-12 -75h-77z" />
    <glyph glyph-name="u" unicode="u" horiz-adv-x="542" 
d="M46 140c0 7 1 20 4 39l61 351h45l-60 -343c-3 -13 -4 -27 -4 -42c0 -76 44 -118 128 -118c48 0 89 15 124 45c35 31 58 70 67 118l59 340h45l-93 -530h-44l12 68h-2c-41 -52 -104 -83 -172 -83c-105 0 -170 62 -170 155z" />
    <glyph glyph-name="uacute" unicode="&#xfa;" horiz-adv-x="542" 
d="M46 140c0 7 1 20 4 39l61 351h45l-60 -343c-3 -13 -4 -27 -4 -42c0 -76 44 -118 128 -118c48 0 89 15 124 45c35 31 58 70 67 118l59 340h45l-93 -530h-44l12 68h-2c-41 -52 -104 -83 -172 -83c-105 0 -170 62 -170 155zM291 590l85 106h72l-111 -106h-46z" />
    <glyph glyph-name="ubreve" unicode="&#x16d;" horiz-adv-x="542" 
d="M46 140c0 7 1 20 4 39l61 351h45l-60 -343c-3 -13 -4 -27 -4 -42c0 -76 44 -118 128 -118c48 0 89 15 124 45c35 31 58 70 67 118l59 340h45l-93 -530h-44l12 68h-2c-41 -52 -104 -83 -172 -83c-105 0 -170 62 -170 155zM226 683h30c5 -40 25 -60 62 -60
c43 0 74 21 91 60h30c-16 -65 -62 -103 -123 -103c-56 0 -91 40 -90 103z" />
    <glyph glyph-name="uni01D4" unicode="&#x1d4;" horiz-adv-x="542" 
d="M46 140c0 7 1 20 4 39l61 351h45l-60 -343c-3 -13 -4 -27 -4 -42c0 -76 44 -118 128 -118c48 0 89 15 124 45c35 31 58 70 67 118l59 340h45l-93 -530h-44l12 68h-2c-41 -52 -104 -83 -172 -83c-105 0 -170 62 -170 155zM407 689l27 -27l-81 -82h-62l-57 88l33 21l55 -87
z" />
    <glyph glyph-name="ucircumflex" unicode="&#xfb;" horiz-adv-x="542" 
d="M46 140c0 7 1 20 4 39l61 351h45l-60 -343c-3 -13 -4 -27 -4 -42c0 -76 44 -118 128 -118c48 0 89 15 124 45c35 31 58 70 67 118l59 340h45l-93 -530h-44l12 68h-2c-41 -52 -104 -83 -172 -83c-105 0 -170 62 -170 155zM421 591l-32 -21l-56 86l-84 -86l-27 27l80 82h62
z" />
    <glyph glyph-name="udieresis" unicode="&#xfc;" horiz-adv-x="542" 
d="M46 140c0 7 1 20 4 39l61 351h45l-60 -343c-3 -13 -4 -27 -4 -42c0 -76 44 -118 128 -118c48 0 89 15 124 45c35 31 58 70 67 118l59 340h45l-93 -530h-44l12 68h-2c-41 -52 -104 -83 -172 -83c-105 0 -170 62 -170 155zM204 580l13 75h76l-12 -75h-77zM370 580l13 75h77
l-13 -75h-77z" />
    <glyph glyph-name="uni01D8" unicode="&#x1d8;" horiz-adv-x="542" 
d="M46 140c0 7 1 20 4 39l61 351h45l-60 -343c-3 -13 -4 -27 -4 -42c0 -76 44 -118 128 -118c48 0 89 15 124 45c35 31 58 70 67 118l59 340h45l-93 -530h-44l12 68h-2c-41 -52 -104 -83 -172 -83c-105 0 -170 62 -170 155zM204 580l13 75h76l-12 -75h-77zM370 580l13 75h77
l-13 -75h-77zM309 695l85 106h72l-111 -106h-46z" />
    <glyph glyph-name="uni01DA" unicode="&#x1da;" horiz-adv-x="542" 
d="M46 140c0 7 1 20 4 39l61 351h45l-60 -343c-3 -13 -4 -27 -4 -42c0 -76 44 -118 128 -118c48 0 89 15 124 45c35 31 58 70 67 118l59 340h45l-93 -530h-44l12 68h-2c-41 -52 -104 -83 -172 -83c-105 0 -170 62 -170 155zM204 580l13 75h76l-12 -75h-77zM370 580l13 75h77
l-13 -75h-77zM425 794l27 -27l-81 -82h-62l-57 88l33 21l55 -87z" />
    <glyph glyph-name="uni01DC" unicode="&#x1dc;" horiz-adv-x="542" 
d="M46 140c0 7 1 20 4 39l61 351h45l-60 -343c-3 -13 -4 -27 -4 -42c0 -76 44 -118 128 -118c48 0 89 15 124 45c35 31 58 70 67 118l59 340h45l-93 -530h-44l12 68h-2c-41 -52 -104 -83 -172 -83c-105 0 -170 62 -170 155zM204 580l13 75h76l-12 -75h-77zM370 580l13 75h77
l-13 -75h-77zM319 695l-73 106h71l47 -106h-45z" />
    <glyph glyph-name="uni01D6" unicode="&#x1d6;" horiz-adv-x="542" 
d="M46 140c0 7 1 20 4 39l61 351h45l-60 -343c-3 -13 -4 -27 -4 -42c0 -76 44 -118 128 -118c48 0 89 15 124 45c35 31 58 70 67 118l59 340h45l-93 -530h-44l12 68h-2c-41 -52 -104 -83 -172 -83c-105 0 -170 62 -170 155zM204 580l13 75h76l-12 -75h-77zM370 580l13 75h77
l-13 -75h-77zM233 695l7 38h243l-8 -38h-242z" />
    <glyph glyph-name="uni1EE5" unicode="&#x1ee5;" horiz-adv-x="542" 
d="M46 140c0 7 1 20 4 39l61 351h45l-60 -343c-3 -13 -4 -27 -4 -42c0 -76 44 -118 128 -118c48 0 89 15 124 45c35 31 58 70 67 118l59 340h45l-93 -530h-44l12 68h-2c-41 -52 -104 -83 -172 -83c-105 0 -170 62 -170 155zM163 -128l13 75h76l-12 -75h-77z" />
    <glyph glyph-name="ugrave" unicode="&#xf9;" horiz-adv-x="542" 
d="M46 140c0 7 1 20 4 39l61 351h45l-60 -343c-3 -13 -4 -27 -4 -42c0 -76 44 -118 128 -118c48 0 89 15 124 45c35 31 58 70 67 118l59 340h45l-93 -530h-44l12 68h-2c-41 -52 -104 -83 -172 -83c-105 0 -170 62 -170 155zM300 590l-73 106h71l47 -106h-45z" />
    <glyph glyph-name="uhungarumlaut" unicode="&#x171;" horiz-adv-x="542" 
d="M46 140c0 7 1 20 4 39l61 351h45l-60 -343c-3 -13 -4 -27 -4 -42c0 -76 44 -118 128 -118c48 0 89 15 124 45c35 31 58 70 67 118l59 340h45l-93 -530h-44l12 68h-2c-41 -52 -104 -83 -172 -83c-105 0 -170 62 -170 155zM230 590l85 106h72l-111 -106h-46zM354 590
l85 106h72l-111 -106h-46z" />
    <glyph glyph-name="umacron" unicode="&#x16b;" horiz-adv-x="542" 
d="M46 140c0 7 1 20 4 39l61 351h45l-60 -343c-3 -13 -4 -27 -4 -42c0 -76 44 -118 128 -118c48 0 89 15 124 45c35 31 58 70 67 118l59 340h45l-93 -530h-44l12 68h-2c-41 -52 -104 -83 -172 -83c-105 0 -170 62 -170 155zM215 590l7 38h243l-8 -38h-242z" />
    <glyph glyph-name="uogonek" unicode="&#x173;" horiz-adv-x="542" 
d="M46 140c0 7 1 20 4 39l61 351h45l-60 -343c-3 -13 -4 -27 -4 -42c0 -76 44 -118 128 -118c48 0 89 15 124 45c35 31 58 70 67 118l59 340h45l-93 -530h-44l12 68h-2c-41 -52 -104 -83 -172 -83c-105 0 -170 62 -170 155zM302 -116c0 45 46 95 125 135l22 -11
c-65 -33 -104 -75 -104 -114c0 -19 12 -29 36 -29c21 0 42 7 63 21l11 -36c-28 -17 -55 -25 -82 -25c-45 0 -71 20 -71 59z" />
    <glyph glyph-name="uring" unicode="&#x16f;" horiz-adv-x="542" 
d="M46 140c0 7 1 20 4 39l61 351h45l-60 -343c-3 -13 -4 -27 -4 -42c0 -76 44 -118 128 -118c48 0 89 15 124 45c35 31 58 70 67 118l59 340h45l-93 -530h-44l12 68h-2c-41 -52 -104 -83 -172 -83c-105 0 -170 62 -170 155zM207 603c0 59 46 103 109 103
c61 0 108 -44 108 -103c0 -60 -45 -104 -108 -104s-109 44 -109 104zM388 603c0 43 -31 72 -72 72c-43 0 -73 -31 -73 -72s30 -73 73 -73c41 0 72 30 72 73z" />
    <glyph glyph-name="utilde" unicode="&#x169;" horiz-adv-x="542" 
d="M46 140c0 7 1 20 4 39l61 351h45l-60 -343c-3 -13 -4 -27 -4 -42c0 -76 44 -118 128 -118c48 0 89 15 124 45c35 31 58 70 67 118l59 340h45l-93 -530h-44l12 68h-2c-41 -52 -104 -83 -172 -83c-105 0 -170 62 -170 155zM323 609c-20 13 -37 19 -50 19
c-21 0 -35 -13 -43 -38h-29c8 47 37 76 76 76c23 0 39 -8 66 -24c20 -13 37 -19 50 -19c21 0 35 13 43 38h29c-8 -47 -37 -76 -76 -76c-23 0 -39 8 -66 24z" />
    <glyph glyph-name="v" unicode="v" horiz-adv-x="522" 
d="M198 0l-133 530h47l114 -466h2l271 466h52l-313 -530h-40z" />
    <glyph glyph-name="w" unicode="w" horiz-adv-x="716" 
d="M105 0l-30 530h45l24 -465h2l224 465h48l79 -465h2l189 465h47l-217 -530h-49l-81 474h-2l-229 -474h-52z" />
    <glyph glyph-name="wacute" unicode="&#x1e83;" horiz-adv-x="716" 
d="M105 0l-30 530h45l24 -465h2l224 465h48l79 -465h2l189 465h47l-217 -530h-49l-81 474h-2l-229 -474h-52zM369 590l85 106h72l-111 -106h-46z" />
    <glyph glyph-name="wcircumflex" unicode="&#x175;" horiz-adv-x="716" 
d="M105 0l-30 530h45l24 -465h2l224 465h48l79 -465h2l189 465h47l-217 -530h-49l-81 474h-2l-229 -474h-52zM499 591l-32 -21l-56 86l-84 -86l-27 27l80 82h62z" />
    <glyph glyph-name="wdieresis" unicode="&#x1e85;" horiz-adv-x="716" 
d="M105 0l-30 530h45l24 -465h2l224 465h48l79 -465h2l189 465h47l-217 -530h-49l-81 474h-2l-229 -474h-52zM282 580l13 75h76l-12 -75h-77zM448 580l13 75h77l-13 -75h-77z" />
    <glyph glyph-name="wgrave" unicode="&#x1e81;" horiz-adv-x="716" 
d="M105 0l-30 530h45l24 -465h2l224 465h48l79 -465h2l189 465h47l-217 -530h-49l-81 474h-2l-229 -474h-52zM378 590l-73 106h71l47 -106h-45z" />
    <glyph glyph-name="x" unicode="x" horiz-adv-x="465" 
d="M-24 0l229 270l-128 260h49l109 -226h2l190 226h56l-222 -260l134 -270h-50l-114 236h-2l-196 -236h-57z" />
    <glyph glyph-name="y" unicode="y" horiz-adv-x="496" 
d="M24 -225l162 269l-121 486h46l104 -434h2l257 434h51l-454 -755h-47z" />
    <glyph glyph-name="yacute" unicode="&#xfd;" horiz-adv-x="496" 
d="M24 -225l162 269l-121 486h46l104 -434h2l257 434h51l-454 -755h-47zM267 590l85 106h72l-111 -106h-46z" />
    <glyph glyph-name="ycircumflex" unicode="&#x177;" horiz-adv-x="496" 
d="M24 -225l162 269l-121 486h46l104 -434h2l257 434h51l-454 -755h-47zM397 591l-32 -21l-56 86l-84 -86l-27 27l80 82h62z" />
    <glyph glyph-name="ydieresis" unicode="&#xff;" horiz-adv-x="496" 
d="M24 -225l162 269l-121 486h46l104 -434h2l257 434h51l-454 -755h-47zM180 580l13 75h76l-12 -75h-77zM346 580l13 75h77l-13 -75h-77z" />
    <glyph glyph-name="uni1EF5" unicode="&#x1ef5;" horiz-adv-x="496" 
d="M24 -225l162 269l-121 486h46l104 -434h2l257 434h51l-454 -755h-47zM221 -124l13 75h76l-12 -75h-77z" />
    <glyph glyph-name="ygrave" unicode="&#x1ef3;" horiz-adv-x="496" 
d="M24 -225l162 269l-121 486h46l104 -434h2l257 434h51l-454 -755h-47zM276 590l-73 106h71l47 -106h-45z" />
    <glyph glyph-name="uni1EF9" unicode="&#x1ef9;" horiz-adv-x="496" 
d="M24 -225l162 269l-121 486h46l104 -434h2l257 434h51l-454 -755h-47zM299 609c-20 13 -37 19 -50 19c-21 0 -35 -13 -43 -38h-29c8 47 37 76 76 76c23 0 39 -8 66 -24c20 -13 37 -19 50 -19c21 0 35 13 43 38h29c-8 -47 -37 -76 -76 -76c-23 0 -39 8 -66 24z" />
    <glyph glyph-name="z" unicode="z" horiz-adv-x="483" 
d="M-20 0l7 39l438 448v2h-348l8 41h408l-7 -39l-437 -448v-2h368l-8 -41h-429z" />
    <glyph glyph-name="zacute" unicode="&#x17a;" horiz-adv-x="483" 
d="M-20 0l7 39l438 448v2h-348l8 41h408l-7 -39l-437 -448v-2h368l-8 -41h-429zM264 590l85 106h72l-111 -106h-46z" />
    <glyph glyph-name="zcaron" unicode="&#x17e;" horiz-adv-x="483" 
d="M-20 0l7 39l438 448v2h-348l8 41h408l-7 -39l-437 -448v-2h368l-8 -41h-429zM380 689l27 -27l-81 -82h-62l-57 88l33 21l55 -87z" />
    <glyph glyph-name="zdotaccent" unicode="&#x17c;" horiz-adv-x="483" 
d="M-20 0l7 39l438 448v2h-348l8 41h408l-7 -39l-437 -448v-2h368l-8 -41h-429zM272 625l11 65h67l-11 -65h-67z" />
    <glyph glyph-name="uni1E93" unicode="&#x1e93;" horiz-adv-x="483" 
d="M-20 0l7 39l438 448v2h-348l8 41h408l-7 -39l-437 -448v-2h368l-8 -41h-429zM138 -124l13 75h76l-12 -75h-77z" />
    <glyph glyph-name="A.ordn" horiz-adv-x="304" 
d="M70 543c0 94 66 164 147 164c37 0 68 -15 88 -36h1l5 29h37l-49 -276h-34l6 31h-1c-19 -23 -53 -37 -86 -37c-68 0 -114 48 -114 125zM277 517l21 113c-13 25 -40 43 -79 43c-63 0 -111 -54 -111 -130c0 -57 30 -91 81 -91c41 0 81 26 88 65z" />
    <glyph glyph-name="B.ccmp" horiz-adv-x="309" 
d="M104 459h-1l-6 -35h-36l67 380h38l-23 -129h1c23 21 50 32 82 32c69 0 118 -50 118 -125c0 -94 -65 -165 -149 -165c-35 0 -68 15 -91 42zM306 582c0 55 -33 91 -84 91c-44 0 -85 -30 -92 -67l-18 -106c19 -31 50 -48 83 -48c64 0 111 55 111 130z" />
    <glyph glyph-name="C.ccmp" horiz-adv-x="299" 
d="M70 543c0 95 65 164 149 164c64 0 107 -40 116 -103l-37 -5c-7 47 -35 74 -79 74c-65 0 -111 -55 -111 -130c0 -56 31 -92 82 -92c47 0 81 27 100 72l34 -13c-24 -59 -70 -93 -134 -93c-72 0 -120 51 -120 126z" />
    <glyph glyph-name="D.ccmp" horiz-adv-x="304" 
d="M70 543c0 94 66 164 147 164c37 0 67 -15 87 -36h1l24 133h37l-67 -380h-34l6 31h-1c-19 -23 -53 -37 -86 -37c-68 0 -114 48 -114 125zM278 518l20 111c-12 25 -39 44 -79 44c-63 0 -111 -54 -111 -130c0 -57 30 -91 81 -91c41 0 82 27 89 66z" />
    <glyph glyph-name="E.ccmp" horiz-adv-x="300" 
d="M332 549h-225v-7c0 -57 29 -92 84 -92c39 0 71 19 98 57l28 -22c-31 -43 -75 -68 -126 -68c-75 0 -122 48 -122 125c0 91 65 165 148 165c71 0 118 -48 118 -124c0 -11 -1 -23 -3 -34zM111 581h186c5 55 -29 93 -80 93c-53 0 -93 -41 -106 -93z" />
    <glyph glyph-name="F.ccmp" horiz-adv-x="177" 
d="M82 424l43 243h-46l6 33h46l5 34c7 40 33 60 76 60h43l-6 -34h-36c-24 0 -36 -10 -40 -34l-5 -26h78l-6 -33h-77l-44 -243h-37z" />
    <glyph glyph-name="G.ccmp" horiz-adv-x="309" 
d="M62 371l32 16c14 -38 40 -57 79 -57c49 0 83 34 92 91l5 29h-1c-19 -20 -48 -32 -79 -32c-75 0 -120 48 -120 125c0 93 65 164 152 164c35 0 66 -15 86 -39h1l6 32h36l-48 -281c-15 -79 -61 -123 -130 -123c-55 0 -94 27 -111 75zM281 517l19 106c-13 31 -42 50 -78 50
c-65 0 -114 -55 -114 -130c0 -57 32 -91 85 -91c43 0 83 28 88 65z" />
    <glyph glyph-name="H.ccmp" horiz-adv-x="299" 
d="M61 424l67 380h38l-25 -137h1c23 24 57 40 93 40c60 0 96 -33 96 -85c0 -5 -1 -12 -2 -23l-31 -175h-37l30 172c1 9 2 16 2 19c0 37 -24 58 -67 58c-48 0 -90 -36 -99 -84l-28 -165h-38z" />
    <glyph glyph-name="I.ordn" horiz-adv-x="115" 
d="M119 747l7 46h48l-7 -46h-48zM69 424l48 276h37l-48 -276h-37z" />
    <glyph glyph-name="J.ordn" horiz-adv-x="117" 
d="M120 747l8 46h49l-8 -46h-49zM-1 337l6 35h22c24 0 34 8 38 32l53 296h37l-53 -304c-8 -43 -29 -59 -74 -59h-29z" />
    <glyph glyph-name="K.ccmp" horiz-adv-x="250" 
d="M321 700l-123 -110l76 -166h-40l-64 142h-1l-54 -48l-16 -94h-38l68 380h37l-42 -233h1l142 129h54z" />
    <glyph glyph-name="L.ccmp" horiz-adv-x="103" 
d="M61 424l67 380h38l-67 -380h-38z" />
    <glyph glyph-name="M.ccmp" horiz-adv-x="439" 
d="M474 629c0 -4 -1 -10 -2 -18l-33 -187h-37l32 186c1 7 2 12 2 15c0 29 -21 48 -56 48c-41 0 -73 -27 -80 -70l-32 -179h-36l33 186c1 3 1 7 1 13c0 31 -23 50 -56 50c-40 0 -73 -30 -80 -71l-31 -178h-38l49 276h37l-5 -26h1c19 20 47 33 78 33c35 0 63 -18 74 -43h1
c20 27 53 43 89 43c53 0 89 -31 89 -78z" />
    <glyph glyph-name="N.ccmp" horiz-adv-x="300" 
d="M62 424l48 276h36l-6 -35h1c23 25 58 42 95 42c60 0 96 -33 96 -85c0 -5 -1 -12 -2 -23l-31 -175h-37l30 172c1 9 2 16 2 19c0 37 -24 58 -67 58c-48 0 -90 -36 -99 -84l-28 -165h-38z" />
    <glyph glyph-name="O.ordn" horiz-adv-x="309" 
d="M70 543c0 95 65 164 152 164c73 0 121 -50 121 -125c0 -96 -64 -165 -150 -165c-73 0 -123 50 -123 126zM306 582c0 55 -33 91 -84 91c-67 0 -114 -55 -114 -130c0 -56 33 -92 85 -92c65 0 113 55 113 131z" />
    <glyph glyph-name="P.ccmp" horiz-adv-x="309" 
d="M40 303l70 397h37l-4 -26h1c20 20 51 33 82 33c71 0 118 -50 118 -125c0 -94 -65 -165 -149 -165c-35 0 -66 15 -89 40h-1l-27 -154h-38zM307 582c0 55 -33 91 -84 91c-44 0 -86 -31 -94 -75l-17 -99c19 -31 50 -48 83 -48c64 0 112 55 112 131z" />
    <glyph glyph-name="Q.ccmp" horiz-adv-x="304" 
d="M310 700h37l-69 -397h-38l27 148h-1c-19 -20 -48 -33 -83 -33c-67 0 -113 47 -113 122c0 96 65 167 146 167c37 0 68 -15 88 -36h1zM277 517l21 113c-13 25 -40 43 -80 43c-61 0 -110 -54 -110 -131c0 -56 30 -90 81 -90c41 0 81 26 88 65z" />
    <glyph glyph-name="R.ccmp" horiz-adv-x="165" 
d="M239 700l-7 -34c-12 3 -21 4 -28 4c-39 0 -68 -33 -77 -88l-28 -158h-38l49 276h36l-5 -27h1c16 20 39 31 66 31c10 0 20 -1 31 -4z" />
    <glyph glyph-name="S.ccmp" horiz-adv-x="288" 
d="M73 517l34 8c8 -51 37 -76 87 -76c41 0 70 22 70 51c0 25 -18 38 -71 54c-65 19 -89 39 -89 78c0 43 40 75 95 75c60 0 103 -30 112 -82l-34 -7c-8 37 -35 57 -78 57c-35 0 -59 -17 -59 -42c0 -23 15 -34 67 -49c67 -19 93 -43 93 -83c0 -49 -43 -84 -106 -84
c-68 0 -114 39 -121 100z" />
    <glyph glyph-name="T.ccmp" horiz-adv-x="167" 
d="M157 666l-32 -183c-3 -17 4 -23 25 -23h34l-6 -36h-31c-41 0 -61 14 -61 43c0 3 1 9 2 17l32 182h-41l6 34h40l11 61h38l-11 -61h72l-6 -34h-72z" />
    <glyph glyph-name="U.ccmp" horiz-adv-x="289" 
d="M295 700h38l-49 -276h-36l5 31h-1c-22 -25 -51 -38 -87 -38c-57 0 -93 31 -93 84c0 5 1 13 2 24l31 175h38l-31 -174c-1 -11 -2 -18 -2 -21c0 -36 23 -54 63 -54c49 0 84 33 93 84z" />
    <glyph glyph-name="V.ccmp" horiz-adv-x="290" 
d="M157 424l-67 276h39l50 -223h1l130 223h44l-165 -276h-32z" />
    <glyph glyph-name="W.ccmp" horiz-adv-x="405" 
d="M111 424l-21 276h38l14 -221h1l118 221h36l39 -221h1l92 221h40l-116 -276h-38l-42 229h-1l-123 -229h-38z" />
    <glyph glyph-name="X.ccmp" horiz-adv-x="280" 
d="M342 700l-125 -135l78 -141h-43l-60 114h-1l-99 -114h-51l128 141l-74 135h43l56 -108h1l96 108h51z" />
    <glyph glyph-name="Y.ccmp" horiz-adv-x="284" 
d="M304 700h44l-240 -397h-43l91 150l-66 247h40l51 -204h1z" />
    <glyph glyph-name="Z.ccmp" horiz-adv-x="272" 
d="M42 424l4 31l225 210v1h-181l6 34h235l-4 -31l-225 -210v-1h191l-6 -34h-245z" />
    <glyph glyph-name="a.salt" horiz-adv-x="520" 
d="M33 112c0 96 56 143 217 185c128 32 168 61 172 120c3 52 -45 87 -121 87c-91 0 -158 -51 -183 -138l-45 11c31 105 118 168 229 168c100 0 167 -53 167 -130c0 -11 -1 -20 -2 -26l-68 -389h-43l14 77h-2c-37 -55 -112 -92 -185 -92c-95 0 -150 47 -150 127zM384 172
l29 159h-2c-23 -29 -61 -47 -152 -72c-133 -35 -181 -73 -181 -144c0 -59 36 -88 109 -88c94 0 183 66 197 145z" />
    <glyph glyph-name="aacute.salt" horiz-adv-x="520" 
d="M33 112c0 96 56 143 217 185c128 32 168 61 172 120c3 52 -45 87 -121 87c-91 0 -158 -51 -183 -138l-45 11c31 105 118 168 229 168c100 0 167 -53 167 -130c0 -11 -1 -20 -2 -26l-68 -389h-43l14 77h-2c-37 -55 -112 -92 -185 -92c-95 0 -150 47 -150 127zM384 172
l29 159h-2c-23 -29 -61 -47 -152 -72c-133 -35 -181 -73 -181 -144c0 -59 36 -88 109 -88c94 0 183 66 197 145zM277 605l85 106h72l-111 -106h-46z" />
    <glyph glyph-name="abreve.salt" horiz-adv-x="520" 
d="M33 112c0 96 56 143 217 185c128 32 168 61 172 120c3 52 -45 87 -121 87c-91 0 -158 -51 -183 -138l-45 11c31 105 118 168 229 168c100 0 167 -53 167 -130c0 -11 -1 -20 -2 -26l-68 -389h-43l14 77h-2c-37 -55 -112 -92 -185 -92c-95 0 -150 47 -150 127zM384 172
l29 159h-2c-23 -29 -61 -47 -152 -72c-133 -35 -181 -73 -181 -144c0 -59 36 -88 109 -88c94 0 183 66 197 145zM212 698h30c5 -40 25 -60 62 -60c43 0 74 21 91 60h30c-16 -65 -62 -103 -123 -103c-56 0 -91 40 -90 103z" />
    <glyph glyph-name="uni01CE.salt" horiz-adv-x="520" 
d="M33 112c0 96 56 143 217 185c128 32 168 61 172 120c3 52 -45 87 -121 87c-91 0 -158 -51 -183 -138l-45 11c31 105 118 168 229 168c100 0 167 -53 167 -130c0 -11 -1 -20 -2 -26l-68 -389h-43l14 77h-2c-37 -55 -112 -92 -185 -92c-95 0 -150 47 -150 127zM384 172
l29 159h-2c-23 -29 -61 -47 -152 -72c-133 -35 -181 -73 -181 -144c0 -59 36 -88 109 -88c94 0 183 66 197 145zM393 704l27 -27l-81 -82h-62l-57 88l33 21l55 -87z" />
    <glyph glyph-name="acircumflex.salt" horiz-adv-x="520" 
d="M33 112c0 96 56 143 217 185c128 32 168 61 172 120c3 52 -45 87 -121 87c-91 0 -158 -51 -183 -138l-45 11c31 105 118 168 229 168c100 0 167 -53 167 -130c0 -11 -1 -20 -2 -26l-68 -389h-43l14 77h-2c-37 -55 -112 -92 -185 -92c-95 0 -150 47 -150 127zM384 172
l29 159h-2c-23 -29 -61 -47 -152 -72c-133 -35 -181 -73 -181 -144c0 -59 36 -88 109 -88c94 0 183 66 197 145zM407 606l-32 -21l-56 86l-84 -86l-27 27l80 82h62z" />
    <glyph glyph-name="uni1EAD.salt" horiz-adv-x="520" 
d="M33 112c0 96 56 143 217 185c128 32 168 61 172 120c3 52 -45 87 -121 87c-91 0 -158 -51 -183 -138l-45 11c31 105 118 168 229 168c100 0 167 -53 167 -130c0 -11 -1 -20 -2 -26l-68 -389h-43l14 77h-2c-37 -55 -112 -92 -185 -92c-95 0 -150 47 -150 127zM384 172
l29 159h-2c-23 -29 -61 -47 -152 -72c-133 -35 -181 -73 -181 -144c0 -59 36 -88 109 -88c94 0 183 66 197 145zM407 606l-32 -21l-56 86l-84 -86l-27 27l80 82h62zM146 -139l13 75h76l-12 -75h-77z" />
    <glyph glyph-name="adieresis.salt" horiz-adv-x="520" 
d="M33 112c0 96 56 143 217 185c128 32 168 61 172 120c3 52 -45 87 -121 87c-91 0 -158 -51 -183 -138l-45 11c31 105 118 168 229 168c100 0 167 -53 167 -130c0 -11 -1 -20 -2 -26l-68 -389h-43l14 77h-2c-37 -55 -112 -92 -185 -92c-95 0 -150 47 -150 127zM384 172
l29 159h-2c-23 -29 -61 -47 -152 -72c-133 -35 -181 -73 -181 -144c0 -59 36 -88 109 -88c94 0 183 66 197 145zM190 595l13 75h76l-12 -75h-77zM356 595l13 75h77l-13 -75h-77z" />
    <glyph glyph-name="uni01DF.salt" horiz-adv-x="520" 
d="M33 112c0 96 56 143 217 185c128 32 168 61 172 120c3 52 -45 87 -121 87c-91 0 -158 -51 -183 -138l-45 11c31 105 118 168 229 168c100 0 167 -53 167 -130c0 -11 -1 -20 -2 -26l-68 -389h-43l14 77h-2c-37 -55 -112 -92 -185 -92c-95 0 -150 47 -150 127zM384 172
l29 159h-2c-23 -29 -61 -47 -152 -72c-133 -35 -181 -73 -181 -144c0 -59 36 -88 109 -88c94 0 183 66 197 145zM190 595l13 75h76l-12 -75h-77zM356 595l13 75h77l-13 -75h-77zM219 710l7 38h243l-8 -38h-242z" />
    <glyph glyph-name="uni1EA1.salt" horiz-adv-x="520" 
d="M33 112c0 96 56 143 217 185c128 32 168 61 172 120c3 52 -45 87 -121 87c-91 0 -158 -51 -183 -138l-45 11c31 105 118 168 229 168c100 0 167 -53 167 -130c0 -11 -1 -20 -2 -26l-68 -389h-43l14 77h-2c-37 -55 -112 -92 -185 -92c-95 0 -150 47 -150 127zM384 172
l29 159h-2c-23 -29 -61 -47 -152 -72c-133 -35 -181 -73 -181 -144c0 -59 36 -88 109 -88c94 0 183 66 197 145zM146 -139l13 75h76l-12 -75h-77z" />
    <glyph glyph-name="agrave.salt" horiz-adv-x="520" 
d="M33 112c0 96 56 143 217 185c128 32 168 61 172 120c3 52 -45 87 -121 87c-91 0 -158 -51 -183 -138l-45 11c31 105 118 168 229 168c100 0 167 -53 167 -130c0 -11 -1 -20 -2 -26l-68 -389h-43l14 77h-2c-37 -55 -112 -92 -185 -92c-95 0 -150 47 -150 127zM384 172
l29 159h-2c-23 -29 -61 -47 -152 -72c-133 -35 -181 -73 -181 -144c0 -59 36 -88 109 -88c94 0 183 66 197 145zM286 605l-73 106h71l47 -106h-45z" />
    <glyph glyph-name="amacron.salt" horiz-adv-x="520" 
d="M33 112c0 96 56 143 217 185c128 32 168 61 172 120c3 52 -45 87 -121 87c-91 0 -158 -51 -183 -138l-45 11c31 105 118 168 229 168c100 0 167 -53 167 -130c0 -11 -1 -20 -2 -26l-68 -389h-43l14 77h-2c-37 -55 -112 -92 -185 -92c-95 0 -150 47 -150 127zM384 172
l29 159h-2c-23 -29 -61 -47 -152 -72c-133 -35 -181 -73 -181 -144c0 -59 36 -88 109 -88c94 0 183 66 197 145zM201 605l7 38h243l-8 -38h-242z" />
    <glyph glyph-name="aogonek.salt" horiz-adv-x="520" 
d="M33 112c0 96 56 143 217 185c128 32 168 61 172 120c3 52 -45 87 -121 87c-91 0 -158 -51 -183 -138l-45 11c31 105 118 168 229 168c100 0 167 -53 167 -130c0 -11 -1 -20 -2 -26l-68 -389h-43l14 77h-2c-37 -55 -112 -92 -185 -92c-95 0 -150 47 -150 127zM384 172
l29 159h-2c-23 -29 -61 -47 -152 -72c-133 -35 -181 -73 -181 -144c0 -59 36 -88 109 -88c94 0 183 66 197 145zM250 -124c0 45 46 95 125 135l22 -11c-65 -33 -104 -75 -104 -114c0 -19 12 -29 36 -29c21 0 42 7 63 21l11 -36c-28 -17 -55 -25 -82 -25c-45 0 -71 20 -71 59
z" />
    <glyph glyph-name="aring.salt" horiz-adv-x="520" 
d="M198 676c0 55 42 96 101 96c57 0 100 -41 100 -96s-43 -96 -100 -96c-59 0 -101 41 -101 96zM366 676c0 39 -28 67 -67 67s-68 -28 -68 -67s29 -68 68 -68s67 29 67 68zM35 112c0 96 56 143 217 185c128 32 168 61 172 120c3 52 -45 87 -121 87c-91 0 -158 -51 -183 -138
l-45 11c31 105 118 168 229 168c100 0 167 -53 167 -130c0 -11 -1 -20 -2 -26l-68 -389h-43l14 77h-2c-37 -55 -112 -92 -185 -92c-95 0 -150 47 -150 127zM386 172l29 159h-2c-23 -29 -61 -47 -152 -72c-133 -35 -181 -73 -181 -144c0 -59 36 -88 109 -88
c94 0 183 66 197 145z" />
    <glyph glyph-name="aringacute.salt" horiz-adv-x="518" 
d="M198 676c0 47 30 83 77 94l75 93h72l-98 -94c45 -11 75 -46 75 -93c0 -55 -43 -96 -100 -96c-59 0 -101 41 -101 96zM231 676c0 -39 29 -68 68 -68s67 29 67 68s-28 67 -67 67s-68 -28 -68 -67zM469 415c0 -11 -1 -20 -2 -26l-68 -389h-43l14 77h-2
c-37 -55 -112 -92 -185 -92c-95 0 -150 47 -150 127c0 96 56 143 217 185c128 32 168 61 172 120c3 52 -45 87 -121 87c-91 0 -158 -51 -183 -138l-45 11c31 105 118 168 229 168c100 0 167 -53 167 -130zM384 172l29 159h-2c-23 -29 -61 -47 -152 -72
c-133 -35 -181 -73 -181 -144c0 -59 36 -88 109 -88c94 0 183 66 197 145z" />
    <glyph glyph-name="atilde.salt" horiz-adv-x="520" 
d="M33 112c0 96 56 143 217 185c128 32 168 61 172 120c3 52 -45 87 -121 87c-91 0 -158 -51 -183 -138l-45 11c31 105 118 168 229 168c100 0 167 -53 167 -130c0 -11 -1 -20 -2 -26l-68 -389h-43l14 77h-2c-37 -55 -112 -92 -185 -92c-95 0 -150 47 -150 127zM384 172
l29 159h-2c-23 -29 -61 -47 -152 -72c-133 -35 -181 -73 -181 -144c0 -59 36 -88 109 -88c94 0 183 66 197 145zM309 624c-20 13 -37 19 -50 19c-21 0 -35 -13 -43 -38h-29c8 47 37 76 76 76c23 0 39 -8 66 -24c20 -13 37 -19 50 -19c21 0 35 13 43 38h29
c-8 -47 -37 -76 -76 -76c-23 0 -39 8 -66 24z" />
    <glyph glyph-name="aring.ss02" horiz-adv-x="520" 
d="M33 112c0 96 56 143 217 185c128 32 168 61 172 120c3 52 -45 87 -121 87c-91 0 -158 -51 -183 -138l-45 11c31 105 118 168 229 168c100 0 167 -53 167 -130c0 -11 -1 -20 -2 -26l-68 -389h-43l14 77h-2c-37 -55 -112 -92 -185 -92c-95 0 -150 47 -150 127zM384 172
l29 159h-2c-23 -29 -61 -47 -152 -72c-133 -35 -181 -73 -181 -144c0 -59 36 -88 109 -88c94 0 183 66 197 145zM193 618c0 59 46 103 109 103c61 0 108 -44 108 -103c0 -60 -45 -104 -108 -104s-109 44 -109 104zM374 618c0 43 -31 72 -72 72c-43 0 -73 -31 -73 -72
s30 -73 73 -73c41 0 72 30 72 73z" />
    <glyph glyph-name="aringacute.ss02" horiz-adv-x="520" 
d="M277 707l85 106h72l-111 -106h-46zM33 112c0 96 56 143 217 185c128 32 168 61 172 120c3 52 -45 87 -121 87c-91 0 -158 -51 -183 -138l-45 11c31 105 118 168 229 168c100 0 167 -53 167 -130c0 -11 -1 -20 -2 -26l-68 -389h-43l14 77h-2c-37 -55 -112 -92 -185 -92
c-95 0 -150 47 -150 127zM384 172l29 159h-2c-23 -29 -61 -47 -152 -72c-133 -35 -181 -73 -181 -144c0 -59 36 -88 109 -88c94 0 183 66 197 145zM193 618c0 59 46 103 109 103c61 0 108 -44 108 -103c0 -60 -45 -104 -108 -104s-109 44 -109 104zM374 618
c0 43 -31 72 -72 72c-43 0 -73 -31 -73 -72s30 -73 73 -73c41 0 72 30 72 73z" />
    <glyph glyph-name="f.ss03" horiz-adv-x="284" 
d="M65 0l86 490h-88l8 40h88l11 65c11 66 51 99 120 99h70l-8 -43h-62c-45 0 -68 -19 -77 -66l-9 -55h113l-7 -40h-114l-86 -490h-45z" />
    <glyph glyph-name="j.ss03" horiz-adv-x="194" 
d="M126 625l11 65h67l-11 -65h-67zM-9 -225l132 755h45l-132 -755h-45z" />
    <glyph glyph-name="t.ss03" horiz-adv-x="303" 
d="M194 490l-69 -397c-1 -9 -2 -15 -2 -18c0 -24 13 -33 48 -33h44l-7 -42h-43c-59 0 -88 24 -88 71c0 9 1 17 3 26l69 393h-86l7 40h86l20 113h45l-20 -113h122l-7 -40h-122z" />
    <glyph glyph-name="ordfeminine" unicode="&#xaa;" horiz-adv-x="304" 
d="M70 543c0 94 66 164 147 164c37 0 68 -15 88 -36h1l5 29h37l-49 -276h-34l6 31h-1c-19 -23 -53 -37 -86 -37c-68 0 -114 48 -114 125zM277 517l21 113c-13 25 -40 43 -79 43c-63 0 -111 -54 -111 -130c0 -57 30 -91 81 -91c41 0 81 26 88 65z" />
    <glyph glyph-name="ordmasculine" unicode="&#xba;" horiz-adv-x="309" 
d="M70 543c0 95 65 164 152 164c73 0 121 -50 121 -125c0 -96 -64 -165 -150 -165c-73 0 -123 50 -123 126zM306 582c0 55 -33 91 -84 91c-67 0 -114 -55 -114 -130c0 -56 33 -92 85 -92c65 0 113 55 113 131z" />
    <glyph glyph-name="uni0394" unicode="&#x394;" horiz-adv-x="571" 
d="M386 700l136 -700h-567l384 700h47zM29 42h437l-112 595h-2z" />
    <glyph glyph-name="uni03A9" unicode="&#x3a9;" horiz-adv-x="697" 
d="M459 43v-2h148l-7 -41h-247l7 41c150 30 258 194 258 379c0 150 -85 250 -213 250c-165 4 -300 -175 -297 -390c0 -62 15 -115 45 -158c31 -43 70 -70 117 -80l-7 -42h-239l7 41h156v2c-80 37 -127 134 -127 239c-4 240 152 437 345 433c154 0 261 -118 261 -291
c0 -89 -19 -168 -57 -236c-37 -68 -87 -116 -150 -145z" />
    <glyph glyph-name="uni03BC" unicode="&#x3bc;" horiz-adv-x="553" 
d="M-12 -225l133 755h46l-63 -351c-2 -13 -3 -25 -3 -36c0 -73 48 -116 129 -116c48 0 90 15 125 45c35 31 57 70 65 118l60 340h45l-93 -530h-44l13 74h-2c-40 -56 -105 -89 -173 -89c-71 0 -120 28 -140 79h-2l-51 -289h-45z" />
    <glyph glyph-name="pi" unicode="&#x3c0;" horiz-adv-x="617" 
d="M529 488l-69 -395c-1 -9 -2 -15 -2 -18c0 -24 13 -33 48 -33h44l-7 -42h-43c-59 0 -88 24 -88 71c0 9 1 17 3 26l69 391h-272l-86 -488h-45l86 488h-104l7 42h566l-7 -42h-100z" />
    <glyph glyph-name="zero" unicode="0" 
d="M56 257c-3 236 142 433 331 429c144 0 233 -99 233 -270c3 -236 -141 -434 -330 -430c-144 0 -234 100 -234 271zM575 416c0 145 -72 228 -189 228c-161 4 -288 -177 -285 -387c0 -147 72 -229 189 -229c161 -4 287 178 285 388z" />
    <glyph glyph-name="one" unicode="1" horiz-adv-x="353" 
d="M151 0l110 616l-181 -104l7 53l188 107h41l-119 -672h-46z" />
    <glyph glyph-name="two" unicode="2" horiz-adv-x="610" 
d="M93 69l-5 -27h407l-7 -42h-455l12 67c29 125 59 160 259 248c179 77 237 127 237 211c0 73 -62 118 -159 118c-121 0 -209 -70 -236 -185l-44 9c14 65 46 118 97 158s112 60 183 60c123 0 204 -62 204 -161c0 -100 -65 -164 -259 -246c-190 -84 -207 -105 -234 -210z" />
    <glyph glyph-name="three" unicode="3" horiz-adv-x="599" 
d="M49 219l45 4c0 -127 65 -195 182 -195c112 0 198 80 198 181c0 89 -55 133 -166 133h-45l6 40h47c109 0 194 67 194 152c0 68 -54 110 -142 110c-101 0 -174 -54 -203 -146l-43 11c32 107 125 177 246 177c111 0 187 -58 187 -149c0 -81 -56 -145 -147 -172v-3
c69 -20 111 -73 111 -152c0 -126 -105 -224 -243 -224c-141 0 -227 86 -227 233z" />
    <glyph glyph-name="four" unicode="4" horiz-adv-x="578" 
d="M346 0l26 140h-378l7 41l435 491h75l-88 -490h97l-5 -42h-98l-25 -140h-46zM53 182h325l82 454h-2z" />
    <glyph glyph-name="five" unicode="5" horiz-adv-x="580" 
d="M30 175l44 8c13 -100 75 -155 180 -155c131 0 236 110 236 235c0 95 -65 154 -169 154c-75 0 -144 -30 -207 -90l-39 12l120 333h356l-7 -42h-319l-85 -236l2 -1c55 43 116 64 181 64c129 0 212 -76 212 -195c3 -147 -129 -279 -280 -276c-129 0 -212 72 -225 189z" />
    <glyph glyph-name="six" unicode="6" horiz-adv-x="605" 
d="M53 238c-3 251 150 452 341 448c112 0 189 -67 204 -175l-46 -8c-16 92 -70 141 -157 141c-152 0 -272 -145 -290 -353h2c17 47 47 85 90 113c43 29 92 43 146 43c129 0 217 -78 217 -192c0 -151 -118 -269 -273 -269c-145 0 -234 95 -234 252zM515 255
c0 92 -68 151 -171 151c-129 0 -232 -98 -232 -221c0 -93 70 -157 174 -157c130 0 229 99 229 227z" />
    <glyph glyph-name="seven" unicode="7" horiz-adv-x="506" 
d="M60 4l414 627v2h-388l8 43h442l-6 -40l-416 -632h-54z" />
    <glyph glyph-name="eight" unicode="8" horiz-adv-x="568" 
d="M15 161c0 51 18 94 53 130c35 37 82 61 139 73v2c-60 27 -93 70 -93 129c0 108 101 191 236 191c57 0 104 -14 139 -43c36 -29 54 -66 54 -113c0 -84 -58 -146 -147 -170v-3c77 -25 127 -81 127 -156c0 -128 -117 -216 -276 -216c-138 0 -232 69 -232 176zM499 530
c0 68 -59 115 -148 115c-112 0 -193 -61 -193 -152c0 -67 58 -113 147 -113c112 0 194 62 194 150zM477 203c0 81 -73 135 -186 135c-135 0 -230 -72 -230 -175c0 -81 73 -135 186 -135c134 0 230 72 230 175z" />
    <glyph glyph-name="nine" unicode="9" horiz-adv-x="585" 
d="M49 157l45 10c13 -95 66 -139 157 -139c134 0 235 141 253 344h-2c-36 -83 -120 -137 -224 -137c-125 0 -207 76 -207 192c-2 143 117 262 266 259c135 0 221 -88 221 -231c3 -268 -127 -474 -307 -470c-115 0 -187 63 -202 172zM504 493c0 44 -16 80 -47 108
s-71 42 -120 42c-123 0 -220 -93 -220 -215c0 -93 64 -151 161 -151c126 0 226 95 226 216z" />
    <glyph glyph-name="zero.ccmp" horiz-adv-x="651" 
d="M58 263c-3 248 143 457 334 452c143 0 231 -103 231 -278c4 -248 -143 -457 -333 -452c-144 0 -232 102 -232 278zM575 436c0 151 -68 234 -184 234c-163 4 -288 -186 -285 -406c0 -151 69 -234 185 -234c161 -4 287 186 284 406z" />
    <glyph glyph-name="one.ccmp" horiz-adv-x="355" 
d="M152 0l113 642l-181 -108l8 54l188 112h43l-123 -700h-48z" />
    <glyph glyph-name="two.ccmp" horiz-adv-x="611" 
d="M96 72l-5 -27h405l-8 -45h-455l13 69c27 132 60 166 261 260c179 80 236 132 236 220c0 76 -59 122 -155 122c-120 0 -208 -73 -236 -193l-46 9c15 69 47 124 98 165c51 42 113 63 184 63c121 0 203 -65 203 -166c0 -105 -66 -174 -260 -259
c-190 -86 -208 -109 -235 -218z" />
    <glyph glyph-name="three.ccmp" horiz-adv-x="601" 
d="M51 228l47 4c0 -131 63 -201 180 -202c111 0 197 85 197 191c0 90 -54 135 -163 135h-46l7 43h47c108 0 193 68 193 158c0 69 -52 113 -139 113c-101 0 -172 -55 -203 -152l-45 11c32 113 125 186 248 186c112 0 187 -62 187 -154c1 -85 -52 -151 -140 -182v-3
c64 -21 102 -74 102 -154c0 -134 -106 -237 -245 -237c-143 0 -228 91 -227 243z" />
    <glyph glyph-name="four.ccmp" horiz-adv-x="578" 
d="M345 0l27 148h-376l7 40l436 512h78l-91 -510h96l-6 -42h-97l-26 -148h-48zM56 190h322l85 472h-2z" />
    <glyph glyph-name="five.ccmp" horiz-adv-x="582" 
d="M32 183l46 7c12 -104 74 -161 178 -161c129 -4 237 117 235 246c0 97 -62 159 -165 159c-75 0 -144 -31 -206 -93l-41 12l122 347h357l-7 -44h-319l-87 -246l2 -1c55 45 115 67 181 67c64 0 115 -18 153 -55c39 -37 58 -85 58 -146c3 -153 -130 -294 -283 -290
c-128 0 -212 74 -224 198z" />
    <glyph glyph-name="six.ccmp" horiz-adv-x="606" 
d="M55 243c-3 262 153 477 345 472c112 0 189 -71 204 -183l-47 -8c-15 97 -70 146 -158 146c-147 0 -264 -141 -290 -346h2c47 88 135 142 236 142c129 0 217 -79 217 -198c3 -157 -123 -286 -276 -283c-145 0 -233 98 -233 258zM516 266c0 95 -66 156 -169 156
c-127 0 -231 -104 -231 -231c0 -97 68 -161 172 -161c129 0 228 103 228 236z" />
    <glyph glyph-name="seven.ccmp" horiz-adv-x="507" 
d="M58 0l418 653v2h-386l8 45h443l-6 -42l-420 -658h-57z" />
    <glyph glyph-name="eight.ccmp" horiz-adv-x="569" 
d="M17 168c0 53 17 98 52 136s82 64 139 77v2c-57 27 -91 73 -91 133c0 113 102 199 239 199c113 0 193 -65 193 -160c0 -88 -59 -155 -148 -179v-2c76 -27 125 -86 125 -162c0 -132 -118 -227 -278 -227c-139 0 -231 72 -231 183zM502 554c0 69 -58 117 -146 117
c-111 0 -192 -65 -192 -157c0 -69 57 -117 145 -117c111 0 193 65 193 157zM477 214c0 83 -71 138 -182 138c-134 0 -230 -75 -230 -182c0 -83 72 -139 183 -139c132 0 229 77 229 183z" />
    <glyph glyph-name="nine.ccmp" horiz-adv-x="585" 
d="M561 480c2 -283 -129 -500 -310 -495c-116 0 -188 65 -201 180l45 10c13 -100 65 -145 156 -145c134 0 231 144 255 352c-37 -83 -122 -136 -226 -136c-63 0 -113 18 -150 54s-56 84 -56 143c-3 151 119 274 268 272c135 0 219 -90 219 -235zM507 516
c0 92 -69 154 -165 154c-123 0 -221 -97 -221 -226c0 -96 62 -156 159 -156c128 0 227 99 227 228z" />
    <glyph glyph-name="zero.tnum" 
d="M57 263c-3 248 145 457 334 452c143 0 231 -102 231 -278c4 -248 -143 -457 -333 -452c-144 0 -232 102 -232 278zM575 436c0 151 -69 234 -185 234c-161 4 -288 -186 -285 -406c0 -151 69 -234 185 -234c161 -4 287 186 285 406z" />
    <glyph glyph-name="one.tnum" 
d="M307 44h172l-9 -44h-378l8 44h159l105 598l-181 -108l8 54l188 112h43z" />
    <glyph glyph-name="two.tnum" 
d="M115 72l-5 -27h405l-8 -45h-455l13 69c27 132 60 166 261 260c179 80 236 132 236 220c0 76 -59 122 -155 122c-120 0 -208 -73 -236 -193l-46 9c15 69 47 124 98 165c51 42 113 63 184 63c121 0 203 -65 203 -166c0 -105 -66 -174 -260 -259
c-190 -86 -208 -109 -235 -218z" />
    <glyph glyph-name="three.tnum" 
d="M80 228l47 4c0 -131 63 -201 180 -202c111 0 197 85 197 191c0 90 -54 135 -163 135h-46l7 43h47c108 0 193 68 193 158c0 69 -52 113 -139 113c-101 0 -172 -55 -203 -152l-45 11c32 113 125 186 248 186c112 0 187 -62 187 -154c1 -85 -52 -151 -140 -182v-3
c64 -21 102 -74 102 -154c0 -134 -106 -237 -245 -237c-143 0 -228 91 -227 243z" />
    <glyph glyph-name="four.tnum" 
d="M394 0l27 148h-376l7 40l436 512h78l-91 -510h96l-6 -42h-97l-26 -148h-48zM105 190h322l85 472h-2z" />
    <glyph glyph-name="five.tnum" 
d="M63 183l46 7c12 -104 74 -161 178 -161c129 -4 237 117 235 246c0 97 -62 159 -165 159c-75 0 -144 -31 -206 -93l-41 12l122 347h357l-7 -44h-319l-87 -246l2 -1c55 45 115 67 181 67c64 0 115 -18 153 -55c39 -37 58 -85 58 -146c3 -153 -130 -294 -283 -290
c-128 0 -212 74 -224 198z" />
    <glyph glyph-name="six.tnum" 
d="M74 243c-3 262 153 477 345 472c112 0 189 -71 204 -183l-47 -8c-15 97 -70 146 -158 146c-147 0 -264 -141 -290 -346h2c47 88 135 142 236 142c129 0 217 -79 217 -198c3 -157 -123 -286 -276 -283c-145 0 -233 98 -233 258zM535 266c0 95 -66 156 -169 156
c-127 0 -231 -104 -231 -231c0 -97 68 -161 172 -161c129 0 228 103 228 236z" />
    <glyph glyph-name="seven.tnum" 
d="M140 0l418 653v2h-386l8 45h443l-6 -42l-420 -658h-57z" />
    <glyph glyph-name="eight.tnum" 
d="M57 168c0 53 17 98 52 136s82 64 139 77v2c-57 27 -91 73 -91 133c0 113 102 199 239 199c113 0 193 -65 193 -160c0 -88 -59 -155 -148 -179v-2c76 -27 125 -86 125 -162c0 -132 -118 -227 -278 -227c-139 0 -231 72 -231 183zM542 554c0 69 -58 117 -146 117
c-111 0 -192 -65 -192 -157c0 -69 57 -117 145 -117c111 0 193 65 193 157zM517 214c0 83 -71 138 -182 138c-134 0 -230 -75 -230 -182c0 -83 72 -139 183 -139c132 0 229 77 229 183z" />
    <glyph glyph-name="nine.tnum" 
d="M600 480c2 -283 -129 -500 -310 -495c-116 0 -188 65 -201 180l45 10c13 -100 65 -145 156 -145c134 0 231 144 255 352c-37 -83 -122 -136 -226 -136c-63 0 -113 18 -150 54s-56 84 -56 143c-3 151 119 274 268 272c135 0 219 -90 219 -235zM546 516
c0 92 -69 154 -165 154c-123 0 -221 -97 -221 -226c0 -96 62 -156 159 -156c128 0 227 99 227 228z" />
    <glyph glyph-name="zero.zero" 
d="M620 416c3 -236 -141 -434 -330 -430c-144 0 -234 100 -234 271c-3 236 142 433 331 429c144 0 233 -99 233 -270zM149 91l340 525c-29 19 -64 28 -103 28c-161 4 -288 -177 -285 -387c0 -71 16 -127 48 -166zM575 416c0 78 -19 137 -58 177l-343 -527
c31 -25 69 -38 116 -38c161 -4 287 178 285 388z" />
    <glyph glyph-name="zero.ordn" horiz-adv-x="651" 
d="M623 437c4 -248 -143 -457 -333 -452c-144 0 -232 102 -232 278c-3 248 143 457 334 452c143 0 231 -103 231 -278zM105 263c0 -73 15 -129 46 -169l352 541c-30 24 -67 36 -112 36c-163 4 -288 -186 -286 -408zM576 437c0 75 -16 132 -49 172l-352 -541
c30 -26 69 -39 116 -39c161 -4 287 186 285 408z" />
    <glyph glyph-name="zero.tnum_zero" 
d="M623 437c4 -248 -143 -457 -333 -452c-144 0 -232 102 -232 278c-3 248 143 457 334 452c143 0 231 -103 231 -278zM105 263c0 -73 15 -129 46 -169l352 541c-30 24 -67 36 -112 36c-163 4 -288 -186 -286 -408zM576 437c0 75 -16 132 -49 172l-352 -541
c30 -26 69 -39 116 -39c161 -4 287 186 285 408z" />
    <glyph glyph-name="zero.subs" horiz-adv-x="407" 
d="M-5 14c0 147 88 266 202 266c89 0 145 -63 145 -172c0 -147 -85 -266 -202 -266c-89 0 -145 63 -145 172zM300 109c0 87 -38 133 -103 133c-92 0 -160 -102 -160 -229c0 -87 39 -133 104 -133c90 0 159 104 159 229z" />
    <glyph glyph-name="one.subs" horiz-adv-x="250" 
d="M60 -149l66 370l-115 -66l7 49l119 67h39l-74 -420h-42z" />
    <glyph glyph-name="two.subs" horiz-adv-x="368" 
d="M22 -101l-1 -9h245l-6 -39h-290l8 48c14 77 39 105 157 153c105 43 141 74 141 121c0 43 -38 69 -90 69c-68 0 -117 -40 -134 -108l-39 8c17 85 85 138 173 138c75 0 132 -42 132 -107c0 -63 -41 -105 -160 -152c-107 -44 -124 -60 -136 -122z" />
    <glyph glyph-name="three.subs" horiz-adv-x="363" 
d="M-20 -10l42 3c0 -73 36 -112 105 -112c64 0 111 44 111 103c0 48 -32 73 -92 73h-32l6 35h30c63 0 109 38 109 87c0 39 -31 63 -80 63c-56 0 -100 -31 -117 -86l-39 11c21 69 83 113 156 113c72 0 122 -40 122 -99c0 -49 -25 -84 -75 -105v-2c33 -15 54 -49 54 -89
c0 -82 -66 -143 -153 -143c-92 0 -146 56 -147 148z" />
    <glyph glyph-name="four.subs" horiz-adv-x="357" 
d="M168 -149l15 84h-229l6 38l255 298h69l-53 -297h57l-6 -39h-57l-15 -84h-42zM7 -26h183l47 267h-1z" />
    <glyph glyph-name="five.subs" horiz-adv-x="379" 
d="M-20 -40l41 9c7 -57 43 -89 104 -89c76 0 133 58 133 134c0 53 -38 87 -95 87c-43 0 -82 -18 -119 -53l-37 11l76 212h226l-7 -38h-192l-48 -132l1 -1c32 23 67 35 105 35c81 0 132 -46 132 -121c0 -98 -76 -172 -175 -172c-83 0 -134 46 -145 118z" />
    <glyph glyph-name="six.subs" horiz-adv-x="391" 
d="M-7 2c0 152 93 278 210 278c71 0 119 -41 130 -108l-40 -8c-9 51 -41 78 -90 78c-78 0 -151 -83 -163 -179h2c28 41 78 68 134 68c81 0 136 -48 136 -120c0 -96 -75 -169 -170 -169c-93 0 -149 61 -149 160zM270 11c0 51 -39 86 -96 86c-72 0 -131 -59 -131 -127
c0 -55 39 -90 99 -90c36 0 66 13 91 38s37 56 37 93z" />
    <glyph glyph-name="seven.subs" horiz-adv-x="290" 
d="M-19 -149l250 380v1h-235l6 39h285l-6 -35l-251 -385h-49z" />
    <glyph glyph-name="eight.subs" horiz-adv-x="387" 
d="M-19 -43c0 59 41 106 108 125v1c-32 19 -48 45 -48 79c0 68 64 118 149 118c75 0 127 -41 127 -100c0 -48 -27 -83 -80 -105v-2c40 -16 66 -54 66 -95c0 -78 -75 -136 -171 -136c-91 0 -151 46 -151 115zM277 180c0 39 -34 65 -87 65c-65 0 -110 -35 -110 -86
c0 -39 34 -65 86 -65c65 0 111 35 111 86zM262 -18c0 45 -42 76 -106 76c-79 0 -134 -41 -134 -100c0 -48 42 -78 109 -78c79 0 131 41 131 102z" />
    <glyph glyph-name="nine.subs" horiz-adv-x="384" 
d="M321 132c0 -169 -82 -290 -196 -290c-72 0 -119 40 -130 108l41 9c7 -53 36 -79 89 -79c75 0 131 72 147 185c-24 -44 -73 -68 -129 -68c-79 0 -132 50 -132 122c0 91 74 161 167 161c88 0 143 -56 143 -148zM274 157c0 52 -39 85 -96 85c-35 0 -65 -12 -90 -36
c-24 -23 -36 -52 -36 -87c0 -52 35 -84 94 -84c36 0 66 12 91 35s37 52 37 87z" />
    <glyph glyph-name="zero.dnom" horiz-adv-x="407" 
d="M20 163c0 147 88 266 202 266c89 0 145 -63 145 -172c0 -147 -85 -266 -202 -266c-89 0 -145 63 -145 172zM325 258c0 87 -38 133 -103 133c-92 0 -160 -102 -160 -229c0 -87 39 -133 104 -133c90 0 159 104 159 229z" />
    <glyph glyph-name="one.dnom" horiz-adv-x="250" 
d="M85 0l66 370l-115 -66l7 49l119 67h39l-74 -420h-42z" />
    <glyph glyph-name="two.dnom" horiz-adv-x="368" 
d="M47 48l-1 -9h245l-6 -39h-290l8 48c14 77 39 105 157 153c105 43 141 74 141 121c0 43 -38 69 -90 69c-68 0 -117 -40 -134 -108l-39 8c17 85 85 138 173 138c75 0 132 -42 132 -107c0 -63 -41 -105 -160 -152c-107 -44 -124 -60 -136 -122z" />
    <glyph glyph-name="three.dnom" horiz-adv-x="363" 
d="M5 139l42 3c0 -73 36 -112 105 -112c64 0 111 44 111 103c0 48 -32 73 -92 73h-32l6 35h30c63 0 109 38 109 87c0 39 -31 63 -80 63c-56 0 -100 -31 -117 -86l-39 11c21 69 83 113 156 113c72 0 122 -40 122 -99c0 -49 -25 -84 -75 -105v-2c33 -15 54 -49 54 -89
c0 -82 -66 -143 -153 -143c-92 0 -146 56 -147 148z" />
    <glyph glyph-name="four.dnom" horiz-adv-x="357" 
d="M193 0l15 84h-229l6 38l255 298h69l-53 -297h57l-6 -39h-57l-15 -84h-42zM32 123h183l47 267h-1z" />
    <glyph glyph-name="five.dnom" horiz-adv-x="379" 
d="M5 109l41 9c7 -57 43 -89 104 -89c76 0 133 58 133 134c0 53 -38 87 -95 87c-43 0 -82 -18 -119 -53l-37 11l76 212h226l-7 -38h-192l-48 -132l1 -1c32 23 67 35 105 35c81 0 132 -46 132 -121c0 -98 -76 -172 -175 -172c-83 0 -134 46 -145 118z" />
    <glyph glyph-name="six.dnom" horiz-adv-x="391" 
d="M18 151c0 152 93 278 210 278c71 0 119 -41 130 -108l-40 -8c-9 51 -41 78 -90 78c-78 0 -151 -83 -163 -179h2c28 41 78 68 134 68c81 0 136 -48 136 -120c0 -96 -75 -169 -170 -169c-93 0 -149 61 -149 160zM295 160c0 51 -39 86 -96 86c-72 0 -131 -59 -131 -127
c0 -55 39 -90 99 -90c36 0 66 13 91 38s37 56 37 93z" />
    <glyph glyph-name="seven.dnom" horiz-adv-x="290" 
d="M6 0l250 380v1h-235l6 39h285l-6 -35l-251 -385h-49z" />
    <glyph glyph-name="eight.dnom" horiz-adv-x="387" 
d="M6 106c0 59 41 106 108 125v1c-32 19 -48 45 -48 79c0 68 64 118 149 118c75 0 127 -41 127 -100c0 -48 -27 -83 -80 -105v-2c40 -16 66 -54 66 -95c0 -78 -75 -136 -171 -136c-91 0 -151 46 -151 115zM302 329c0 39 -34 65 -87 65c-65 0 -110 -35 -110 -86
c0 -39 34 -65 86 -65c65 0 111 35 111 86zM287 131c0 45 -42 76 -106 76c-79 0 -134 -41 -134 -100c0 -48 42 -78 109 -78c79 0 131 41 131 102z" />
    <glyph glyph-name="nine.dnom" horiz-adv-x="384" 
d="M346 281c0 -169 -82 -290 -196 -290c-72 0 -119 40 -130 108l41 9c7 -53 36 -79 89 -79c75 0 131 72 147 185c-24 -44 -73 -68 -129 -68c-79 0 -132 50 -132 122c0 91 74 161 167 161c88 0 143 -56 143 -148zM299 306c0 52 -39 85 -96 85c-35 0 -65 -12 -90 -36
c-24 -23 -36 -52 -36 -87c0 -52 35 -84 94 -84c36 0 66 12 91 35s37 52 37 87z" />
    <glyph glyph-name="zero.numr" horiz-adv-x="407" 
d="M70 443c0 147 88 266 202 266c89 0 145 -63 145 -172c0 -147 -85 -266 -202 -266c-89 0 -145 63 -145 172zM375 538c0 87 -38 133 -103 133c-92 0 -160 -102 -160 -229c0 -87 39 -133 104 -133c90 0 159 104 159 229z" />
    <glyph glyph-name="one.numr" horiz-adv-x="250" 
d="M135 280l66 370l-115 -66l7 49l119 67h39l-74 -420h-42z" />
    <glyph glyph-name="two.numr" horiz-adv-x="367" 
d="M96 328l-1 -9h245l-6 -39h-290l8 48c14 77 39 105 157 153c105 43 141 74 141 121c0 43 -38 69 -90 69c-68 0 -117 -40 -134 -108l-39 8c17 85 85 138 173 138c75 0 132 -42 132 -107c0 -63 -41 -105 -160 -152c-107 -44 -124 -60 -136 -122z" />
    <glyph glyph-name="three.numr" horiz-adv-x="364" 
d="M55 419l42 3c0 -73 36 -112 105 -112c64 0 111 44 111 103c0 48 -32 73 -92 73h-32l6 35h30c63 0 109 38 109 87c0 39 -31 63 -80 63c-56 0 -100 -31 -117 -86l-39 11c21 69 83 113 156 113c72 0 122 -40 122 -99c0 -49 -25 -84 -75 -105v-2c33 -15 54 -49 54 -89
c0 -82 -66 -143 -153 -143c-92 0 -146 56 -147 148z" />
    <glyph glyph-name="four.numr" horiz-adv-x="357" 
d="M243 280l15 84h-229l6 38l255 298h69l-53 -297h57l-6 -39h-57l-15 -84h-42zM82 403h183l47 267h-1z" />
    <glyph glyph-name="five.numr" horiz-adv-x="379" 
d="M55 389l41 9c7 -57 43 -89 104 -89c76 0 133 58 133 134c0 53 -38 87 -95 87c-43 0 -82 -18 -119 -53l-37 11l76 212h226l-7 -38h-192l-48 -132l1 -1c32 23 67 35 105 35c81 0 132 -46 132 -121c0 -98 -76 -172 -175 -172c-83 0 -134 46 -145 118z" />
    <glyph glyph-name="six.numr" horiz-adv-x="392" 
d="M68 431c0 152 93 278 210 278c71 0 119 -41 130 -108l-40 -8c-9 51 -41 78 -90 78c-78 0 -151 -83 -163 -179h2c28 41 78 68 134 68c81 0 136 -48 136 -120c0 -96 -75 -169 -170 -169c-93 0 -149 61 -149 160zM345 440c0 51 -39 86 -96 86c-72 0 -131 -59 -131 -127
c0 -55 39 -90 99 -90c36 0 66 13 91 38s37 56 37 93z" />
    <glyph glyph-name="seven.numr" horiz-adv-x="290" 
d="M56 280l250 380v1h-235l6 39h285l-6 -35l-251 -385h-49z" />
    <glyph glyph-name="eight.numr" horiz-adv-x="387" 
d="M55 386c0 59 41 106 108 125v1c-32 19 -48 45 -48 79c0 68 64 118 149 118c75 0 127 -41 127 -100c0 -48 -27 -83 -80 -105v-2c40 -16 66 -54 66 -95c0 -78 -75 -136 -171 -136c-91 0 -151 46 -151 115zM351 609c0 39 -34 65 -87 65c-65 0 -110 -35 -110 -86
c0 -39 34 -65 86 -65c65 0 111 35 111 86zM336 411c0 45 -42 76 -106 76c-79 0 -134 -41 -134 -100c0 -48 42 -78 109 -78c79 0 131 41 131 102z" />
    <glyph glyph-name="nine.numr" horiz-adv-x="384" 
d="M395 561c0 -169 -82 -290 -196 -290c-72 0 -119 40 -130 108l41 9c7 -53 36 -79 89 -79c75 0 131 72 147 185c-24 -44 -73 -68 -129 -68c-79 0 -132 50 -132 122c0 91 74 161 167 161c88 0 143 -56 143 -148zM348 586c0 52 -39 85 -96 85c-35 0 -65 -12 -90 -36
c-24 -23 -36 -52 -36 -87c0 -52 35 -84 94 -84c36 0 66 12 91 35s37 52 37 87z" />
    <glyph glyph-name="zero.sups" horiz-adv-x="407" 
d="M87 543c0 147 88 266 202 266c89 0 145 -63 145 -172c0 -147 -85 -266 -202 -266c-89 0 -145 63 -145 172zM392 638c0 87 -38 133 -103 133c-92 0 -160 -102 -160 -229c0 -87 39 -133 104 -133c90 0 159 104 159 229z" />
    <glyph glyph-name="one.sups" horiz-adv-x="250" 
d="M152 380l66 370l-115 -66l7 49l119 67h39l-74 -420h-42z" />
    <glyph glyph-name="two.sups" horiz-adv-x="368" 
d="M114 428l-1 -9h245l-6 -39h-290l8 48c14 77 39 105 157 153c105 43 141 74 141 121c0 43 -38 69 -90 69c-68 0 -117 -40 -134 -108l-39 8c17 85 85 138 173 138c75 0 132 -42 132 -107c0 -63 -41 -105 -160 -152c-107 -44 -124 -60 -136 -122z" />
    <glyph glyph-name="three.sups" horiz-adv-x="363" 
d="M72 519l42 3c0 -73 36 -112 105 -112c64 0 111 44 111 103c0 48 -32 73 -92 73h-32l6 35h30c63 0 109 38 109 87c0 39 -31 63 -80 63c-56 0 -100 -31 -117 -86l-39 11c21 69 83 113 156 113c72 0 122 -40 122 -99c0 -49 -25 -84 -75 -105v-2c33 -15 54 -49 54 -89
c0 -82 -66 -143 -153 -143c-92 0 -146 56 -147 148z" />
    <glyph glyph-name="four.sups" horiz-adv-x="357" 
d="M260 380l15 84h-229l6 38l255 298h69l-53 -297h57l-6 -39h-57l-15 -84h-42zM99 503h183l47 267h-1z" />
    <glyph glyph-name="five.sups" horiz-adv-x="379" 
d="M72 489l41 9c7 -57 43 -89 104 -89c76 0 133 58 133 134c0 53 -38 87 -95 87c-43 0 -82 -18 -119 -53l-37 11l76 212h226l-7 -38h-192l-48 -132l1 -1c32 23 67 35 105 35c81 0 132 -46 132 -121c0 -98 -76 -172 -175 -172c-83 0 -134 46 -145 118z" />
    <glyph glyph-name="six.sups" horiz-adv-x="391" 
d="M85 531c0 152 93 278 210 278c71 0 119 -41 130 -108l-40 -8c-9 51 -41 78 -90 78c-78 0 -151 -83 -163 -179h2c28 41 78 68 134 68c81 0 136 -48 136 -120c0 -96 -75 -169 -170 -169c-93 0 -149 61 -149 160zM362 540c0 51 -39 86 -96 86c-72 0 -131 -59 -131 -127
c0 -55 39 -90 99 -90c36 0 66 13 91 38s37 56 37 93z" />
    <glyph glyph-name="seven.sups" horiz-adv-x="290" 
d="M73 380l250 380v1h-235l6 39h285l-6 -35l-251 -385h-49z" />
    <glyph glyph-name="eight.sups" horiz-adv-x="387" 
d="M73 486c0 59 41 106 108 125v1c-32 19 -48 45 -48 79c0 68 64 118 149 118c75 0 127 -41 127 -100c0 -48 -27 -83 -80 -105v-2c40 -16 66 -54 66 -95c0 -78 -75 -136 -171 -136c-91 0 -151 46 -151 115zM369 709c0 39 -34 65 -87 65c-65 0 -110 -35 -110 -86
c0 -39 34 -65 86 -65c65 0 111 35 111 86zM354 511c0 45 -42 76 -106 76c-79 0 -134 -41 -134 -100c0 -48 42 -78 109 -78c79 0 131 41 131 102z" />
    <glyph glyph-name="nine.sups" horiz-adv-x="384" 
d="M413 661c0 -169 -82 -290 -196 -290c-72 0 -119 40 -130 108l41 9c7 -53 36 -79 89 -79c75 0 131 72 147 185c-24 -44 -73 -68 -129 -68c-79 0 -132 50 -132 122c0 91 74 161 167 161c88 0 143 -56 143 -148zM366 686c0 52 -39 85 -96 85c-35 0 -65 -12 -90 -36
c-24 -23 -36 -52 -36 -87c0 -52 35 -84 94 -84c36 0 66 12 91 35s37 52 37 87z" />
    <glyph glyph-name="fraction" unicode="&#x2044;" horiz-adv-x="205" 
d="M-182 -63l-30 22l630 813l31 -22z" />
    <glyph glyph-name="onehalf" unicode="&#xbd;" horiz-adv-x="823" 
d="M135 280l66 370l-115 -66l7 49l119 67h39l-74 -420h-42zM68 -63l-30 22l630 813l31 -22zM502 48l-1 -9h245l-6 -39h-290l8 48c14 77 39 105 157 153c105 43 141 74 141 121c0 43 -38 69 -90 69c-68 0 -117 -40 -134 -108l-39 8c17 85 85 138 173 138
c75 0 132 -42 132 -107c0 -63 -41 -105 -160 -152c-107 -44 -124 -60 -136 -122z" />
    <glyph glyph-name="onequarter" unicode="&#xbc;" horiz-adv-x="762" 
d="M135 280l66 370l-115 -66l7 49l119 67h39l-74 -420h-42zM68 -63l-30 22l630 813l31 -22zM598 0l15 84h-229l6 38l255 298h69l-53 -297h57l-6 -39h-57l-15 -84h-42zM437 123h183l47 267h-1z" />
    <glyph glyph-name="threequarters" unicode="&#xbe;" horiz-adv-x="876" 
d="M55 419l42 3c0 -73 36 -112 105 -112c64 0 111 44 111 103c0 48 -32 73 -92 73h-32l6 35h30c63 0 109 38 109 87c0 39 -31 63 -80 63c-56 0 -100 -31 -117 -86l-39 11c21 69 83 113 156 113c72 0 122 -40 122 -99c0 -49 -25 -84 -75 -105v-2c33 -15 54 -49 54 -89
c0 -82 -66 -143 -153 -143c-92 0 -146 56 -147 148zM182 -63l-30 22l630 813l31 -22zM712 0l15 84h-229l6 38l255 298h69l-53 -297h57l-6 -39h-57l-15 -84h-42zM551 123h183l47 267h-1z" />
    <glyph glyph-name="oneeighth" unicode="&#x215b;" horiz-adv-x="842" 
d="M135 280l66 370l-115 -66l7 49l119 67h39l-74 -420h-42zM68 -63l-30 22l630 813l31 -22zM461 106c0 59 41 106 108 125v1c-32 19 -48 45 -48 79c0 68 64 118 149 118c75 0 127 -41 127 -100c0 -48 -27 -83 -80 -105v-2c40 -16 66 -54 66 -95c0 -78 -75 -136 -171 -136
c-91 0 -151 46 -151 115zM757 329c0 39 -34 65 -87 65c-65 0 -110 -35 -110 -86c0 -39 34 -65 86 -65c65 0 111 35 111 86zM742 131c0 45 -42 76 -106 76c-79 0 -134 -41 -134 -100c0 -48 42 -78 109 -78c79 0 131 41 131 102z" />
    <glyph glyph-name="threeeighths" unicode="&#x215c;" horiz-adv-x="956" 
d="M55 419l42 3c0 -73 36 -112 105 -112c64 0 111 44 111 103c0 48 -32 73 -92 73h-32l6 35h30c63 0 109 38 109 87c0 39 -31 63 -80 63c-56 0 -100 -31 -117 -86l-39 11c21 69 83 113 156 113c72 0 122 -40 122 -99c0 -49 -25 -84 -75 -105v-2c33 -15 54 -49 54 -89
c0 -82 -66 -143 -153 -143c-92 0 -146 56 -147 148zM182 -63l-30 22l630 813l31 -22zM575 106c0 59 41 106 108 125v1c-32 19 -48 45 -48 79c0 68 64 118 149 118c75 0 127 -41 127 -100c0 -48 -27 -83 -80 -105v-2c40 -16 66 -54 66 -95c0 -78 -75 -136 -171 -136
c-91 0 -151 46 -151 115zM871 329c0 39 -34 65 -87 65c-65 0 -110 -35 -110 -86c0 -39 34 -65 86 -65c65 0 111 35 111 86zM856 131c0 45 -42 76 -106 76c-79 0 -134 -41 -134 -100c0 -48 42 -78 109 -78c79 0 131 41 131 102z" />
    <glyph glyph-name="fiveeighths" unicode="&#x215d;" horiz-adv-x="971" 
d="M55 389l41 9c7 -57 43 -89 104 -89c76 0 133 58 133 134c0 53 -38 87 -95 87c-43 0 -82 -18 -119 -53l-37 11l76 212h226l-7 -38h-192l-48 -132l1 -1c32 23 67 35 105 35c81 0 132 -46 132 -121c0 -98 -76 -172 -175 -172c-83 0 -134 46 -145 118zM197 -63l-30 22
l630 813l31 -22zM590 106c0 59 41 106 108 125v1c-32 19 -48 45 -48 79c0 68 64 118 149 118c75 0 127 -41 127 -100c0 -48 -27 -83 -80 -105v-2c40 -16 66 -54 66 -95c0 -78 -75 -136 -171 -136c-91 0 -151 46 -151 115zM886 329c0 39 -34 65 -87 65
c-65 0 -110 -35 -110 -86c0 -39 34 -65 86 -65c65 0 111 35 111 86zM871 131c0 45 -42 76 -106 76c-79 0 -134 -41 -134 -100c0 -48 42 -78 109 -78c79 0 131 41 131 102z" />
    <glyph glyph-name="seveneighths" unicode="&#x215e;" horiz-adv-x="848" 
d="M56 280l250 380v1h-235l6 39h285l-6 -35l-251 -385h-49zM74 -63l-30 22l630 813l31 -22zM467 106c0 59 41 106 108 125v1c-32 19 -48 45 -48 79c0 68 64 118 149 118c75 0 127 -41 127 -100c0 -48 -27 -83 -80 -105v-2c40 -16 66 -54 66 -95c0 -78 -75 -136 -171 -136
c-91 0 -151 46 -151 115zM763 329c0 39 -34 65 -87 65c-65 0 -110 -35 -110 -86c0 -39 34 -65 86 -65c65 0 111 35 111 86zM748 131c0 45 -42 76 -106 76c-79 0 -134 -41 -134 -100c0 -48 42 -78 109 -78c79 0 131 41 131 102z" />
    <glyph glyph-name="asterisk" unicode="*" horiz-adv-x="478" 
d="M185 352l-30 25l100 123l-129 77l20 32l126 -74v153h38v-153l126 74l20 -32l-129 -77l100 -123l-30 -25l-106 132z" />
    <glyph glyph-name="backslash" unicode="\" horiz-adv-x="570" 
d="M458 -31l-352 745l35 16l352 -746z" />
    <glyph glyph-name="periodcentered" unicode="&#xb7;" horiz-adv-x="233" 
d="M86 343l15 87h89l-15 -87h-89z" />
    <glyph glyph-name="bullet" unicode="&#x2022;" horiz-adv-x="331" 
d="M124 386c0 37 24 64 63 64s62 -27 62 -64s-23 -64 -62 -64s-63 27 -63 64z" />
    <glyph glyph-name="colon" unicode=":" horiz-adv-x="298" 
d="M118 360l15 87h89l-15 -87h-89zM60 0l15 87h89l-15 -87h-89z" />
    <glyph glyph-name="comma" unicode="," horiz-adv-x="295" 
d="M44 -79l6 33c25 5 38 18 43 46h-38l15 84h91l-13 -73c-10 -56 -45 -86 -104 -90z" />
    <glyph glyph-name="ellipsis" unicode="&#x2026;" horiz-adv-x="706" 
d="M262 0l15 87h89l-15 -87h-89zM55 0l15 87h89l-15 -87h-89zM468 0l15 87h89l-15 -87h-89z" />
    <glyph glyph-name="exclam" unicode="!" horiz-adv-x="297" 
d="M118 185l91 515h48l-91 -515h-48zM57 0l15 87h89l-15 -87h-89z" />
    <glyph glyph-name="exclamdown" unicode="&#xa1;" horiz-adv-x="297" 
d="M240 530l-15 -87h-89l15 87h89zM179 345l-91 -515h-48l91 515h48z" />
    <glyph glyph-name="numbersign" unicode="#" horiz-adv-x="751" 
d="M714 467h-168l-41 -230h168l-6 -39h-169l-35 -198h-45l35 198h-180l-35 -198h-44l35 198h-168l7 39h168l41 230h-169l6 40h170l34 193h44l-34 -193h180l34 193h45l-34 -193h167zM460 237l41 230h-180l-41 -230h180z" />
    <glyph glyph-name="period" unicode="." horiz-adv-x="293" 
d="M55 0l15 87h89l-15 -87h-89z" />
    <glyph glyph-name="question" unicode="?" horiz-adv-x="499" 
d="M171 172l13 73c14 74 41 105 141 163c91 53 127 100 127 160s-52 102 -125 102c-103 0 -172 -61 -197 -173l-47 7c27 133 117 211 244 211c99 0 172 -59 172 -142c0 -80 -43 -138 -148 -199c-94 -58 -107 -71 -122 -135l-12 -67h-46zM129 0l15 87h89l-15 -87h-89z" />
    <glyph glyph-name="questiondown" unicode="&#xbf;" horiz-adv-x="499" 
d="M370 530l-15 -87h-89l15 87h89zM328 358l-13 -73c-14 -74 -41 -105 -141 -163c-91 -53 -127 -100 -127 -160s52 -102 125 -102c103 0 172 61 197 173l47 -7c-27 -133 -117 -211 -244 -211c-99 0 -172 59 -172 142c0 80 43 138 148 199c94 58 107 71 122 135l12 67h46z
" />
    <glyph glyph-name="quotedbl" unicode="&#x22;" horiz-adv-x="363" 
d="M142 493l37 207h43l-36 -207h-44zM258 493l37 207h43l-36 -207h-44z" />
    <glyph glyph-name="quotesingle" unicode="'" horiz-adv-x="247" 
d="M142 493l37 207h43l-36 -207h-44z" />
    <glyph glyph-name="semicolon" unicode=";" horiz-adv-x="296" 
d="M46 -79l6 33c25 5 38 18 43 46h-38l15 84h91l-13 -73c-10 -56 -45 -86 -104 -90zM119 360l15 87h89l-15 -87h-89z" />
    <glyph glyph-name="slash" unicode="/" horiz-adv-x="313" 
d="M13 -30l-35 15l352 746l35 -16z" />
    <glyph glyph-name="underscore" unicode="_" horiz-adv-x="614" 
d="M-7 -124l6 38h491l-6 -38h-491z" />
    <glyph glyph-name="braceleft" unicode="{" horiz-adv-x="355" 
d="M93 -98c0 13 1 27 4 40l44 256c2 11 3 20 3 27c0 25 -13 35 -42 35h-30l9 50h26c40 0 57 17 66 66l42 234c15 85 51 120 123 120h67l-8 -44h-58c-45 0 -70 -26 -81 -85l-42 -239c-8 -47 -31 -73 -66 -76v-2c27 -7 41 -26 41 -55c0 -7 -1 -16 -3 -26l-45 -259
c-2 -12 -3 -23 -3 -32c0 -35 15 -48 52 -48h60l-7 -44h-63c-60 0 -89 26 -89 82z" />
    <glyph glyph-name="braceright" unicode="}" horiz-adv-x="354" 
d="M265 648c0 -13 -1 -27 -4 -40l-44 -256c-2 -11 -3 -20 -3 -27c0 -25 13 -35 42 -35h30l-9 -50h-26c-40 0 -57 -17 -66 -66l-42 -234c-15 -85 -51 -120 -123 -120h-67l8 44h58c45 0 70 26 81 85l42 239c8 47 31 73 66 76v2c-27 7 -41 26 -41 55c0 7 1 16 3 26l45 259
c2 12 3 23 3 32c0 35 -15 48 -52 48h-60l7 44h63c60 0 89 -26 89 -82z" />
    <glyph glyph-name="bracketleft" unicode="[" horiz-adv-x="295" 
d="M16 -180l160 910h169l-7 -42h-124l-145 -826h123l-7 -42h-169z" />
    <glyph glyph-name="bracketright" unicode="]" horiz-adv-x="295" 
d="M283 730l-160 -910h-169l7 42h124l145 826h-123l7 42h169z" />
    <glyph glyph-name="parenleft" unicode="(" horiz-adv-x="365" 
d="M98 186c0 106 25 211 76 314c51 104 123 198 217 283l29 -29c-87 -81 -155 -171 -203 -270s-72 -198 -72 -298c0 -131 37 -249 110 -354l-33 -23c-83 111 -124 236 -124 377z" />
    <glyph glyph-name="parenright" unicode=")" horiz-adv-x="365" 
d="M278 406c0 -106 -25 -211 -76 -315c-51 -103 -123 -197 -217 -282l-29 29c87 81 155 171 203 270s72 198 72 298c0 131 -37 249 -110 354l33 23c83 -111 124 -236 124 -377z" />
    <glyph glyph-name="braceleft.case" horiz-adv-x="355" 
d="M102 -48c0 13 1 27 4 40l44 256c2 11 3 20 3 27c0 25 -13 35 -42 35h-30l9 50h26c40 0 57 17 66 66l42 234c15 85 51 120 123 120h67l-8 -44h-58c-45 0 -70 -26 -81 -85l-42 -239c-8 -47 -31 -73 -66 -76v-2c27 -7 41 -26 41 -55c0 -7 -1 -16 -3 -26l-45 -259
c-2 -12 -3 -23 -3 -32c0 -35 15 -48 52 -48h60l-7 -44h-63c-60 0 -89 26 -89 82z" />
    <glyph glyph-name="braceright.case" horiz-adv-x="354" 
d="M274 698c0 -13 -1 -27 -4 -40l-44 -256c-2 -11 -3 -20 -3 -27c0 -25 13 -35 42 -35h30l-9 -50h-26c-40 0 -57 -17 -66 -66l-42 -234c-15 -85 -51 -120 -123 -120h-67l8 44h58c45 0 70 26 81 85l42 239c8 47 31 73 66 76v2c-27 7 -41 26 -41 55c0 7 1 16 3 26l45 259
c2 12 3 23 3 32c0 35 -15 48 -52 48h-60l7 44h63c60 0 89 -26 89 -82z" />
    <glyph glyph-name="bracketleft.case" horiz-adv-x="296" 
d="M25 -130l160 910h169l-7 -42h-124l-145 -826h123l-7 -42h-169z" />
    <glyph glyph-name="bracketright.case" horiz-adv-x="296" 
d="M292 780l-160 -910h-169l7 42h124l145 826h-123l7 42h169z" />
    <glyph glyph-name="parenleft.case" horiz-adv-x="364" 
d="M106 236c0 106 25 211 76 314c51 104 123 198 217 283l29 -29c-87 -81 -155 -171 -203 -270s-72 -198 -72 -298c0 -131 37 -249 110 -354l-33 -23c-83 111 -124 236 -124 377z" />
    <glyph glyph-name="parenright.case" horiz-adv-x="364" 
d="M286 456c0 -106 -25 -211 -76 -315c-51 -103 -123 -197 -217 -282l-29 29c87 81 155 171 203 270s72 198 72 298c0 131 -37 249 -110 354l33 23c83 -111 124 -236 124 -377z" />
    <glyph glyph-name="emdash" unicode="&#x2014;" horiz-adv-x="848" 
d="M64 276l8 43h724l-8 -43h-724z" />
    <glyph glyph-name="endash" unicode="&#x2013;" horiz-adv-x="563" 
d="M64 276l8 43h439l-8 -43h-439z" />
    <glyph glyph-name="hyphen" unicode="-" horiz-adv-x="362" 
d="M64 276l8 43h238l-8 -43h-238z" />
    <glyph glyph-name="uni00AD" unicode="&#xad;" horiz-adv-x="362" 
d="M64 276l8 43h238l-8 -43h-238z" />
    <glyph glyph-name="emdash.ccmp" horiz-adv-x="848" 
d="M76 341l8 43h724l-8 -43h-724z" />
    <glyph glyph-name="endash.ccmp" horiz-adv-x="563" 
d="M76 341l8 43h439l-8 -43h-439z" />
    <glyph glyph-name="hyphen.ccmp" horiz-adv-x="362" 
d="M76 341l8 43h238l-8 -43h-238z" />
    <glyph glyph-name="uni00AD.ccmp" horiz-adv-x="362" 
d="M76 341l8 43h238l-8 -43h-238z" />
    <glyph glyph-name="guillemotleft" unicode="&#xab;" horiz-adv-x="451" 
d="M302 98l-76 185l140 185h49l-143 -185l77 -185h-47zM161 98l-76 185l140 185h49l-143 -185l77 -185h-47z" />
    <glyph glyph-name="guillemotright" unicode="&#xbb;" horiz-adv-x="451" 
d="M155 468l76 -185l-140 -185h-49l143 185l-77 185h47zM296 468l76 -185l-140 -185h-49l143 185l-77 185h47z" />
    <glyph glyph-name="guilsinglleft" unicode="&#x2039;" horiz-adv-x="310" 
d="M161 98l-76 185l140 185h49l-143 -185l77 -185h-47z" />
    <glyph glyph-name="guilsinglright" unicode="&#x203a;" horiz-adv-x="311" 
d="M156 468l76 -185l-140 -185h-49l143 185l-77 185h47z" />
    <glyph glyph-name="quotedblbase" unicode="&#x201e;" horiz-adv-x="424" 
d="M44 -79l6 33c25 5 38 18 43 46h-38l15 84h91l-13 -73c-10 -56 -45 -86 -104 -90zM174 -79l6 33c25 5 38 18 43 46h-38l15 84h91l-13 -73c-10 -56 -45 -86 -104 -90z" />
    <glyph glyph-name="quotedblleft" unicode="&#x201c;" horiz-adv-x="424" 
d="M266 700l-6 -33c-25 -5 -38 -18 -43 -46h38l-15 -84h-91l13 73c10 56 45 86 104 90zM396 700l-6 -33c-25 -5 -38 -18 -43 -46h38l-15 -84h-91l13 73c10 56 45 86 104 90z" />
    <glyph glyph-name="quotedblright" unicode="&#x201d;" horiz-adv-x="424" 
d="M153 538l6 33c25 5 38 18 43 46h-38l15 84h91l-13 -73c-10 -56 -45 -86 -104 -90zM283 538l6 33c25 5 38 18 43 46h-38l15 84h91l-13 -73c-10 -56 -45 -86 -104 -90z" />
    <glyph glyph-name="quoteleft" unicode="&#x2018;" horiz-adv-x="294" 
d="M266 700l-6 -33c-25 -5 -38 -18 -43 -46h38l-15 -84h-91l13 73c10 56 45 86 104 90z" />
    <glyph glyph-name="quoteright" unicode="&#x2019;" horiz-adv-x="255" 
d="M133 538l6 33c25 5 38 18 43 46h-38l15 84h91l-13 -73c-10 -56 -45 -86 -104 -90z" />
    <glyph glyph-name="quotesinglbase" unicode="&#x201a;" horiz-adv-x="295" 
d="M44 -79l6 33c25 5 38 18 43 46h-38l15 84h91l-13 -73c-10 -56 -45 -86 -104 -90z" />
    <glyph glyph-name="guillemotleft.case" horiz-adv-x="451" 
d="M311 148l-76 185l140 185h49l-143 -185l77 -185h-47zM170 148l-76 185l140 185h49l-143 -185l77 -185h-47z" />
    <glyph glyph-name="guillemotright.case" horiz-adv-x="451" 
d="M164 518l76 -185l-140 -185h-49l143 185l-77 185h47zM305 518l76 -185l-140 -185h-49l143 185l-77 185h47z" />
    <glyph glyph-name="guilsinglleft.case" horiz-adv-x="310" 
d="M170 148l-76 185l140 185h49l-143 -185l77 -185h-47z" />
    <glyph glyph-name="guilsinglright.case" horiz-adv-x="500" 
d="M155 518l76 -185l-140 -185h-49l143 185l-77 185h47zM296 518l76 -185l-140 -185h-49l143 185l-77 185h47z" />
    <glyph glyph-name="uni2003" unicode="&#x2003;" horiz-adv-x="1000" 
 />
    <glyph glyph-name="uni2002" unicode="&#x2002;" horiz-adv-x="750" 
 />
    <glyph glyph-name="uni2007" unicode="&#x2007;" 
 />
    <glyph glyph-name="uni2005" unicode="&#x2005;" horiz-adv-x="250" 
 />
    <glyph glyph-name="uni200A" unicode="&#x200a;" horiz-adv-x="75" 
 />
    <glyph glyph-name="uni2008" unicode="&#x2008;" horiz-adv-x="293" 
 />
    <glyph glyph-name="uni00A0" unicode="&#xa0;" horiz-adv-x="276" 
 />
    <glyph glyph-name="uni2009" unicode="&#x2009;" horiz-adv-x="150" 
 />
    <glyph glyph-name="uni2004" unicode="&#x2004;" horiz-adv-x="350" 
 />
    <glyph glyph-name="uni200B" unicode="&#x200b;" horiz-adv-x="0" 
 />
    <glyph glyph-name="uniFEFF" unicode="&#xfeff;" horiz-adv-x="0" 
 />
    <glyph glyph-name="uni0E3F" unicode="&#xe3f;" horiz-adv-x="639" 
d="M559 223c0 -141 -96 -223 -267 -223h-11l-19 -110h-32l19 110h-206l123 700h206l18 101h32l-18 -101c120 -1 186 -58 186 -155c0 -87 -51 -150 -144 -175v-2c69 -19 113 -73 113 -145zM206 655l-46 -265h158l46 265h-158zM399 655h-3l-46 -265c120 3 192 59 192 152
c0 72 -52 113 -143 113zM99 45h158l53 302h-157zM511 221c0 80 -58 126 -159 126h-10l-53 -302h8c139 0 214 61 214 176z" />
    <glyph glyph-name="cent" unicode="&#xa2;" horiz-adv-x="631" 
d="M512 179l42 -16c-45 -109 -135 -178 -259 -178h-5l-17 -95h-32l17 97c-124 15 -196 103 -196 232c-2 181 123 329 290 326h4l15 86h32l-15 -88c113 -12 182 -89 190 -193l-44 -6c-9 91 -61 149 -154 158l-83 -475c105 1 178 59 215 152zM265 29l84 474
c-143 -2 -242 -127 -242 -284c0 -107 57 -179 158 -190z" />
    <glyph glyph-name="currency" unicode="&#xa4;" horiz-adv-x="766" 
d="M642 106l-26 -25l-65 65c-41 -37 -97 -59 -157 -59c-61 0 -115 22 -156 59l-65 -65l-26 25l66 66c-35 43 -53 96 -53 159c0 61 17 113 51 158l-64 65l25 25l64 -64c40 39 95 61 158 61c61 0 117 -22 158 -61l64 64l25 -25l-65 -66c33 -41 52 -97 52 -157
s-20 -115 -53 -158zM579 330c0 119 -77 202 -185 202c-109 0 -186 -85 -186 -202s77 -200 186 -200c108 0 185 83 185 200z" />
    <glyph glyph-name="dollar" unicode="$" horiz-adv-x="641" 
d="M575 179c0 -117 -100 -194 -253 -194c-15 0 -25 0 -32 1l-17 -96h-32l17 100c-132 19 -209 103 -217 235l48 7c9 -116 68 -182 177 -198l57 322c-151 60 -199 105 -199 183c0 105 92 176 229 176c15 0 26 0 33 -1l15 87h32l-16 -92c108 -19 181 -89 194 -192l-48 -9
c-15 85 -70 141 -154 157l-48 -276c78 -31 133 -62 165 -94c33 -32 49 -71 49 -116zM331 401l47 268c-5 1 -14 1 -25 1c-113 0 -182 -49 -182 -130c0 -29 11 -53 34 -73s65 -42 126 -66zM527 178c0 71 -47 118 -174 167l-55 -314c5 -1 13 -1 24 -1c128 0 205 56 205 148z
" />
    <glyph glyph-name="Euro" unicode="&#x20ac;" horiz-adv-x="781" 
d="M687 239l44 -15c-48 -148 -167 -239 -322 -239c-83 0 -149 24 -199 73c-49 49 -76 115 -81 198h-105l7 41h97c1 31 4 64 11 97h-91l8 42h93c25 85 68 153 129 203c61 51 133 76 215 76c154 0 259 -96 269 -240l-46 -4c-12 123 -98 200 -223 200c-69 0 -129 -21 -181 -64
s-90 -100 -113 -171h339l-8 -42h-343c-7 -31 -11 -64 -12 -97h262l-7 -41h-254c8 -140 94 -227 233 -227c132 0 230 77 278 210z" />
    <glyph glyph-name="florin" unicode="&#x192;" horiz-adv-x="325" 
d="M223 592l-11 -62h138l-8 -42h-137l-96 -545c-11 -66 -52 -99 -121 -99h-55l8 43h48c47 0 68 18 76 66l11 62l84 473h-127l9 42h125l13 71c11 66 52 99 121 99h69l-8 -42h-62c-45 0 -68 -19 -77 -66z" />
    <glyph glyph-name="lira" unicode="&#x20a4;" horiz-adv-x="535" 
d="M469 366l46 -6c-32 -207 -177 -360 -357 -360h-48l70 399l-97 -17l-7 40l112 20l16 94l-97 -17l-7 39l112 20l21 122h48l-20 -113l180 32l7 -39l-194 -35l-17 -95l180 32l7 -39l-194 -35l-64 -363c150 4 271 130 303 321z" />
    <glyph glyph-name="uni20BD" unicode="&#x20bd;" horiz-adv-x="701" 
d="M677 513c0 -144 -102 -232 -270 -232h-202l-18 -105h213l-7 -42h-214l-23 -134h-48l24 134h-107l8 42h106l18 105h-106l7 42h107l66 377h239c129 0 207 -70 207 -187zM629 513c0 92 -56 142 -160 142h-197l-59 -329h197c140 0 219 67 219 187z" />
    <glyph glyph-name="uni20A8" unicode="&#x20a8;" horiz-adv-x="595" 
d="M626 659h-159v-2c51 -30 75 -75 74 -135h61l-7 -40h-56c-19 -105 -107 -171 -240 -179v-2l125 -301h-54l-121 302h-168l8 45h187c119 0 195 48 214 135h-378l7 40h375c1 84 -57 133 -160 133h-191l8 45h483z" />
    <glyph glyph-name="sterling" unicode="&#xa3;" horiz-adv-x="599" 
d="M29 0l8 45h39c84 0 163 82 163 169c0 36 -11 68 -30 108h-123l8 41h94c-32 63 -49 103 -49 155c0 115 98 197 236 197c140 0 225 -72 228 -195l-48 -2c-3 99 -66 152 -177 152c-115 0 -190 -62 -190 -157c0 -59 43 -133 51 -150h219l-7 -41h-193c17 -41 26 -77 26 -109
c0 -67 -40 -131 -100 -166v-2h313l-7 -45h-461z" />
    <glyph glyph-name="uni20A9" unicode="&#x20a9;" horiz-adv-x="888" 
d="M920 700l-81 -214h71l-7 -38h-79l-41 -109h101l-7 -39h-109l-114 -300h-51l-42 300h-209l-145 -300h-53l-10 300h-120l6 39h112l-3 109h-89l7 38h80l-7 214h44l6 -214h218l103 214h44l30 -214h218l80 214h47zM512 633l-71 -147h94l-20 147h-3zM182 448l3 -109h142l52 109
h-197zM370 339h186l-15 109h-118zM737 339l41 109h-198l15 -109h142zM196 69l112 231h-122l7 -231h3zM636 69l87 231h-122l32 -231h3z" />
    <glyph glyph-name="yen" unicode="&#xa5;" horiz-adv-x="570" 
d="M637 700l-298 -380h203l-7 -42h-223l-17 -96h223l-7 -42h-224l-25 -140h-48l25 140h-219l8 42h219l17 96h-220l7 42h201l-165 380h51l155 -366h2l283 366h59z" />
    <glyph glyph-name="uni0E3F.tnum" 
d="M572 223c0 -141 -96 -223 -267 -223h-18l-19 -110h-32l19 110h-205l123 700h205l18 101h32l-18 -101c124 0 193 -56 193 -155c0 -87 -51 -150 -144 -175v-2c69 -19 113 -73 113 -145zM213 655l-47 -265h158l46 265h-157zM412 655h-10l-46 -265h1c124 0 199 57 199 152
c0 72 -53 113 -144 113zM106 45h157l53 302h-157zM524 221c0 80 -58 126 -158 126h-18l-53 -302h15c139 0 214 61 214 176z" />
    <glyph glyph-name="cent.tnum" 
d="M519 179l42 -16c-45 -109 -136 -178 -260 -178h-4l-17 -95h-32l17 97c-124 13 -196 103 -196 232c-2 181 123 329 290 326h4l15 86h32l-15 -88c113 -12 182 -89 190 -193l-44 -6c-9 91 -61 149 -154 158l-83 -475c105 1 178 59 215 152zM272 29l84 474
c-144 -2 -243 -127 -243 -284c0 -105 58 -179 159 -190z" />
    <glyph glyph-name="currency.tnum" 
d="M584 106l-26 -25l-65 65c-41 -37 -97 -59 -157 -59c-61 0 -115 22 -156 59l-65 -65l-26 25l66 66c-35 43 -53 96 -53 159c0 61 17 113 51 158l-64 65l25 25l64 -64c40 39 95 61 158 61c61 0 117 -22 158 -61l64 64l25 -25l-65 -66c33 -41 52 -97 52 -157
s-20 -115 -53 -158zM521 330c0 119 -77 202 -185 202c-109 0 -186 -85 -186 -202s77 -200 186 -200c108 0 185 83 185 200z" />
    <glyph glyph-name="dollar.tnum" 
d="M579 179c0 -117 -100 -194 -253 -194c-14 0 -24 0 -31 1l-17 -96h-32l17 99c-132 20 -210 104 -218 236l48 7c9 -116 68 -182 178 -198l57 322c-153 60 -200 105 -200 183c0 105 92 176 229 176c15 0 27 0 34 -1l15 87h32l-16 -92c108 -20 180 -91 193 -192l-48 -9
c-15 85 -69 140 -153 157l-48 -276c78 -31 133 -62 165 -94s48 -71 48 -116zM336 400l47 269c-6 1 -15 1 -26 1c-113 0 -181 -49 -181 -130c0 -29 11 -53 34 -74c23 -20 65 -42 126 -66zM531 178c0 71 -46 118 -173 167l-55 -314c5 -1 13 -1 24 -1c127 0 204 56 204 148z
" />
    <glyph glyph-name="Euro.tnum" 
d="M562 245l44 -13c-23 -75 -58 -135 -107 -180c-48 -45 -102 -67 -161 -67c-141 0 -223 98 -230 271h-89l8 41h80c1 32 4 64 11 97h-74l7 42h77c46 163 167 279 303 279c124 0 201 -91 206 -240l-48 -3c-4 127 -61 198 -158 198c-55 0 -106 -22 -153 -65
c-46 -43 -80 -99 -102 -169h279l-7 -42h-283c-7 -31 -11 -64 -12 -97h202l-7 -41h-194c7 -147 71 -226 184 -226c99 0 180 78 224 215z" />
    <glyph glyph-name="florin.tnum" 
d="M400 592l-11 -62h138l-9 -42h-137l-84 -475h1l-13 -70c-11 -66 -52 -99 -121 -99h-55l8 43h48c47 0 68 18 77 66l94 535h-126l8 42h126l12 71c11 66 52 99 121 99h70l-9 -42h-62c-45 0 -68 -19 -76 -66z" />
    <glyph glyph-name="lira.tnum" 
d="M521 366l46 -6c-30 -205 -180 -363 -357 -360h-48l70 399l-97 -17l-8 40l113 20l16 94l-97 -17l-8 39l113 20l21 122h48l-20 -113l180 32l6 -39l-193 -35l-17 -95l180 32l7 -39l-194 -35l-64 -363c150 4 271 130 303 321z" />
    <glyph glyph-name="uni20BD.tnum" 
d="M653 513c0 -144 -101 -232 -269 -232h-181l-19 -105h192l-7 -42h-192l-24 -134h-47l24 134h-107l7 42h107l18 105h-106l7 42h107l66 377h218c129 0 206 -70 206 -187zM606 513c0 92 -57 142 -161 142h-176l-58 -329h176c140 0 219 67 219 187z" />
    <glyph glyph-name="uni20A8.tnum" 
d="M635 659h-159v-2c51 -30 75 -75 74 -135h62l-8 -40h-56c-19 -105 -106 -171 -239 -179v-2l124 -301h-53l-122 302h-168l8 45h187c119 0 195 48 214 135h-378l7 40h375c1 84 -57 133 -160 133h-191l8 45h483z" />
    <glyph glyph-name="sterling.tnum" 
d="M38 0l8 45h38c84 0 163 82 163 169c0 32 -10 68 -30 108h-122l7 41h94c-32 63 -49 103 -49 155c0 115 98 197 237 197s224 -72 227 -195l-48 -2c-3 99 -66 152 -177 152c-115 0 -190 -62 -190 -157c0 -59 43 -133 51 -150h220l-8 -41h-193c17 -38 26 -74 26 -109
c0 -67 -40 -131 -99 -166v-2h313l-8 -45h-460z" />
    <glyph glyph-name="uni20A9.tnum" 
d="M700 700l-72 -214h63l-7 -39h-69l-27 -80h82l-6 -38h-89l-111 -329h-50l-39 329h-77l-151 -329h-52l5 329h-91l7 38h85l1 80h-72l7 39h66l3 214h44l-5 -214h186l20 44h39l5 -44h188l71 214h46zM144 447l-1 -80h133l37 80h-169zM316 367h55l-10 80h-9zM544 367l26 80h-170
l9 -80h135zM138 70l120 259h-116l-6 -259h2zM445 70l86 259h-118l30 -259h2z" />
    <glyph glyph-name="yen.tnum" 
d="M699 700l-319 -380h200l-7 -42h-221l-17 -96h221l-7 -42h-222l-25 -140h-49l25 140h-219l7 42h220l17 96h-220l7 42h200l-185 380h53l175 -365h2l303 365h61z" />
    <glyph glyph-name="uni207B" unicode="&#x207b;" horiz-adv-x="410" 
d="M59 193l7 36h265l-6 -36h-266z" />
    <glyph glyph-name="plus" unicode="+" horiz-adv-x="592" 
d="M542 389l-8 -41h-201l-38 -212h-43l38 212h-203l7 41h203l36 204h43l-36 -204h202z" />
    <glyph glyph-name="minus" unicode="&#x2212;" horiz-adv-x="542" 
d="M87 348l7 41h398l-8 -41h-397z" />
    <glyph glyph-name="multiply" unicode="&#xd7;" horiz-adv-x="525" 
d="M497 515l-191 -162l133 -159l-31 -27l-132 161l-190 -163l-26 31l192 162l-132 159l32 26l130 -160l189 162z" />
    <glyph glyph-name="divide" unicode="&#xf7;" horiz-adv-x="542" 
d="M270 556c0 32 24 55 53 55c31 0 54 -23 54 -55c0 -31 -23 -53 -54 -53c-29 0 -53 22 -53 53zM87 348l7 41h398l-8 -41h-397zM202 176c0 31 22 54 53 54s53 -23 53 -54c0 -32 -22 -54 -53 -54s-53 22 -53 54z" />
    <glyph glyph-name="equal" unicode="=" horiz-adv-x="562" 
d="M101 427l7 42h418l-8 -42h-417zM68 244l8 42h417l-8 -42h-417z" />
    <glyph glyph-name="notequal" unicode="&#x2260;" horiz-adv-x="562" 
d="M518 427h-149l-100 -141h224l-7 -42h-246l-77 -109l-27 20l62 89h-129l7 42h152l99 141h-226l7 42h248l76 108l28 -20l-62 -88h128z" />
    <glyph glyph-name="greater" unicode="&#x3e;" horiz-adv-x="555" 
d="M155 605l347 -232l-7 -43l-426 -233l-21 38l404 218l-323 218z" />
    <glyph glyph-name="less" unicode="&#x3c;" horiz-adv-x="555" 
d="M430 97l-347 233l7 43l426 232l21 -37l-404 -218l323 -218z" />
    <glyph glyph-name="greaterequal" unicode="&#x2265;" horiz-adv-x="566" 
d="M169 642l347 -233l-8 -43l-425 -232l-21 37l404 218l-324 218zM25 0l7 42h420l-7 -42h-420z" />
    <glyph glyph-name="lessequal" unicode="&#x2264;" horiz-adv-x="564" 
d="M437 134l-347 232l8 44l425 232l21 -37l-404 -219l324 -218zM25 0l7 42h420l-7 -42h-420z" />
    <glyph glyph-name="plusminus" unicode="&#xb1;" horiz-adv-x="592" 
d="M347 431h202l-7 -40h-202l-36 -204h-43l36 204h-203l7 40h203l35 197h43zM41 87l7 40h448l-8 -40h-447z" />
    <glyph glyph-name="approxequal" unicode="&#x2248;" horiz-adv-x="600" 
d="M128 373l-37 13c25 73 76 117 136 117c43 0 73 -17 116 -48c41 -27 62 -40 93 -40c44 0 74 29 97 89l37 -15c-24 -72 -75 -116 -134 -116c-43 0 -71 16 -116 48c-40 28 -62 41 -93 41c-43 0 -76 -30 -99 -89zM128 215l-37 13c25 73 76 117 136 117c43 0 73 -17 116 -48
c41 -27 62 -40 93 -40c44 0 74 29 97 89l37 -15c-24 -72 -75 -116 -134 -116c-43 0 -71 16 -116 48c-40 28 -62 41 -93 41c-43 0 -76 -30 -99 -89z" />
    <glyph glyph-name="asciitilde" unicode="~" horiz-adv-x="627" 
d="M117 289l-39 13c27 77 80 123 143 123c45 0 77 -18 121 -50c45 -29 66 -42 98 -42c45 0 79 31 102 93l39 -15c-25 -77 -78 -122 -141 -122c-44 0 -74 17 -122 50c-40 29 -65 43 -98 43c-45 0 -79 -30 -103 -93z" />
    <glyph glyph-name="logicalnot" unicode="&#xac;" horiz-adv-x="609" 
d="M475 188l33 187h-417l8 45h465l-41 -232h-48z" />
    <glyph glyph-name="infinity" unicode="&#x221e;" horiz-adv-x="743" 
d="M75 263c0 116 81 226 188 226c64 0 111 -45 126 -124c43 81 100 124 163 124c79 0 129 -57 129 -144c0 -118 -81 -227 -188 -227c-64 0 -111 45 -126 124c-43 -81 -100 -124 -163 -124c-80 0 -129 57 -129 145zM362 306c-7 93 -43 143 -99 143c-87 0 -147 -95 -147 -187
c0 -64 32 -104 89 -104c60 0 116 53 157 148zM640 345c0 64 -33 104 -89 104c-60 0 -116 -52 -157 -148c5 -93 42 -143 99 -143c87 0 147 96 147 187z" />
    <glyph glyph-name="emptyset" unicode="&#x2205;" horiz-adv-x="865" 
d="M813 350c4 -203 -162 -369 -365 -365c-83 0 -160 26 -221 71l-88 -104l-32 26l88 105c-71 67 -112 162 -112 267c-4 203 162 369 365 365c81 0 158 -25 219 -70l89 106l32 -27l-89 -106c72 -65 114 -161 114 -268zM224 117l414 494c-55 40 -118 60 -190 60
c-179 2 -321 -141 -318 -321c0 -92 34 -174 94 -233zM765 350c0 92 -35 175 -95 234l-415 -494c55 -41 120 -61 193 -61c179 -3 320 140 317 321z" />
    <glyph glyph-name="integral" unicode="&#x222b;" horiz-adv-x="486" 
d="M-17 -240l8 45c115 0 153 34 175 157l104 593c26 141 84 189 229 189l-8 -45c-117 0 -153 -34 -175 -157l-104 -588c-26 -145 -83 -194 -229 -194z" />
    <glyph glyph-name="product" unicode="&#x220f;" horiz-adv-x="746" 
d="M89 -141l141 796h-126l8 45h675l-7 -45h-126l-140 -796h-47l140 796h-330l-141 -796h-47z" />
    <glyph glyph-name="summation" unicode="&#x2211;" horiz-adv-x="612" 
d="M18 -100l9 47l341 358l-216 354l8 41h472l-8 -44h-414l217 -358l-339 -354h411l-9 -44h-472z" />
    <glyph glyph-name="radical" unicode="&#x221a;" horiz-adv-x="653" 
d="M658 700h57l-408 -700h-44l-82 359h-133l8 45h164l72 -337h2z" />
    <glyph glyph-name="partialdiff" unicode="&#x2202;" horiz-adv-x="587" 
d="M573 561c2 -331 -142 -581 -335 -576c-123 0 -193 71 -193 192c-3 179 122 325 273 322c69 0 132 -18 201 -61c5 37 7 78 7 123c0 117 -40 180 -117 180c-43 0 -81 -18 -122 -55l-28 34c47 44 97 66 150 66c107 0 164 -81 164 -225zM513 393c-71 44 -128 63 -195 63
c-127 0 -225 -124 -225 -279c0 -95 52 -147 145 -147c133 0 239 145 275 363z" />
    <glyph glyph-name="percent" unicode="%" horiz-adv-x="1035" 
d="M240 -64l-32 23l630 813l33 -23zM109 443c0 147 86 266 203 266c89 0 145 -63 145 -172c0 -147 -85 -266 -202 -266c-91 0 -146 63 -146 172zM413 538c0 85 -36 130 -101 130c-91 0 -159 -101 -159 -226c0 -84 38 -130 102 -130c90 0 158 101 158 226zM608 163
c0 147 88 266 202 266c91 0 146 -63 146 -172c0 -147 -85 -266 -202 -266c-91 0 -146 63 -146 172zM912 258c0 85 -37 130 -102 130c-90 0 -158 -101 -158 -226c0 -85 37 -130 102 -130c90 0 158 101 158 226z" />
    <glyph glyph-name="perthousand" unicode="&#x2030;" horiz-adv-x="1431" 
d="M236 -64l-32 23l630 813l33 -23zM109 443c0 147 86 266 203 266c89 0 145 -63 145 -172c0 -147 -85 -266 -202 -266c-91 0 -146 63 -146 172zM413 538c0 85 -36 130 -101 130c-91 0 -159 -101 -159 -226c0 -84 38 -130 102 -130c90 0 158 101 158 226zM608 163
c0 147 88 266 202 266c91 0 146 -63 146 -172c0 -147 -85 -266 -202 -266c-91 0 -146 63 -146 172zM1004 163c-2 145 88 269 202 266c91 0 146 -63 146 -172c0 -147 -85 -266 -202 -266c-91 0 -146 63 -146 172zM912 258c0 85 -37 130 -102 130c-90 0 -158 -101 -158 -226
c0 -85 37 -130 102 -130c90 0 158 101 158 226zM1308 258c0 85 -37 130 -101 130c-93 0 -160 -101 -160 -226c0 -85 38 -130 103 -130c90 0 158 101 158 226z" />
    <glyph glyph-name="uni207A" unicode="&#x207a;" horiz-adv-x="439" 
d="M361 229l-6 -36h-128l-23 -129h-40l23 129h-128l6 36h128l22 127h40l-22 -127h128z" />
    <glyph glyph-name="plus.tnum" 
d="M571 389l-8 -41h-201l-38 -212h-43l38 212h-203l7 41h203l36 204h43l-36 -204h202z" />
    <glyph glyph-name="minus.tnum" 
d="M141 348l7 41h398l-8 -41h-397z" />
    <glyph glyph-name="multiply.tnum" 
d="M559 515l-191 -162l133 -159l-31 -27l-132 161l-190 -163l-26 31l192 162l-132 159l32 26l130 -160l189 162z" />
    <glyph glyph-name="divide.tnum" 
d="M324 556c0 32 24 55 53 55c31 0 54 -23 54 -55c0 -31 -23 -53 -54 -53c-29 0 -53 22 -53 53zM141 348l7 41h398l-8 -41h-397zM256 176c0 31 22 54 53 54s53 -23 53 -54c0 -32 -22 -54 -53 -54s-53 22 -53 54z" />
    <glyph glyph-name="equal.tnum" 
d="M145 427l7 42h418l-8 -42h-417zM112 244l8 42h417l-8 -42h-417z" />
    <glyph glyph-name="notequal.tnum" 
d="M562 427h-149l-100 -141h224l-7 -42h-246l-77 -109l-27 20l62 89h-129l7 42h152l99 141h-226l7 42h248l76 108l28 -20l-62 -88h128z" />
    <glyph glyph-name="greater.tnum" 
d="M203 605l347 -232l-7 -43l-426 -233l-21 38l404 218l-323 218z" />
    <glyph glyph-name="less.tnum" 
d="M478 97l-347 233l7 43l426 232l21 -37l-404 -218l323 -218z" />
    <glyph glyph-name="greaterequal.tnum" 
d="M211 642l347 -233l-8 -43l-425 -232l-21 37l404 218l-324 218zM67 0l7 42h420l-7 -42h-420z" />
    <glyph glyph-name="lessequal.tnum" 
d="M480 134l-347 232l8 44l425 232l21 -37l-404 -219l324 -218zM68 0l7 42h420l-7 -42h-420z" />
    <glyph glyph-name="plusminus.tnum" 
d="M375 431h202l-7 -40h-202l-36 -204h-43l36 204h-203l7 40h203l35 197h43zM69 87l7 40h448l-8 -40h-447z" />
    <glyph glyph-name="approxequal.tnum" 
d="M138 373l-37 13c25 73 76 117 136 117c43 0 73 -17 116 -48c41 -27 62 -40 93 -40c44 0 74 29 97 89l37 -15c-24 -72 -75 -116 -134 -116c-43 0 -71 16 -116 48c-40 28 -62 41 -93 41c-43 0 -76 -30 -99 -89zM138 215l-37 13c25 73 76 117 136 117c43 0 73 -17 116 -48
c41 -27 62 -40 93 -40c44 0 74 29 97 89l37 -15c-24 -72 -75 -116 -134 -116c-43 0 -71 16 -116 48c-40 28 -62 41 -93 41c-43 0 -76 -30 -99 -89z" />
    <glyph glyph-name="percent.tnum" 
d="M103 613c0 147 88 266 203 266c89 0 145 -64 145 -172c0 -147 -85 -266 -202 -266c-91 0 -146 63 -146 172zM408 708c0 85 -37 130 -102 130c-90 0 -158 -101 -158 -226c0 -85 37 -130 101 -130c90 0 159 102 159 226zM125 248l-14 43l413 150l16 -41zM229 -7
c-2 145 88 269 202 266c91 0 146 -64 146 -172c0 -147 -85 -266 -202 -266c-91 0 -146 63 -146 172zM532 88c0 85 -36 130 -100 130c-92 0 -159 -101 -159 -226c0 -84 38 -130 102 -130c90 0 157 101 157 226z" />
    <glyph glyph-name="perthousand.tnum" 
d="M87 637c-2 145 88 270 202 267c91 0 146 -64 146 -172c0 -147 -85 -266 -202 -266c-91 0 -146 63 -146 171zM391 732c0 85 -37 131 -101 131c-91 0 -159 -101 -159 -226c0 -85 38 -131 102 -131c90 0 158 103 158 226zM85 282l-15 41l414 150l15 -40zM-33 -42
c-2 145 88 269 200 266c54 0 92 -23 114 -70c28 104 99 170 184 170c89 0 145 -63 145 -171c2 -145 -88 -270 -201 -267c-54 0 -92 23 -114 70c-28 -103 -97 -170 -184 -170c-89 0 -144 63 -144 172zM565 153c0 85 -36 131 -100 131c-91 0 -156 -101 -156 -226
c0 -85 36 -131 100 -131c88 0 156 102 156 226zM267 53c0 85 -35 131 -99 131c-90 0 -157 -101 -157 -226c0 -85 37 -131 101 -131c89 0 155 101 155 226z" />
    <glyph glyph-name="arrowup" unicode="&#x2191;" horiz-adv-x="576" 
d="M541 414l-33 -32l-171 181v-510h-45v511l-171 -182l-33 32l226 233z" />
    <glyph glyph-name="uni2197" unicode="&#x2197;" horiz-adv-x="540" 
d="M155 562l324 6l-5 -326l-45 1l7 251l-363 -362l-29 31l360 362l-249 -6v43z" />
    <glyph glyph-name="arrowright" unicode="&#x2192;" horiz-adv-x="721" 
d="M440 572l234 -226l-234 -226l-31 32l183 173h-512v43h511l-182 172z" />
    <glyph glyph-name="uni2198" unicode="&#x2198;" horiz-adv-x="630" 
d="M221 137v43l249 -6l-360 362l29 31l363 -362l-7 251l45 1l5 -326z" />
    <glyph glyph-name="arrowdown" unicode="&#x2193;" horiz-adv-x="576" 
d="M485 319l33 -32l-227 -233l-226 233l33 32l171 -182v511h45v-510z" />
    <glyph glyph-name="uni2199" unicode="&#x2199;" horiz-adv-x="539" 
d="M525 538l-360 -362l249 6v-43l-324 -6l5 326l45 -1l-7 -251l363 362z" />
    <glyph glyph-name="arrowleft" unicode="&#x2190;" horiz-adv-x="720" 
d="M669 368v-43h-512l183 -173l-31 -32l-234 226l234 226l31 -32l-182 -172h511z" />
    <glyph glyph-name="uni2196" unicode="&#x2196;" horiz-adv-x="660" 
d="M580 163l-29 -31l-363 362l7 -251l-45 -1l-5 326l324 -6v-43l-249 6z" />
    <glyph glyph-name="arrowboth" unicode="&#x2194;" horiz-adv-x="810" 
d="M528 572l235 -226l-235 -226l-30 31l186 175h-529l185 -175l-30 -31l-234 226l234 226l30 -31l-184 -174h527l-185 174z" />
    <glyph glyph-name="arrowupdn" unicode="&#x2195;" horiz-adv-x="612" 
d="M341 96l174 185l32 -31l-226 -235l-226 235l32 31l173 -184v505l-173 -184l-32 31l226 235l226 -235l-32 -31l-174 185v-507z" />
    <glyph glyph-name="uni21B3" unicode="&#x21b3;" horiz-adv-x="780" 
d="M499 572l233 -226l-233 -226l-31 32l183 173h-462v375h44v-332h417l-182 172z" />
    <glyph glyph-name="lozenge" unicode="&#x25ca;" horiz-adv-x="639" 
d="M242 0l-155 350l278 350h62l155 -350l-278 -350h-62zM276 34l255 322l-137 310l-256 -322z" />
    <glyph glyph-name="uniF8FF" unicode="&#xf8ff;" horiz-adv-x="765" 
d="M82 0v423c-4 154 139 295 292 292c155 3 298 -138 294 -292v-423h-28l-65 65l-68 -65l-63 65l-71 -65l-69 65l-63 -65l-67 65l-66 -65h-26zM319 377c0 40 -31 72 -71 72c-39 0 -71 -32 -71 -72c0 -39 32 -70 71 -70s71 31 71 70zM574 377c0 40 -32 72 -72 72
c-39 0 -70 -32 -70 -72c0 -37 33 -70 70 -70c39 0 72 33 72 70z" />
    <glyph glyph-name="at" unicode="@" horiz-adv-x="815" 
d="M754 376c0 -171 -69 -285 -171 -285c-49 0 -78 21 -83 62c-24 -40 -76 -66 -132 -66c-67 0 -108 35 -108 94c0 29 7 52 22 69c29 36 67 50 132 70c76 24 110 40 110 81c0 35 -27 56 -74 56c-60 0 -104 -34 -119 -94l-40 10c19 77 81 123 161 123c68 0 115 -39 115 -95
c0 -4 -1 -10 -2 -18l-27 -168c-3 -19 -4 -31 -4 -37c0 -36 16 -51 52 -51c75 0 129 105 129 249c0 151 -93 244 -244 244c-204 3 -364 -178 -361 -408c0 -161 87 -250 246 -250c73 0 141 20 205 60l18 -32c-71 -43 -146 -64 -223 -64c-180 0 -285 105 -285 286
c-4 251 175 448 400 444c173 0 283 -110 283 -280zM496 219l19 113h-2c-19 -23 -46 -33 -97 -49c-70 -21 -111 -37 -114 -100c0 -36 25 -57 68 -57c63 0 117 40 126 93z" />
    <glyph glyph-name="ampersand" unicode="&#x26;" horiz-adv-x="677" 
d="M609 85l-31 -31l-66 70c-40 -87 -134 -139 -250 -139c-128 0 -206 66 -206 170c0 100 68 182 196 245c-47 51 -68 97 -68 148c0 96 77 167 182 167c49 0 90 -14 121 -43c31 -28 47 -65 48 -112l-45 -3c-3 72 -51 116 -124 116c-80 0 -137 -53 -137 -125
c0 -43 16 -78 55 -119l209 -221l31 182h43l-38 -220zM480 159l-200 211c-121 -59 -179 -126 -179 -213c0 -79 64 -130 161 -130c105 0 187 51 218 132z" />
    <glyph glyph-name="paragraph" unicode="&#xb6;" horiz-adv-x="523" 
d="M114 -136l96 543c-76 15 -117 59 -117 131c0 93 75 162 174 162h238l-148 -836h-48l140 792h-148l-139 -792h-48z" />
    <glyph glyph-name="section" unicode="&#xa7;" horiz-adv-x="640" 
d="M544 253c0 -59 -38 -109 -121 -157c27 -27 40 -62 40 -105c0 -90 -80 -171 -192 -171c-113 0 -191 71 -196 176l47 4c7 -84 61 -135 149 -135c86 0 144 62 144 126c0 51 -24 82 -84 109l-117 53c-80 36 -117 76 -117 129c0 59 38 109 121 158c-27 27 -40 62 -40 105
c0 88 80 170 191 170c57 0 104 -16 139 -49c36 -32 55 -74 58 -126l-47 -5c-7 84 -62 136 -150 136c-86 0 -143 -62 -143 -126c0 -51 24 -82 84 -110l117 -53c80 -36 117 -76 117 -129zM496 249c0 37 -26 65 -93 94l-123 56c-13 5 -21 10 -26 13c-71 -39 -109 -84 -109 -125
c0 -37 26 -64 93 -95l123 -55c9 -3 18 -8 27 -14c71 39 108 83 108 126z" />
    <glyph glyph-name="copyright" unicode="&#xa9;" horiz-adv-x="741" 
d="M78 323c-3 177 136 310 303 307c167 3 306 -130 303 -307c3 -177 -136 -310 -303 -307c-167 -3 -306 130 -303 307zM649 323c0 164 -118 274 -268 274c-151 0 -267 -110 -267 -274c0 -162 116 -274 267 -274c150 0 268 112 268 274zM232 323c0 111 61 185 152 185
c75 0 128 -48 139 -125l-39 -6c-11 60 -47 94 -100 94c-68 0 -111 -57 -111 -148s43 -148 111 -148c53 0 89 34 100 94l39 -7c-11 -76 -64 -124 -139 -124c-91 0 -152 74 -152 185z" />
    <glyph glyph-name="registered" unicode="&#xae;" horiz-adv-x="741" 
d="M684 323c3 -177 -136 -310 -303 -307c-167 -3 -306 130 -303 307c-3 177 136 310 303 307c167 3 306 -130 303 -307zM649 323c0 164 -118 274 -268 274c-151 0 -267 -110 -267 -274c0 -162 116 -274 267 -274c150 0 268 112 268 274zM440 294l78 -148h-44l-75 145h-83
v-145h-40v354h135c73 0 117 -38 117 -103c0 -56 -32 -94 -88 -103zM487 397c0 44 -28 67 -80 67h-90v-138h90c51 0 80 26 80 71z" />
    <glyph glyph-name="uni2117" unicode="&#x2117;" horiz-adv-x="741" 
d="M78 323c-3 177 136 310 303 307c167 3 306 -130 303 -307c3 -177 -136 -310 -303 -307c-167 -3 -306 130 -303 307zM649 323c0 164 -118 274 -268 274c-151 0 -267 -110 -267 -274c0 -162 116 -274 267 -274c150 0 268 112 268 274zM288 145v354h129
c75 0 118 -40 118 -109c0 -68 -43 -108 -118 -108h-88v-137h-41zM329 318h85c51 0 80 27 80 72c0 49 -27 73 -81 73h-84v-145z" />
    <glyph glyph-name="trademark" unicode="&#x2122;" horiz-adv-x="765" 
d="M184 361l54 305h-110l6 34h249l-6 -34h-102l-54 -305h-37zM388 361l60 339h46l67 -283h1l168 283h50l-60 -339h-35l49 280h-1l-167 -280h-25l-67 280h-1l-49 -280h-36z" />
    <glyph glyph-name="degree" unicode="&#xb0;" horiz-adv-x="433" 
d="M104 545c0 47 15 85 45 115c31 30 70 45 117 45s86 -15 116 -45s45 -68 45 -115s-15 -85 -45 -115s-69 -45 -116 -45s-86 15 -117 45c-30 30 -45 68 -45 115zM386 545c0 72 -49 121 -120 121s-120 -49 -120 -121s49 -121 120 -121s120 49 120 121z" />
    <glyph glyph-name="bar" unicode="|" horiz-adv-x="261" 
d="M12 -300l190 1075h37l-190 -1075h-37z" />
    <glyph glyph-name="brokenbar" unicode="&#xa6;" horiz-adv-x="261" 
d="M127 350l75 425h37l-75 -425h-37zM12 -300l75 425h37l-75 -425h-37z" />
    <glyph glyph-name="dagger" unicode="&#x2020;" horiz-adv-x="614" 
d="M203 -192l119 678h-221l8 44h222l41 239h47l-41 -239h222l-9 -44h-221l-120 -678h-47z" />
    <glyph glyph-name="daggerdbl" unicode="&#x2021;" horiz-adv-x="615" 
d="M204 -192l39 223h-222l8 45h222l72 410h-222l8 44h222l40 228h47l-40 -228h222l-8 -44h-222l-72 -410h222l-8 -45h-222l-39 -223h-47z" />
    <glyph glyph-name="uni2116" unicode="&#x2116;" horiz-adv-x="1064" 
d="M707 443c0 147 88 266 202 266c89 0 145 -63 145 -172c0 -147 -85 -266 -202 -266c-89 0 -145 63 -145 172zM47 0l124 700h54l259 -627h2l111 627h47l-124 -700h-53l-259 628h-2l-111 -628h-48zM1010 537c0 85 -37 131 -101 131c-90 0 -158 -100 -158 -225
c0 -85 38 -131 103 -131c88 0 156 101 156 225zM663 165l7 40h332l-7 -40h-332z" />
    <glyph glyph-name="asciicircum" unicode="^" horiz-adv-x="546" 
d="M476 329h-46l-88 311l-196 -311h-53l239 371h36z" />
    <glyph glyph-name="at.case" horiz-adv-x="815" 
d="M764 435c0 -171 -69 -285 -171 -285c-49 0 -78 21 -83 62c-24 -40 -76 -66 -132 -66c-67 0 -108 35 -108 94c0 29 7 52 22 69c29 36 67 50 132 70c76 24 110 40 110 81c0 35 -27 56 -74 56c-60 0 -104 -34 -119 -94l-40 10c19 77 81 123 161 123c68 0 115 -39 115 -95
c0 -4 -1 -10 -2 -18l-27 -168c-3 -19 -4 -31 -4 -37c0 -36 16 -51 52 -51c75 0 129 105 129 249c0 151 -93 244 -244 244c-204 3 -364 -178 -361 -408c0 -161 87 -250 246 -250c73 0 141 20 205 60l18 -32c-71 -43 -146 -64 -223 -64c-180 0 -285 105 -285 286
c-4 251 175 448 400 444c173 0 283 -110 283 -280zM506 278l19 113h-2c-19 -23 -46 -33 -97 -49c-70 -21 -111 -37 -114 -100c0 -36 25 -57 68 -57c63 0 117 40 126 93z" />
    <glyph glyph-name="uni0308" unicode="&#x308;" horiz-adv-x="0" 
d="M-187 580l13 75h76l-12 -75h-77zM-21 580l13 75h77l-13 -75h-77z" />
    <glyph glyph-name="uni0307" unicode="&#x307;" horiz-adv-x="0" 
d="M-20 590l13 75h76l-12 -75h-77z" />
    <glyph glyph-name="gravecomb" unicode="&#x300;" horiz-adv-x="0" 
d="M12 590l-73 106h71l47 -106h-45z" />
    <glyph glyph-name="acutecomb" unicode="&#x301;" horiz-adv-x="0" 
d="M-81 590l85 106h72l-111 -106h-46z" />
    <glyph glyph-name="uni030B" unicode="&#x30b;" horiz-adv-x="0" 
d="M-205 590l85 106h72l-111 -106h-46zM-81 590l85 106h72l-111 -106h-46z" />
    <glyph glyph-name="uni0302" unicode="&#x302;" horiz-adv-x="0" 
d="M58 591l-32 -21l-56 86l-84 -86l-27 27l80 82h62z" />
    <glyph glyph-name="uni030C" unicode="&#x30c;" horiz-adv-x="0" 
d="M43 689l27 -27l-81 -82h-62l-57 88l33 21l55 -87z" />
    <glyph glyph-name="uni0306" unicode="&#x306;" horiz-adv-x="0" 
d="M-139 683h30c5 -40 25 -60 62 -60c43 0 74 21 91 60h30c-16 -65 -62 -103 -123 -103c-56 0 -91 40 -90 103z" />
    <glyph glyph-name="uni030A" unicode="&#x30a;" horiz-adv-x="0" 
d="M-159 603c0 59 46 103 109 103c61 0 108 -44 108 -103c0 -60 -45 -104 -108 -104s-109 44 -109 104zM22 603c0 43 -31 72 -72 72c-43 0 -73 -31 -73 -72s30 -73 73 -73c41 0 72 30 72 73z" />
    <glyph glyph-name="tildecomb" unicode="&#x303;" horiz-adv-x="0" 
d="M-72 609c-20 13 -37 19 -50 19c-21 0 -35 -13 -43 -38h-29c8 47 37 76 76 76c23 0 39 -8 66 -24c20 -13 37 -19 50 -19c21 0 35 13 43 38h29c-8 -47 -37 -76 -76 -76c-23 0 -39 8 -66 24z" />
    <glyph glyph-name="uni0304" unicode="&#x304;" horiz-adv-x="0" 
d="M-185 590l7 38h243l-8 -38h-242z" />
    <glyph glyph-name="uni0312" unicode="&#x312;" horiz-adv-x="0" 
d="M79 728l-5 -27c-24 -5 -34 -16 -39 -40h34l-12 -71h-82l11 62c8 47 40 73 93 76z" />
    <glyph glyph-name="dotbelowcomb" unicode="&#x323;" horiz-adv-x="0" 
d="M-145 -124l13 75h76l-12 -75h-77z" />
    <glyph glyph-name="uni0326" unicode="&#x326;" horiz-adv-x="0" 
d="M-155 -188l6 28c21 4 32 15 36 39h-32l13 71h77l-11 -62c-9 -48 -39 -73 -89 -76z" />
    <glyph glyph-name="uni0327" unicode="&#x327;" horiz-adv-x="0" 
d="M-68 -112c0 -53 -44 -94 -103 -94c-37 0 -67 13 -92 40l25 24c19 -21 39 -31 67 -31c39 0 69 28 69 61c0 25 -19 40 -48 40c-24 0 -46 -10 -66 -30l-27 16l72 99l31 -7l-44 -58c13 6 26 9 41 9c44 0 75 -28 75 -69z" />
    <glyph glyph-name="uni0328" unicode="&#x328;" horiz-adv-x="0" 
d="M-228 -124c0 45 46 95 125 135l22 -11c-65 -33 -104 -75 -104 -114c0 -19 12 -29 36 -29c21 0 42 7 63 21l11 -36c-28 -17 -55 -25 -82 -25c-45 0 -71 20 -71 59z" />
    <glyph glyph-name="uni0335" unicode="&#x335;" horiz-adv-x="0" 
d="M-324 341l7 40h338l-8 -40h-337z" />
    <glyph glyph-name="uni0336" unicode="&#x336;" horiz-adv-x="0" 
d="M-633 341l7 40h646l-7 -40h-646z" />
    <glyph glyph-name="uni0337" unicode="&#x337;" horiz-adv-x="0" 
d="M-453 -2l-20 19l498 517l19 -20z" />
    <glyph glyph-name="_646" horiz-adv-x="0" 
d="M16 355l-162 -116l1 5l-129 -93l-18 24l154 112l-1 -6l138 99z" />
    <glyph glyph-name="uni0338" unicode="&#x338;" horiz-adv-x="0" 
d="M-459 -25l-28 20l535 723l28 -21z" />
    <glyph glyph-name="_648" horiz-adv-x="0" 
d="M21 390l-247 -158l1 4l-175 -115l-17 25l216 142l-1 -3l205 131z" />
    <glyph glyph-name="_649" horiz-adv-x="0" 
d="M-3 625l11 65h67l-11 -65h-67z" />
    <glyph glyph-name="_650" horiz-adv-x="0" 
d="M-236 346l6 35h251l-6 -35h-251z" />
    <glyph glyph-name="acute" unicode="&#xb4;" horiz-adv-x="281" 
d="M129 590l85 106h72l-111 -106h-46z" />
    <glyph glyph-name="breve" unicode="&#x2d8;" horiz-adv-x="353" 
d="M146 683h30c5 -40 25 -60 62 -60c43 0 74 21 91 60h30c-16 -65 -62 -103 -123 -103c-56 0 -91 40 -90 103z" />
    <glyph glyph-name="caron" unicode="&#x2c7;" horiz-adv-x="344" 
d="M316 689l27 -27l-81 -82h-62l-57 88l33 21l55 -87z" />
    <glyph glyph-name="cedilla" unicode="&#xb8;" horiz-adv-x="328" 
d="M191 -112c0 -53 -44 -94 -103 -94c-37 0 -67 13 -92 40l25 24c19 -21 39 -31 67 -31c39 0 69 28 69 61c0 25 -19 40 -48 40c-24 0 -46 -10 -66 -30l-27 16l72 99l31 -7l-44 -58c13 6 26 9 41 9c44 0 75 -28 75 -69z" />
    <glyph glyph-name="circumflex" unicode="&#x2c6;" horiz-adv-x="344" 
d="M330 591l-32 -21l-56 86l-84 -86l-27 27l80 82h62z" />
    <glyph glyph-name="dieresis" unicode="&#xa8;" horiz-adv-x="387" 
d="M128 580l13 75h76l-12 -75h-77zM294 580l13 75h77l-13 -75h-77z" />
    <glyph glyph-name="dotaccent" unicode="&#x2d9;" horiz-adv-x="221" 
d="M130 590l13 75h76l-12 -75h-77z" />
    <glyph glyph-name="grave" unicode="`" horiz-adv-x="280" 
d="M221 590l-73 106h71l47 -106h-45z" />
    <glyph glyph-name="hungarumlaut" unicode="&#x2dd;" horiz-adv-x="405" 
d="M129 590l85 106h72l-111 -106h-46zM253 590l85 106h72l-111 -106h-46z" />
    <glyph glyph-name="macron" unicode="&#xaf;" horiz-adv-x="386" 
d="M129 590l7 38h243l-8 -38h-242z" />
    <glyph glyph-name="ogonek" unicode="&#x2db;" horiz-adv-x="303" 
d="M4 -124c0 45 46 95 125 135l22 -11c-65 -33 -104 -75 -104 -114c0 -19 12 -29 36 -29c21 0 42 7 63 21l11 -36c-28 -17 -55 -25 -82 -25c-45 0 -71 20 -71 59z" />
    <glyph glyph-name="ring" unicode="&#x2da;" horiz-adv-x="364" 
d="M133 603c0 59 46 103 109 103c61 0 108 -44 108 -103c0 -60 -45 -104 -108 -104s-109 44 -109 104zM314 603c0 43 -31 72 -72 72c-43 0 -73 -31 -73 -72s30 -73 73 -73c41 0 72 30 72 73z" />
    <glyph glyph-name="tilde" unicode="&#x2dc;" horiz-adv-x="394" 
d="M251 609c-20 13 -37 19 -50 19c-21 0 -35 -13 -43 -38h-29c8 47 37 76 76 76c23 0 39 -8 66 -24c20 -13 37 -19 50 -19c21 0 35 13 43 38h29c-8 -47 -37 -76 -76 -76c-23 0 -39 8 -66 24z" />
    </font>
</defs>
</svg>
